<svg width="373" height="270" viewBox="0 0 373 270" fill="none" xmlns="http://www.w3.org/2000/svg">
<path d="M2.5 2.5H370.5V267.5H49.6696C23.6185 267.5 2.5 246.381 2.5 220.33V2.5Z" fill="url(#paint0_linear_503_13443)" stroke="url(#paint1_linear_503_13443)" stroke-width="5" stroke-linejoin="round"/>
<path fill-rule="evenodd" clip-rule="evenodd" d="M186.242 71.559C185.836 72.27 185.381 73.0866 184.849 74.0511L184.164 75.2901L184.003 75.5716C183.457 76.5854 182.547 78.2608 181.028 79.4224C179.481 80.6051 177.612 81.0134 176.527 81.2527L176.219 81.3161L174.889 81.6188C173.658 81.9004 172.657 82.1257 171.81 82.3439C172.363 83.0268 173.084 83.8856 174.022 84.9909L174.931 86.0609L175.141 86.3003C175.897 87.1802 177.115 88.5882 177.682 90.4185C178.242 92.2207 178.046 94.0792 177.927 95.2478C177.915 95.358 177.903 95.4683 177.892 95.5787L177.752 97.0078C177.647 98.0866 177.549 99.166 177.458 100.246C178.193 99.9222 179.019 99.5421 180.006 99.0845L181.259 98.5072L181.539 98.3665C182.547 97.8948 184.29 97.0641 186.242 97.0641C188.195 97.0641 189.938 97.8948 190.946 98.3735L191.226 98.5072L192.479 99.0845C193.459 99.5421 194.299 99.9293 195.026 100.246C194.935 99.166 194.837 98.0866 194.732 97.0078L194.592 95.5787C194.581 95.4683 194.57 95.358 194.557 95.2478C194.438 94.0722 194.243 92.2207 194.802 90.4185C195.362 88.5882 196.587 87.1802 197.343 86.3003L197.553 86.0609L198.463 84.9909C199.401 83.8856 200.122 83.0268 200.675 82.3439C199.828 82.1327 198.827 81.9004 197.595 81.6188L196.265 81.3161L195.957 81.2457C194.872 81.0134 193.004 80.6051 191.457 79.4154C189.938 78.2608 189.028 76.5854 188.482 75.5787L188.321 75.2901L187.635 74.0511C187.103 73.0866 186.655 72.27 186.242 71.559ZM179.341 62.8719C180.545 61.2879 182.729 59 186.242 59C189.756 59 191.94 61.2879 193.144 62.8719C194.299 64.3784 195.453 66.4692 196.643 68.6163L196.804 68.905L197.49 70.151L197.889 70.855L198.582 71.0169L199.912 71.3196L200.248 71.39C202.537 71.918 204.818 72.4319 206.568 73.1288C208.5 73.8962 211.118 75.3816 212.133 78.6551C213.127 81.8582 211.874 84.5755 210.782 86.3284C209.767 87.9476 208.227 89.7498 206.652 91.6012L206.442 91.8476L205.532 92.9247L204.958 93.6076C204.972 93.861 205.007 94.1567 205.042 94.5579L205.182 95.987L205.21 96.3108C205.448 98.7888 205.679 101.182 205.595 103.097C205.511 105.111 205.035 108.152 202.32 110.214C199.52 112.354 196.44 111.89 194.48 111.32C192.675 110.806 190.54 109.813 188.391 108.821L188.09 108.68L186.83 108.095L186.242 107.821L185.647 108.102L184.395 108.68L184.087 108.821C181.945 109.813 179.817 110.806 178.004 111.32C176.044 111.883 172.965 112.354 170.165 110.214C167.456 108.152 166.973 105.111 166.889 103.104C166.805 101.182 167.029 98.7888 167.274 96.3108L167.302 95.987L167.442 94.5579L167.533 93.6076C167.341 93.3787 167.147 93.1511 166.952 92.9247L166.042 91.8476L165.832 91.6012C164.258 89.7498 162.718 87.9405 161.703 86.3214C160.611 84.5755 159.358 81.8582 160.352 78.648C161.36 75.3886 163.985 73.8962 165.916 73.1288C167.666 72.4319 169.948 71.918 172.237 71.3971L172.566 71.3267L173.903 71.0169L174.603 70.855L174.994 70.151L175.68 68.905L175.841 68.6163C177.031 66.4692 178.186 64.3784 179.341 62.8719ZM178.9 115.318H193.585C198.239 115.318 202.25 115.318 205.462 115.755C208.906 116.219 212.203 117.268 214.876 119.957C217.55 122.647 218.593 125.962 219.055 129.426C219.489 132.657 219.489 136.691 219.489 141.372V158.733C220.637 158.381 221.82 158.155 223.017 157.993C226.229 157.557 230.24 157.557 234.894 157.557H235.58C240.235 157.557 244.245 157.557 247.458 157.993C250.902 158.458 254.198 159.507 256.872 162.196C259.546 164.885 260.589 168.201 261.051 171.665C261.485 174.896 261.485 178.93 261.485 183.611V205.075C261.485 206.476 260.932 207.819 259.947 208.809C258.963 209.799 257.627 210.355 256.235 210.355C254.843 210.355 253.508 209.799 252.523 208.809C251.539 207.819 250.986 206.476 250.986 205.075V183.956C250.986 178.831 250.972 175.508 250.65 173.073C250.342 170.785 249.845 170.067 249.446 169.665C249.047 169.264 248.333 168.764 246.058 168.455C243.629 168.131 240.333 168.117 235.237 168.117C230.142 168.117 226.838 168.131 224.416 168.455C222.142 168.764 221.428 169.264 221.029 169.665C220.63 170.067 220.133 170.785 219.825 173.073C219.503 175.515 219.489 178.831 219.489 183.956V205.075C219.489 206.476 218.936 207.819 217.951 208.809C216.967 209.799 215.632 210.355 214.239 210.355C212.847 210.355 211.512 209.799 210.528 208.809C209.543 207.819 208.99 206.476 208.99 205.075V141.717C208.99 136.592 208.976 133.27 208.654 130.834C208.346 128.546 207.849 127.828 207.45 127.427C207.051 127.025 206.337 126.526 204.063 126.216C201.634 125.892 198.337 125.878 193.242 125.878H179.243C174.148 125.878 170.844 125.892 168.422 126.216C166.147 126.526 165.433 127.025 165.034 127.427C164.636 127.828 164.139 128.546 163.831 130.834C163.509 133.277 163.495 136.592 163.495 141.717V205.075C163.495 206.476 162.942 207.819 161.957 208.809C160.973 209.799 159.637 210.355 158.245 210.355C156.853 210.355 155.518 209.799 154.533 208.809C153.549 207.819 152.996 206.476 152.996 205.075C152.996 199.95 152.982 196.628 152.66 194.192C152.352 191.904 151.855 191.186 151.456 190.785C151.057 190.383 150.343 189.884 148.068 189.574C145.639 189.25 142.343 189.236 137.247 189.236C132.152 189.236 128.848 189.25 126.426 189.574C124.152 189.884 123.438 190.383 123.039 190.785C122.64 191.186 122.143 191.904 121.835 194.192C121.513 196.635 121.499 199.95 121.499 205.075C121.499 206.476 120.946 207.819 119.961 208.809C118.977 209.799 117.642 210.355 116.249 210.355C114.857 210.355 113.522 209.799 112.538 208.809C111.553 207.819 111 206.476 111 205.075V204.723C111 200.049 111 196.015 111.434 192.784C111.896 189.32 112.939 186.005 115.613 183.315C118.286 180.626 121.59 179.577 125.027 179.113C128.239 178.676 132.25 178.676 136.904 178.676H137.59C142.245 178.676 146.255 178.676 149.468 179.113C150.665 179.275 151.848 179.507 152.996 179.852V141.372C152.996 136.691 152.996 132.657 153.43 129.426C153.892 125.962 154.935 122.647 157.608 119.957C160.282 117.268 163.586 116.219 167.022 115.755C170.235 115.318 174.246 115.318 178.9 115.318Z" fill="#08010E"/>
<defs>
<linearGradient id="paint0_linear_503_13443" x1="22.7944" y1="22.8437" x2="393.267" y2="207.739" gradientUnits="userSpaceOnUse">
<stop stop-color="#5E27ED"/>
<stop offset="1" stop-color="#8E55C8" stop-opacity="0.27"/>
</linearGradient>
<linearGradient id="paint1_linear_503_13443" x1="22.7944" y1="22.8437" x2="393.267" y2="207.739" gradientUnits="userSpaceOnUse">
<stop stop-color="#5E27ED"/>
<stop offset="1" stop-color="#8E55C8" stop-opacity="0.27"/>
</linearGradient>
</defs>
</svg>
