<svg width="373" height="270" viewBox="0 0 373 270" fill="none" xmlns="http://www.w3.org/2000/svg">
<g clip-path="url(#clip0_490_13397)">
<path d="M3.5 3.5H369.5V266.5H41.9477C20.7136 266.5 3.5 249.286 3.5 228.052V3.5Z" fill="url(#paint0_linear_490_13397)" stroke="url(#paint1_linear_490_13397)" stroke-width="7" stroke-linejoin="round"/>
<path d="M246.778 88.0556H229.556C229.556 63.9444 210.611 45 186.5 45C162.389 45 143.444 63.9444 143.444 88.0556H126.222C116.75 88.0556 109 95.8056 109 105.278V208.611C109 218.083 116.75 225.833 126.222 225.833H246.778C256.25 225.833 264 218.083 264 208.611V105.278C264 95.8056 256.25 88.0556 246.778 88.0556ZM186.5 62.2222C201.139 62.2222 212.333 73.4167 212.333 88.0556H160.667C160.667 73.4167 171.861 62.2222 186.5 62.2222ZM246.778 208.611H126.222V105.278H246.778V208.611ZM186.5 139.722C171.861 139.722 160.667 128.528 160.667 113.889H143.444C143.444 138 162.389 156.944 186.5 156.944C210.611 156.944 229.556 138 229.556 113.889H212.333C212.333 128.528 201.139 139.722 186.5 139.722Z" fill="#08010E"/>
<path d="M184.609 164.867C180.594 167.767 178.536 171.897 176.64 175.713C179.972 173.824 184.447 173.187 186.382 173.509C181.484 174.323 178.091 175.49 175.296 178.446C175.128 178.791 174.982 179.083 174.805 179.451C183.664 177.317 185.123 177.379 194.067 179.398C193.184 175.551 191.265 173.095 188.271 168.43C191.487 172.465 197.798 179.352 197.506 178.008C195.748 169.957 189.821 165.179 184.609 164.867ZM171.688 181.133C169.308 181.701 167.55 182.476 166.867 183.182C166.936 184.081 167.382 184.879 168.211 185.639C169.117 186.468 170.483 187.205 172.149 187.796C172.355 187.865 172.563 187.934 172.771 188.003C172.126 187.159 171.911 185.984 171.773 184.848C171.773 183.666 171.542 182.276 171.688 181.133ZM197.483 181.133C197.652 182.376 197.529 183.781 197.398 184.848C197.26 185.984 197.045 187.159 196.4 188.003C197.951 187.466 199.824 186.652 200.961 185.639C201.79 184.879 202.235 184.081 202.304 183.182C201.621 182.476 199.87 181.701 197.483 181.133ZM176.417 181.156L175.88 182.23H183.465L182.927 181.156H176.417ZM186.244 181.156L185.706 182.23H193.291L192.754 181.156H186.244ZM174.068 181.877C173.707 181.977 173.347 182.077 172.993 182.192C173.07 183.72 173.039 185.846 173.884 187.144H174.068V181.877ZM195.103 181.877V187.144H195.287C196.093 185.555 196.155 183.935 196.178 182.192C195.825 182.077 195.464 181.977 195.103 181.877ZM175.458 183.612C175.435 185.056 175.611 186.645 175.934 187.888C177.554 186.806 179.15 185.915 180.901 185.915C181.146 185.915 181.392 185.931 181.622 185.946L182.021 184.741C181.592 185.178 181.031 185.424 180.24 185.393C178.306 185.332 177.638 184.541 177.362 183.612H175.458ZM183.856 183.612L182.904 186.468L184.586 188.572L186.267 186.468L185.315 183.612H183.856ZM191.81 183.612C191.533 184.541 190.865 185.332 188.931 185.393C188.14 185.424 187.58 185.178 187.15 184.741L187.549 185.946C187.787 185.923 188.033 185.915 188.271 185.915C190.021 185.915 191.618 186.806 193.238 187.888C193.575 186.345 193.76 185.002 193.713 183.612H191.81ZM180.901 187.297C179.365 187.297 177.6 188.41 175.611 189.785C174.137 190.806 172.548 191.942 170.752 192.732C172.947 193.201 175.803 193.101 178.29 192.533C179.926 192.164 181.4 191.604 182.413 190.959C183.066 190.537 183.495 190.107 183.718 189.7L181.86 187.374C181.576 187.328 181.254 187.297 180.901 187.297ZM188.271 187.297C187.917 187.297 187.595 187.328 187.311 187.374L185.453 189.7C185.676 190.107 186.106 190.537 186.758 190.959C187.772 191.604 189.245 192.164 190.881 192.533C193.368 193.101 196.224 193.201 198.419 192.732C196.623 191.942 195.034 190.806 193.56 189.785C191.572 188.41 189.806 187.297 188.271 187.297ZM184.586 190.882C184.232 191.32 183.772 191.711 183.25 192.057H185.921C185.399 191.711 184.939 191.32 184.586 190.882ZM180.233 193.439C179.703 193.608 179.158 193.753 178.598 193.884C177.868 194.053 177.124 194.183 176.379 194.276C176.847 195.78 177.461 197.308 178.145 198.744L178.152 198.759C178.482 198.245 178.874 197.753 179.189 197.239C179.004 198.306 178.935 199.381 179.012 200.448C179.143 200.701 179.281 200.947 179.419 201.192H189.752C190.029 200.709 190.29 200.217 190.543 199.718C190.957 198.037 190.842 196.433 190.957 194.79C191.195 195.673 191.426 196.556 191.61 197.454C192.055 196.41 192.462 195.335 192.792 194.276C192.048 194.183 191.303 194.053 190.574 193.884C190.013 193.753 189.468 193.608 188.938 193.439H180.233Z" fill="#08010E"/>
</g>
<defs>
<linearGradient id="paint0_linear_490_13397" x1="22.7944" y1="22.8437" x2="393.267" y2="207.739" gradientUnits="userSpaceOnUse">
<stop stop-color="#5E27ED"/>
<stop offset="1" stop-color="#8E55C8" stop-opacity="0.27"/>
</linearGradient>
<linearGradient id="paint1_linear_490_13397" x1="22.7944" y1="22.8437" x2="393.267" y2="207.739" gradientUnits="userSpaceOnUse">
<stop stop-color="#5E27ED"/>
<stop offset="1" stop-color="#8E55C8" stop-opacity="0.27"/>
</linearGradient>
<clipPath id="clip0_490_13397">
<rect width="373" height="270" fill="white"/>
</clipPath>
</defs>
</svg>
