<svg width="373" height="270" viewBox="0 0 373 270" fill="none" xmlns="http://www.w3.org/2000/svg">
<path d="M5 5H368V265H70C34.1015 265 5 235.898 5 200V5Z" fill="url(#paint0_linear_464_11976)" stroke="url(#paint1_linear_464_11976)" stroke-width="10" stroke-linejoin="round"/>
<path d="M80.5295 89.8571C81.1187 90.4456 81.5861 91.1445 81.905 91.9138C82.2239 92.6831 82.388 93.5077 82.388 94.3405C82.388 95.1733 82.2239 95.9979 81.905 96.7672C81.5861 97.5365 81.1187 98.2354 80.5295 98.8239C71.0204 108.335 65.6784 121.233 65.6784 134.682C65.6784 148.131 71.0204 161.029 80.5295 170.54C81.1347 171.124 81.6175 171.823 81.9496 172.597C82.2817 173.37 82.4565 174.201 82.4638 175.043C82.4712 175.884 82.3108 176.719 81.9922 177.497C81.6736 178.276 81.203 178.984 80.608 179.579C80.013 180.174 79.3055 180.644 78.5267 180.963C77.7479 181.282 76.9134 181.442 76.072 181.435C75.2306 181.427 74.3991 181.252 73.6259 180.92C72.8528 180.588 72.1535 180.105 71.569 179.5C46.8103 154.748 46.8103 114.609 71.569 89.8571C72.7573 88.6691 74.3689 88.0017 76.0492 88.0017C77.7296 88.0017 79.3411 88.6691 80.5295 89.8571ZM161.212 89.8571C185.964 114.616 185.964 154.748 161.212 179.5C160.024 180.689 158.412 181.358 156.731 181.358C155.05 181.359 153.437 180.692 152.248 179.503C151.059 178.315 150.391 176.703 150.39 175.022C150.39 173.341 151.057 171.729 152.245 170.54C161.754 161.029 167.096 148.131 167.096 134.682C167.096 121.233 161.754 108.335 152.245 98.8239C151.056 97.6349 150.388 96.0221 150.388 94.3405C150.388 92.6589 151.056 91.0462 152.245 89.8571C153.434 88.668 155.047 88 156.729 88C158.41 88 160.023 88.668 161.212 89.8571ZM99.3313 108.07C100.519 109.258 101.187 110.87 101.187 112.55C101.187 114.23 100.519 115.842 99.3313 117.03C97.0244 119.337 95.1944 122.075 93.9458 125.089C92.6973 128.103 92.0547 131.334 92.0547 134.596C92.0547 137.859 92.6973 141.089 93.9458 144.103C95.1944 147.117 97.0244 149.856 99.3313 152.162C99.9197 152.751 100.386 153.45 100.705 154.219C101.023 154.988 101.186 155.813 101.186 156.645C101.186 157.477 101.022 158.301 100.703 159.07C100.384 159.839 99.9169 160.538 99.3282 161.126C98.7394 161.714 98.0405 162.181 97.2714 162.499C96.5023 162.818 95.678 162.981 94.8457 162.981C94.0133 162.981 93.1892 162.816 92.4203 162.498C91.6514 162.179 90.9528 161.712 90.3645 161.123C83.3293 154.088 79.3771 144.546 79.3771 134.596C79.3771 124.647 83.3293 115.105 90.3645 108.07C90.953 107.48 91.6519 107.013 92.4212 106.694C93.1905 106.375 94.0151 106.211 94.8479 106.211C95.6807 106.211 96.5053 106.375 97.2746 106.694C98.0439 107.013 98.7428 107.48 99.3313 108.07ZM143.424 108.07C150.459 115.105 154.412 124.647 154.412 134.596C154.412 144.546 150.459 154.088 143.424 161.123C142.229 162.277 140.628 162.916 138.967 162.902C137.305 162.887 135.716 162.221 134.541 161.046C133.366 159.871 132.699 158.281 132.685 156.62C132.671 154.958 133.309 153.358 134.464 152.162C136.771 149.856 138.601 147.117 139.849 144.103C141.098 141.089 141.74 137.859 141.74 134.596C141.74 131.334 141.098 128.103 139.849 125.089C138.601 122.075 136.771 119.337 134.464 117.03C133.309 115.835 132.671 114.234 132.685 112.573C132.699 110.911 133.366 109.322 134.541 108.147C135.716 106.972 137.305 106.305 138.967 106.291C140.628 106.277 142.229 106.915 143.424 108.07ZM116.897 125.623C119.418 125.623 121.836 126.625 123.619 128.407C125.401 130.19 126.403 132.608 126.403 135.129C126.403 137.65 125.401 140.067 123.619 141.85C121.836 143.633 119.418 144.634 116.897 144.634C114.376 144.634 111.959 143.633 110.176 141.85C108.393 140.067 107.392 137.65 107.392 135.129C107.392 132.608 108.393 130.19 110.176 128.407C111.959 126.625 114.376 125.623 116.897 125.623Z" fill="#07010E"/>
<g clip-path="url(#clip0_464_11976)">
<path d="M210.554 104C210.098 103.999 209.647 104.088 209.225 104.262C208.804 104.437 208.421 104.693 208.099 105.015C207.777 105.338 207.522 105.721 207.349 106.143C207.175 106.565 207.087 107.017 207.089 107.473V163.363C207.088 163.818 207.177 164.269 207.351 164.69C207.525 165.111 207.78 165.493 208.102 165.815C208.424 166.137 208.806 166.392 209.227 166.566C209.648 166.74 210.099 166.829 210.554 166.828H316.004V166.843C316.459 166.843 316.91 166.755 317.331 166.581C317.752 166.407 318.134 166.152 318.456 165.83C318.778 165.508 319.034 165.126 319.207 164.705C319.381 164.284 319.47 163.833 319.469 163.378V107.473C319.47 107.017 319.381 106.566 319.207 106.145C319.034 105.725 318.778 105.342 318.456 105.02C318.134 104.698 317.752 104.443 317.331 104.269C316.91 104.095 316.459 104.007 316.004 104.008L210.554 104ZM170.909 104.06C163.02 104.091 155.431 107.087 149.649 112.454C143.866 117.821 140.314 125.166 139.696 133.031C139.079 140.896 141.441 148.706 146.315 154.91C151.188 161.114 158.217 165.258 166.004 166.52V144.56H157.972V135.478H165.997V128.548C165.997 120.673 170.654 116.3 177.839 116.3C181.267 116.3 184.837 116.96 184.837 116.96V124.64H180.907C177.007 124.64 175.754 127.093 175.754 129.56V135.463H184.484L183.082 144.538H175.739V166.505C183.554 165.286 190.622 161.164 195.53 154.962C200.439 148.76 202.826 140.934 202.216 133.048C201.607 125.162 198.044 117.796 192.24 112.422C186.436 107.049 178.819 104.062 170.909 104.06ZM224.662 122.113H229.424V144.56H241.634V148.715H224.662V122.113ZM246.749 122.113H251.512V148.715H246.749V122.113ZM256.079 122.113H261.344L268.042 143.173H268.364L275.009 122.113H280.072L270.869 148.715H265.372L256.079 122.113ZM284.654 122.135H301.874V126.238H289.424V133.288H301.199V137.165H289.424V144.613H301.874V148.738H284.654V122.135Z" fill="#07010E"/>
</g>
<defs>
<linearGradient id="paint0_linear_464_11976" x1="22.7944" y1="22.8437" x2="393.267" y2="207.739" gradientUnits="userSpaceOnUse">
<stop stop-color="#5E27ED" stop-opacity="0.69"/>
<stop offset="1" stop-color="#8E55C8" stop-opacity="0.27"/>
</linearGradient>
<linearGradient id="paint1_linear_464_11976" x1="22.7944" y1="22.8437" x2="393.267" y2="207.739" gradientUnits="userSpaceOnUse">
<stop stop-color="#5E27ED"/>
<stop offset="1" stop-color="#8E55C8" stop-opacity="0.27"/>
</linearGradient>
<clipPath id="clip0_464_11976">
<rect width="111.6" height="63" fill="white" transform="translate(208 104)"/>
</clipPath>
</defs>
</svg>
