<svg width="373" height="270" viewBox="0 0 373 270" fill="none" xmlns="http://www.w3.org/2000/svg">
<path d="M3.5 3.5H369.5V266.5H30.8915C15.7636 266.5 3.5 254.236 3.5 239.109V3.5Z" fill="url(#paint0_linear_490_13361)" stroke="url(#paint1_linear_490_13361)" stroke-width="7" stroke-linejoin="round"/>
<path d="M159.273 87C126.002 87 99 114.002 99 147.273C99 180.544 126.002 207.546 159.273 207.546C192.544 207.546 219.546 180.544 219.546 147.273C219.546 114.002 192.544 87 159.273 87ZM164.577 181.99V189.464H154.029V181.689C149.569 180.604 139.624 177.048 135.827 163.848L145.772 159.81C146.133 161.136 149.268 172.407 160.237 172.407C165.843 172.407 172.171 169.514 172.171 162.703C172.171 156.917 167.952 153.903 158.429 150.467C151.799 148.117 138.238 144.259 138.238 130.517C138.238 129.914 138.298 116.052 154.029 112.676V105.082H164.577V112.556C175.667 114.484 179.705 123.345 180.609 125.997L171.086 130.035C170.423 127.925 167.53 121.958 159.635 121.958C155.415 121.958 148.725 124.188 148.725 130.336C148.725 136.062 153.909 138.232 164.637 141.788C179.103 146.791 182.779 154.144 182.779 162.582C182.779 178.434 167.711 181.448 164.577 181.99Z" fill="#08010E"/>
<path d="M239.646 62C221.154 62 206.146 77.008 206.146 95.5C206.146 113.992 221.154 129 239.646 129C258.138 129 273.146 113.992 273.146 95.5C273.146 77.008 258.138 62 239.646 62ZM242.594 114.796V118.95H236.732V114.628C234.253 114.025 228.725 112.049 226.615 104.712L232.142 102.468C232.343 103.205 234.085 109.469 240.182 109.469C243.298 109.469 246.815 107.861 246.815 104.076C246.815 100.86 244.47 99.185 239.177 97.2755C235.492 95.969 227.955 93.825 227.955 86.187C227.955 85.852 227.988 78.147 236.732 76.271V72.05H242.594V76.204C248.758 77.276 251.003 82.2005 251.505 83.6745L246.212 85.919C245.844 84.7465 244.236 81.43 239.847 81.43C237.502 81.43 233.784 82.6695 233.784 86.0865C233.784 89.269 236.665 90.475 242.628 92.4515C250.668 95.232 252.711 99.319 252.711 104.009C252.711 112.819 244.336 114.494 242.594 114.796Z" fill="#08010E"/>
<defs>
<linearGradient id="paint0_linear_490_13361" x1="22.7944" y1="22.8437" x2="393.267" y2="207.739" gradientUnits="userSpaceOnUse">
<stop stop-color="#5E27ED"/>
<stop offset="1" stop-color="#8E55C8" stop-opacity="0.27"/>
</linearGradient>
<linearGradient id="paint1_linear_490_13361" x1="22.7944" y1="22.8437" x2="393.267" y2="207.739" gradientUnits="userSpaceOnUse">
<stop stop-color="#5E27ED"/>
<stop offset="1" stop-color="#8E55C8" stop-opacity="0.27"/>
</linearGradient>
</defs>
</svg>
