<svg width="373" height="270" viewBox="0 0 373 270" fill="none" xmlns="http://www.w3.org/2000/svg">
<path d="M3.5 3.5H369.5V266.5H41.9477C20.7136 266.5 3.5 249.286 3.5 228.052V3.5Z" fill="url(#paint0_linear_490_13292)" stroke="url(#paint1_linear_490_13292)" stroke-width="7" stroke-linejoin="round"/>
<path d="M99.7297 193.776V151.662C94.9621 149.278 91.7838 143.716 91.7838 138.154V106.37C91.7838 100.808 94.9621 96.0407 99.7297 92.8623V90.4785C99.7297 81.738 92.5784 74.5867 83.8378 74.5867C75.0973 74.5867 67.9459 81.738 67.9459 90.4785C67.9459 99.2191 75.0973 106.37 83.8378 106.37H67.9459C63.973 106.37 60 110.343 60 114.316V146.1C60 150.073 63.973 154.046 67.9459 154.046V193.776H99.7297ZM179.189 106.37H163.297C172.038 106.37 179.189 99.2191 179.189 90.4785C179.189 81.738 172.038 74.5867 163.297 74.5867C154.557 74.5867 147.405 81.738 147.405 90.4785V92.8623C152.173 96.0407 155.351 100.808 155.351 106.37V138.154C155.351 143.716 152.173 149.278 147.405 151.662V193.776H179.189V154.046C183.162 154.046 187.135 150.073 187.135 146.1V114.316C187.135 110.343 183.162 106.37 179.189 106.37ZM139.459 82.5326C139.507 84.6489 139.132 86.7535 138.355 88.7227C137.578 90.6919 136.416 92.4861 134.937 94C133.457 95.5138 131.69 96.7168 129.739 97.5383C127.788 98.3598 125.692 98.7832 123.576 98.7838C121.459 98.7843 119.363 98.3619 117.412 97.5414C115.46 96.7209 113.693 95.5188 112.212 94.0056C110.732 92.4925 109.569 90.6989 108.791 88.7301C108.013 86.7612 107.637 84.6569 107.684 82.5405C107.775 78.3883 109.489 74.437 112.458 71.5325C115.427 68.628 119.414 67.001 123.568 67C127.721 66.999 131.709 68.6239 134.68 71.5269C137.65 74.43 139.366 78.3804 139.459 82.5326Z" fill="black"/>
<path d="M99.7297 193.776V151.662C94.9621 149.278 91.7838 143.716 91.7838 138.154V106.37C91.7838 100.808 94.9621 96.0407 99.7297 92.8623V90.4785C99.7297 81.738 92.5784 74.5867 83.8378 74.5867C75.0973 74.5867 67.9459 81.738 67.9459 90.4785C67.9459 99.2191 75.0973 106.37 83.8378 106.37H67.9459C63.973 106.37 60 110.343 60 114.316V146.1C60 150.073 63.973 154.046 67.9459 154.046V193.776H99.7297ZM179.189 106.37H163.297C172.038 106.37 179.189 99.2191 179.189 90.4785C179.189 81.738 172.038 74.5867 163.297 74.5867C154.557 74.5867 147.405 81.738 147.405 90.4785V92.8623C152.173 96.0407 155.351 100.808 155.351 106.37V138.154C155.351 143.716 152.173 149.278 147.405 151.662V193.776H179.189V154.046C183.162 154.046 187.135 150.073 187.135 146.1V114.316C187.135 110.343 183.162 106.37 179.189 106.37ZM139.459 82.5326C139.507 84.6489 139.132 86.7535 138.355 88.7227C137.578 90.6919 136.416 92.4861 134.937 94C133.457 95.5138 131.69 96.7168 129.739 97.5383C127.788 98.3598 125.692 98.7832 123.576 98.7838C121.459 98.7843 119.363 98.3619 117.412 97.5414C115.46 96.7209 113.693 95.5188 112.212 94.0056C110.732 92.4925 109.569 90.6989 108.791 88.7301C108.013 86.7612 107.637 84.6569 107.684 82.5405C107.775 78.3883 109.489 74.437 112.458 71.5325C115.427 68.628 119.414 67.001 123.568 67C127.721 66.999 131.709 68.6239 134.68 71.5269C137.65 74.43 139.366 78.3804 139.459 82.5326Z" fill="#08010E"/>
<path d="M139.459 98.4246H107.675C103.702 98.4246 99.7295 102.398 99.7295 106.371V138.154C99.7295 142.127 103.702 146.1 107.675 146.1V193.776H139.459V146.1C143.432 146.1 147.405 142.127 147.405 138.154V106.371C147.405 102.398 143.432 98.4246 139.459 98.4246Z" fill="black"/>
<path d="M139.459 98.4246H107.675C103.702 98.4246 99.7295 102.398 99.7295 106.371V138.154C99.7295 142.127 103.702 146.1 107.675 146.1V193.776H139.459V146.1C143.432 146.1 147.405 142.127 147.405 138.154V106.371C147.405 102.398 143.432 98.4246 139.459 98.4246Z" fill="#08010E"/>
<path d="M226.665 83.4038C222.365 83.4038 218.508 84.2899 215.904 85.5929C213.324 86.8959 212.334 88.3553 212.334 89.3978C212.334 90.4141 213.324 91.9022 215.904 93.1766C218.508 94.4796 222.365 95.3917 226.665 95.3917C230.965 95.3917 234.822 94.4796 237.402 93.1766C240.008 91.9022 240.998 90.4141 240.998 89.3978C240.998 88.3553 240.008 86.8959 237.402 85.5929C234.822 84.2899 230.965 83.4038 226.665 83.4038ZM268.362 91.7432C264.062 91.7432 260.205 92.6293 257.625 93.9323C255.019 95.2354 254.029 96.6948 254.029 97.7372C254.029 98.7536 255.019 100.242 257.625 101.516C260.205 102.819 264.062 103.729 268.362 103.729C269.561 103.729 270.707 103.65 271.802 103.52C272.923 102.089 274.512 100.82 276.363 99.9758C278.5 99.0116 280.975 98.2297 282.695 97.7372C282.695 96.6948 281.705 95.2354 279.099 93.9323C276.519 92.6293 272.662 91.7432 268.362 91.7432ZM212.334 96.5358C212.23 100.356 216.368 101.915 218.977 102.686C223.642 104.041 229.688 104.041 234.353 102.686C237.688 101.732 240.972 99.8924 240.998 96.5358C236.802 99.306 230.678 100.051 226.665 100.08C221.583 99.6553 216.246 99.1288 212.334 96.5358ZM289.211 101.985C284.91 101.985 281.053 102.871 278.473 104.198C275.867 105.475 274.877 106.96 274.877 107.976C274.877 109.019 275.867 110.478 278.473 111.781C281.053 113.084 284.91 113.97 289.211 113.97C293.511 113.97 297.368 113.084 299.948 111.781C302.554 110.478 303.544 109.019 303.544 107.976C303.544 106.96 302.554 105.475 299.948 104.198C297.368 102.871 293.511 101.985 289.211 101.985ZM254.029 104.875V105.501C254.784 105.761 255.514 106.074 256.192 106.413C258.537 107.586 260.57 109.227 261.612 111.286C264.27 111.938 267.267 112.172 270.186 111.99V108.367C269.587 108.393 268.987 108.419 268.362 108.419C263.436 108.419 258.954 107.455 255.514 105.735C254.993 105.475 254.498 105.188 254.029 104.875ZM212.334 104.901C212.245 108.706 216.379 110.27 218.977 111.052C220.749 111.547 222.73 111.886 224.762 111.99C225.284 110.635 226.222 109.436 227.421 108.419C224.085 108.498 220.723 108.081 217.674 107.221C215.644 106.621 213.846 105.866 212.334 104.901ZM243.344 108.419C239.044 108.419 235.187 109.332 232.607 110.609C230.001 111.912 229.01 113.371 229.01 114.413C229.01 115.456 230.001 116.915 232.607 118.218C235.187 119.521 239.044 120.407 243.344 120.407C247.644 120.407 251.501 119.521 254.081 118.218C256.687 116.915 257.677 115.456 257.677 114.413C257.677 113.371 256.687 111.912 254.081 110.609C251.501 109.332 247.644 108.419 243.344 108.419ZM212.334 113.241C212.245 117.046 216.379 118.609 218.977 119.391C220.619 119.86 222.443 120.173 224.319 120.303V116.707C222.026 116.55 219.785 116.159 217.674 115.56C215.644 114.961 213.846 114.205 212.334 113.241ZM274.877 115.143C274.825 118.974 278.89 120.512 281.523 121.293C286.187 122.649 292.234 122.649 296.898 121.293C300.208 120.329 303.518 118.505 303.544 115.143C303.075 115.43 302.58 115.716 302.058 115.977C298.618 117.697 294.136 118.661 289.211 118.661C284.285 118.661 279.803 117.697 276.363 115.977C275.841 115.716 275.346 115.43 274.877 115.143ZM262.368 116.238V119.808C264.818 120.303 267.554 120.486 270.186 120.329V116.733C267.554 116.863 264.896 116.707 262.368 116.238ZM229.01 121.554C228.88 123.118 229.584 124.395 230.444 125.15C231.538 126.089 233.31 127.053 235.656 127.73C240.321 129.06 246.367 129.06 251.032 127.73C253.377 127.053 255.149 126.089 256.244 125.15C257.521 124.082 257.677 123.04 257.677 121.554C257.208 121.867 256.713 122.153 256.192 122.414C252.752 124.134 248.269 125.098 243.344 125.098C238.418 125.098 233.936 124.134 230.496 122.414C229.975 122.153 229.479 121.867 229.01 121.554ZM212.334 121.58C212.245 125.385 216.379 126.949 218.977 127.73C220.619 128.2 222.443 128.512 224.319 128.643V125.046C222.026 124.89 219.785 124.499 217.674 123.9C215.644 123.3 213.846 122.544 212.334 121.58ZM274.877 123.483C274.825 127.313 278.89 128.851 281.523 129.633C286.187 130.988 292.234 130.988 296.898 129.633C300.208 128.669 303.518 126.844 303.544 123.483C302.032 124.447 300.234 125.203 298.201 125.802C292.546 127.444 285.875 127.444 280.22 125.802C278.187 125.203 276.389 124.447 274.877 123.483ZM262.368 124.577V128.147C264.818 128.643 267.554 128.825 270.186 128.669V125.072C267.554 125.203 264.896 125.046 262.368 124.577ZM212.334 129.92C212.245 133.724 216.379 135.288 218.977 136.07C220.619 136.539 222.443 136.852 224.319 136.982V133.386C222.026 133.229 219.785 132.838 217.674 132.239C215.644 131.64 213.846 130.884 212.334 129.92ZM229.01 129.92C228.88 131.483 229.584 132.734 230.444 133.49C231.538 134.428 233.31 135.392 235.656 136.07C240.321 137.399 246.367 137.399 251.032 136.07C253.377 135.392 255.149 134.428 256.244 133.49C257.521 132.421 257.677 131.405 257.677 129.92C256.166 130.884 254.367 131.64 252.335 132.239C246.679 133.855 240.008 133.855 234.353 132.239C232.32 131.64 230.522 130.884 229.01 129.92ZM274.877 131.822C274.825 135.653 278.89 137.19 281.523 137.972C286.187 139.327 292.234 139.327 296.898 137.972C300.208 137.008 303.518 135.184 303.544 131.822C302.032 132.786 300.234 133.542 298.201 134.141C292.546 135.783 285.875 135.783 280.22 134.141C278.187 133.542 276.389 132.786 274.877 131.822ZM262.368 132.917V136.487C264.818 136.982 267.554 137.164 270.186 137.008V133.412C267.554 133.542 264.896 133.386 262.368 132.917ZM229.01 138.259V138.858C229.766 139.119 230.496 139.432 231.173 139.77C233.519 140.943 235.552 142.585 236.594 144.644C241.102 145.738 246.679 145.66 251.032 144.409C253.377 143.732 255.149 142.767 256.244 141.829C257.521 140.761 257.677 139.744 257.677 138.259C256.166 139.223 254.367 139.979 252.335 140.578C246.679 142.194 240.008 142.194 234.353 140.578C232.32 139.979 230.522 139.223 229.01 138.259ZM274.877 140.161C274.825 143.992 278.89 145.53 281.523 146.312C286.187 147.667 292.234 147.667 296.898 146.312C300.208 145.347 303.518 143.523 303.544 140.161C302.032 141.126 300.234 141.881 298.201 142.481C292.546 144.123 285.875 144.123 280.22 142.481C278.187 141.881 276.389 141.126 274.877 140.161ZM262.368 141.256V144.826C264.818 145.321 267.554 145.504 270.186 145.347V141.751C267.554 141.881 264.896 141.725 262.368 141.256ZM218.325 141.777C214.028 141.777 210.171 142.689 207.565 143.966C204.985 145.269 203.995 146.729 203.995 147.771C203.995 148.814 204.985 150.273 207.565 151.576C210.171 152.879 214.028 153.765 218.325 153.765C222.625 153.765 226.482 152.879 229.062 151.576C231.668 150.273 232.659 148.814 232.659 147.771C232.659 146.729 231.668 145.269 229.062 143.966C226.482 142.689 222.625 141.777 218.325 141.777ZM257.677 146.598C256.166 147.563 254.367 148.318 252.335 148.918C247.644 150.247 242.275 150.481 237.35 149.595V153.166C241.728 154.078 246.914 153.921 251.032 152.749C254.315 151.784 257.651 149.934 257.677 146.598ZM274.877 148.501C274.799 152.201 278.708 153.791 281.288 154.573C282.747 153.4 284.077 152.514 285.64 151.863C283.764 151.654 281.94 151.315 280.22 150.82C278.187 150.221 276.389 149.465 274.877 148.501ZM303.544 148.501C302.814 148.97 302.006 149.387 301.12 149.778C301.928 149.856 302.736 149.96 303.492 150.091C303.596 149.569 303.544 149.048 303.544 148.501ZM262.368 149.595V153.14C265.209 153.687 267.58 153.817 270.186 153.713V150.091C267.554 150.221 264.896 150.064 262.368 149.595ZM297.55 154.286C293.25 154.286 289.393 155.198 286.813 156.475C284.207 157.778 283.217 159.238 283.217 160.28C283.217 161.323 284.207 162.782 286.813 164.085C289.393 165.388 293.25 166.274 297.55 166.274C301.85 166.274 305.707 165.388 308.287 164.085C310.893 162.782 311.883 161.323 311.883 160.28C311.883 159.238 310.893 157.778 308.287 156.475C305.707 155.198 301.85 154.286 297.55 154.286ZM203.995 154.912C203.919 158.769 207.984 160.306 210.64 161.088C215.305 162.417 221.348 162.417 226.013 161.088C229.323 160.124 232.633 158.274 232.659 154.912C232.19 155.224 231.695 155.511 231.173 155.772C227.733 157.492 223.251 158.456 218.325 158.456C213.215 158.039 207.932 157.518 203.995 154.912ZM257.677 154.938C256.166 155.902 254.367 156.658 252.335 157.257C247.644 158.586 242.275 158.821 237.35 157.935V161.505C241.728 162.417 246.914 162.261 251.032 161.088C254.315 160.124 257.651 158.274 257.677 154.938ZM274.877 156.84C274.773 159.524 276.962 161.036 278.473 161.818C278.473 161.818 278.5 161.844 278.526 161.844V158.612C277.17 158.117 275.946 157.518 274.877 156.84ZM203.995 163.277C203.906 167.082 208.039 168.646 210.64 169.428C215.305 170.757 221.348 170.757 226.013 169.428C229.297 168.463 232.633 166.613 232.659 163.277C231.147 164.241 229.349 164.997 227.316 165.597C221.661 167.212 214.992 167.212 209.337 165.597C207.304 164.997 205.506 164.241 203.995 163.277ZM237.35 166.274V169.818C238.627 170.105 240.008 170.288 241.441 170.392C241.962 169.011 242.901 167.812 244.099 166.795C241.832 166.848 239.539 166.665 237.35 166.274ZM260.023 166.795C255.722 166.795 251.866 167.708 249.285 168.985C246.679 170.288 245.689 171.747 245.689 172.789C245.689 173.832 246.679 175.291 249.285 176.594C251.866 177.897 255.722 178.783 260.023 178.783C264.323 178.783 268.18 177.897 270.76 176.594C273.366 175.291 274.356 173.832 274.356 172.789C274.356 171.747 273.366 170.288 270.76 168.985C268.18 167.708 264.323 166.795 260.023 166.795ZM283.217 167.421C283.19 171.278 287.178 172.815 289.862 173.597C294.527 174.926 300.573 174.926 305.238 173.597C308.548 172.633 311.857 170.783 311.883 167.421C307.766 169.923 301.537 170.939 297.55 170.965C292.442 170.548 287.152 170.027 283.217 167.421ZM203.995 171.617C203.906 175.422 208.039 176.985 210.64 177.767C215.305 179.096 221.348 179.096 226.013 177.767C229.297 176.803 232.633 174.952 232.659 171.617C231.147 172.581 229.349 173.337 227.316 173.936C221.661 175.552 214.992 175.552 209.337 173.936C207.304 173.337 205.506 172.581 203.995 171.617ZM283.217 175.786C283.164 179.617 287.23 181.155 289.862 181.937C294.527 183.266 300.573 183.266 305.238 181.937C308.521 180.972 311.857 179.122 311.883 175.786C310.372 176.751 308.574 177.506 306.541 178.106C300.886 179.722 294.214 179.722 288.559 178.106C286.526 177.506 284.728 176.751 283.217 175.786ZM245.689 179.93C245.559 181.494 246.262 182.771 247.122 183.526C248.217 184.465 249.989 185.429 252.335 186.106C256.999 187.436 263.046 187.436 267.71 186.106C270.056 185.429 271.828 184.465 272.923 183.526C274.017 182.588 274.356 181.78 274.356 181.129V179.93C273.887 180.243 273.392 180.529 272.87 180.79C269.43 182.51 264.948 183.474 260.023 183.474C255.097 183.474 250.615 182.51 247.175 180.79C246.653 180.529 246.158 180.243 245.689 179.93ZM203.995 179.956C203.906 183.761 208.039 185.325 210.64 186.106C215.305 187.436 221.348 187.436 226.013 186.106C229.297 185.142 232.633 183.292 232.659 179.956C231.147 180.92 229.349 181.676 227.316 182.275C221.661 183.891 214.992 183.891 209.337 182.275C207.304 181.676 205.506 180.92 203.995 179.956ZM283.217 184.126C283.164 187.957 287.23 189.494 289.862 190.276C294.527 191.605 300.573 191.605 305.238 190.276C308.521 189.312 311.857 187.462 311.883 184.126C310.372 185.09 308.574 185.846 306.541 186.445C300.886 188.061 294.214 188.061 288.559 186.445C286.526 185.846 284.728 185.09 283.217 184.126ZM203.995 188.296C203.906 192.1 208.039 193.664 210.64 194.446C215.305 195.775 221.348 195.775 226.013 194.446C229.297 193.482 232.633 191.631 232.659 188.296C231.147 189.26 229.349 190.016 227.316 190.615C221.661 192.231 214.992 192.231 209.337 190.615C207.304 190.016 205.506 189.26 203.995 188.296ZM245.689 188.296C245.585 190.98 247.774 192.491 249.285 193.273C251.866 194.576 255.722 195.462 260.023 195.462C264.323 195.462 268.18 194.576 270.76 193.273C273.34 191.657 274.356 191.032 274.356 188.296C272.844 189.26 271.046 190.016 269.013 190.615C263.358 192.231 256.687 192.231 251.032 190.615C248.999 190.016 247.201 189.26 245.689 188.296ZM283.217 192.465C283.112 195.149 285.301 196.661 286.813 197.443C289.393 198.746 293.25 199.632 297.55 199.632C301.85 199.632 305.707 198.746 308.287 197.443C310.867 195.827 311.883 195.202 311.883 192.465C310.372 193.429 308.574 194.185 306.541 194.785C300.886 196.4 294.214 196.4 288.559 194.785C286.526 194.185 284.728 193.429 283.217 192.465ZM203.995 196.635C203.88 199.293 206.048 200.831 207.565 201.613C210.171 202.916 214.028 203.802 218.325 203.802C222.625 203.802 226.482 202.916 229.062 201.613C231.642 199.997 232.659 199.371 232.659 196.635C231.147 197.599 229.349 198.355 227.316 198.954C221.661 200.57 214.992 200.57 209.337 198.954C207.304 198.355 205.506 197.599 203.995 196.635Z" fill="black"/>
<path d="M226.665 83.4038C222.365 83.4038 218.508 84.2899 215.904 85.5929C213.324 86.8959 212.334 88.3553 212.334 89.3978C212.334 90.4141 213.324 91.9022 215.904 93.1766C218.508 94.4796 222.365 95.3917 226.665 95.3917C230.965 95.3917 234.822 94.4796 237.402 93.1766C240.008 91.9022 240.998 90.4141 240.998 89.3978C240.998 88.3553 240.008 86.8959 237.402 85.5929C234.822 84.2899 230.965 83.4038 226.665 83.4038ZM268.362 91.7432C264.062 91.7432 260.205 92.6293 257.625 93.9323C255.019 95.2354 254.029 96.6948 254.029 97.7372C254.029 98.7536 255.019 100.242 257.625 101.516C260.205 102.819 264.062 103.729 268.362 103.729C269.561 103.729 270.707 103.65 271.802 103.52C272.923 102.089 274.512 100.82 276.363 99.9758C278.5 99.0116 280.975 98.2297 282.695 97.7372C282.695 96.6948 281.705 95.2354 279.099 93.9323C276.519 92.6293 272.662 91.7432 268.362 91.7432ZM212.334 96.5358C212.23 100.356 216.368 101.915 218.977 102.686C223.642 104.041 229.688 104.041 234.353 102.686C237.688 101.732 240.972 99.8924 240.998 96.5358C236.802 99.306 230.678 100.051 226.665 100.08C221.583 99.6553 216.246 99.1288 212.334 96.5358ZM289.211 101.985C284.91 101.985 281.053 102.871 278.473 104.198C275.867 105.475 274.877 106.96 274.877 107.976C274.877 109.019 275.867 110.478 278.473 111.781C281.053 113.084 284.91 113.97 289.211 113.97C293.511 113.97 297.368 113.084 299.948 111.781C302.554 110.478 303.544 109.019 303.544 107.976C303.544 106.96 302.554 105.475 299.948 104.198C297.368 102.871 293.511 101.985 289.211 101.985ZM254.029 104.875V105.501C254.784 105.761 255.514 106.074 256.192 106.413C258.537 107.586 260.57 109.227 261.612 111.286C264.27 111.938 267.267 112.172 270.186 111.99V108.367C269.587 108.393 268.987 108.419 268.362 108.419C263.436 108.419 258.954 107.455 255.514 105.735C254.993 105.475 254.498 105.188 254.029 104.875ZM212.334 104.901C212.245 108.706 216.379 110.27 218.977 111.052C220.749 111.547 222.73 111.886 224.762 111.99C225.284 110.635 226.222 109.436 227.421 108.419C224.085 108.498 220.723 108.081 217.674 107.221C215.644 106.621 213.846 105.866 212.334 104.901ZM243.344 108.419C239.044 108.419 235.187 109.332 232.607 110.609C230.001 111.912 229.01 113.371 229.01 114.413C229.01 115.456 230.001 116.915 232.607 118.218C235.187 119.521 239.044 120.407 243.344 120.407C247.644 120.407 251.501 119.521 254.081 118.218C256.687 116.915 257.677 115.456 257.677 114.413C257.677 113.371 256.687 111.912 254.081 110.609C251.501 109.332 247.644 108.419 243.344 108.419ZM212.334 113.241C212.245 117.046 216.379 118.609 218.977 119.391C220.619 119.86 222.443 120.173 224.319 120.303V116.707C222.026 116.55 219.785 116.159 217.674 115.56C215.644 114.961 213.846 114.205 212.334 113.241ZM274.877 115.143C274.825 118.974 278.89 120.512 281.523 121.293C286.187 122.649 292.234 122.649 296.898 121.293C300.208 120.329 303.518 118.505 303.544 115.143C303.075 115.43 302.58 115.716 302.058 115.977C298.618 117.697 294.136 118.661 289.211 118.661C284.285 118.661 279.803 117.697 276.363 115.977C275.841 115.716 275.346 115.43 274.877 115.143ZM262.368 116.238V119.808C264.818 120.303 267.554 120.486 270.186 120.329V116.733C267.554 116.863 264.896 116.707 262.368 116.238ZM229.01 121.554C228.88 123.118 229.584 124.395 230.444 125.15C231.538 126.089 233.31 127.053 235.656 127.73C240.321 129.06 246.367 129.06 251.032 127.73C253.377 127.053 255.149 126.089 256.244 125.15C257.521 124.082 257.677 123.04 257.677 121.554C257.208 121.867 256.713 122.153 256.192 122.414C252.752 124.134 248.269 125.098 243.344 125.098C238.418 125.098 233.936 124.134 230.496 122.414C229.975 122.153 229.479 121.867 229.01 121.554ZM212.334 121.58C212.245 125.385 216.379 126.949 218.977 127.73C220.619 128.2 222.443 128.512 224.319 128.643V125.046C222.026 124.89 219.785 124.499 217.674 123.9C215.644 123.3 213.846 122.544 212.334 121.58ZM274.877 123.483C274.825 127.313 278.89 128.851 281.523 129.633C286.187 130.988 292.234 130.988 296.898 129.633C300.208 128.669 303.518 126.844 303.544 123.483C302.032 124.447 300.234 125.203 298.201 125.802C292.546 127.444 285.875 127.444 280.22 125.802C278.187 125.203 276.389 124.447 274.877 123.483ZM262.368 124.577V128.147C264.818 128.643 267.554 128.825 270.186 128.669V125.072C267.554 125.203 264.896 125.046 262.368 124.577ZM212.334 129.92C212.245 133.724 216.379 135.288 218.977 136.07C220.619 136.539 222.443 136.852 224.319 136.982V133.386C222.026 133.229 219.785 132.838 217.674 132.239C215.644 131.64 213.846 130.884 212.334 129.92ZM229.01 129.92C228.88 131.483 229.584 132.734 230.444 133.49C231.538 134.428 233.31 135.392 235.656 136.07C240.321 137.399 246.367 137.399 251.032 136.07C253.377 135.392 255.149 134.428 256.244 133.49C257.521 132.421 257.677 131.405 257.677 129.92C256.166 130.884 254.367 131.64 252.335 132.239C246.679 133.855 240.008 133.855 234.353 132.239C232.32 131.64 230.522 130.884 229.01 129.92ZM274.877 131.822C274.825 135.653 278.89 137.19 281.523 137.972C286.187 139.327 292.234 139.327 296.898 137.972C300.208 137.008 303.518 135.184 303.544 131.822C302.032 132.786 300.234 133.542 298.201 134.141C292.546 135.783 285.875 135.783 280.22 134.141C278.187 133.542 276.389 132.786 274.877 131.822ZM262.368 132.917V136.487C264.818 136.982 267.554 137.164 270.186 137.008V133.412C267.554 133.542 264.896 133.386 262.368 132.917ZM229.01 138.259V138.858C229.766 139.119 230.496 139.432 231.173 139.77C233.519 140.943 235.552 142.585 236.594 144.644C241.102 145.738 246.679 145.66 251.032 144.409C253.377 143.732 255.149 142.767 256.244 141.829C257.521 140.761 257.677 139.744 257.677 138.259C256.166 139.223 254.367 139.979 252.335 140.578C246.679 142.194 240.008 142.194 234.353 140.578C232.32 139.979 230.522 139.223 229.01 138.259ZM274.877 140.161C274.825 143.992 278.89 145.53 281.523 146.312C286.187 147.667 292.234 147.667 296.898 146.312C300.208 145.347 303.518 143.523 303.544 140.161C302.032 141.126 300.234 141.881 298.201 142.481C292.546 144.123 285.875 144.123 280.22 142.481C278.187 141.881 276.389 141.126 274.877 140.161ZM262.368 141.256V144.826C264.818 145.321 267.554 145.504 270.186 145.347V141.751C267.554 141.881 264.896 141.725 262.368 141.256ZM218.325 141.777C214.028 141.777 210.171 142.689 207.565 143.966C204.985 145.269 203.995 146.729 203.995 147.771C203.995 148.814 204.985 150.273 207.565 151.576C210.171 152.879 214.028 153.765 218.325 153.765C222.625 153.765 226.482 152.879 229.062 151.576C231.668 150.273 232.659 148.814 232.659 147.771C232.659 146.729 231.668 145.269 229.062 143.966C226.482 142.689 222.625 141.777 218.325 141.777ZM257.677 146.598C256.166 147.563 254.367 148.318 252.335 148.918C247.644 150.247 242.275 150.481 237.35 149.595V153.166C241.728 154.078 246.914 153.921 251.032 152.749C254.315 151.784 257.651 149.934 257.677 146.598ZM274.877 148.501C274.799 152.201 278.708 153.791 281.288 154.573C282.747 153.4 284.077 152.514 285.64 151.863C283.764 151.654 281.94 151.315 280.22 150.82C278.187 150.221 276.389 149.465 274.877 148.501ZM303.544 148.501C302.814 148.97 302.006 149.387 301.12 149.778C301.928 149.856 302.736 149.96 303.492 150.091C303.596 149.569 303.544 149.048 303.544 148.501ZM262.368 149.595V153.14C265.209 153.687 267.58 153.817 270.186 153.713V150.091C267.554 150.221 264.896 150.064 262.368 149.595ZM297.55 154.286C293.25 154.286 289.393 155.198 286.813 156.475C284.207 157.778 283.217 159.238 283.217 160.28C283.217 161.323 284.207 162.782 286.813 164.085C289.393 165.388 293.25 166.274 297.55 166.274C301.85 166.274 305.707 165.388 308.287 164.085C310.893 162.782 311.883 161.323 311.883 160.28C311.883 159.238 310.893 157.778 308.287 156.475C305.707 155.198 301.85 154.286 297.55 154.286ZM203.995 154.912C203.919 158.769 207.984 160.306 210.64 161.088C215.305 162.417 221.348 162.417 226.013 161.088C229.323 160.124 232.633 158.274 232.659 154.912C232.19 155.224 231.695 155.511 231.173 155.772C227.733 157.492 223.251 158.456 218.325 158.456C213.215 158.039 207.932 157.518 203.995 154.912ZM257.677 154.938C256.166 155.902 254.367 156.658 252.335 157.257C247.644 158.586 242.275 158.821 237.35 157.935V161.505C241.728 162.417 246.914 162.261 251.032 161.088C254.315 160.124 257.651 158.274 257.677 154.938ZM274.877 156.84C274.773 159.524 276.962 161.036 278.473 161.818C278.473 161.818 278.5 161.844 278.526 161.844V158.612C277.17 158.117 275.946 157.518 274.877 156.84ZM203.995 163.277C203.906 167.082 208.039 168.646 210.64 169.428C215.305 170.757 221.348 170.757 226.013 169.428C229.297 168.463 232.633 166.613 232.659 163.277C231.147 164.241 229.349 164.997 227.316 165.597C221.661 167.212 214.992 167.212 209.337 165.597C207.304 164.997 205.506 164.241 203.995 163.277ZM237.35 166.274V169.818C238.627 170.105 240.008 170.288 241.441 170.392C241.962 169.011 242.901 167.812 244.099 166.795C241.832 166.848 239.539 166.665 237.35 166.274ZM260.023 166.795C255.722 166.795 251.866 167.708 249.285 168.985C246.679 170.288 245.689 171.747 245.689 172.789C245.689 173.832 246.679 175.291 249.285 176.594C251.866 177.897 255.722 178.783 260.023 178.783C264.323 178.783 268.18 177.897 270.76 176.594C273.366 175.291 274.356 173.832 274.356 172.789C274.356 171.747 273.366 170.288 270.76 168.985C268.18 167.708 264.323 166.795 260.023 166.795ZM283.217 167.421C283.19 171.278 287.178 172.815 289.862 173.597C294.527 174.926 300.573 174.926 305.238 173.597C308.548 172.633 311.857 170.783 311.883 167.421C307.766 169.923 301.537 170.939 297.55 170.965C292.442 170.548 287.152 170.027 283.217 167.421ZM203.995 171.617C203.906 175.422 208.039 176.985 210.64 177.767C215.305 179.096 221.348 179.096 226.013 177.767C229.297 176.803 232.633 174.952 232.659 171.617C231.147 172.581 229.349 173.337 227.316 173.936C221.661 175.552 214.992 175.552 209.337 173.936C207.304 173.337 205.506 172.581 203.995 171.617ZM283.217 175.786C283.164 179.617 287.23 181.155 289.862 181.937C294.527 183.266 300.573 183.266 305.238 181.937C308.521 180.972 311.857 179.122 311.883 175.786C310.372 176.751 308.574 177.506 306.541 178.106C300.886 179.722 294.214 179.722 288.559 178.106C286.526 177.506 284.728 176.751 283.217 175.786ZM245.689 179.93C245.559 181.494 246.262 182.771 247.122 183.526C248.217 184.465 249.989 185.429 252.335 186.106C256.999 187.436 263.046 187.436 267.71 186.106C270.056 185.429 271.828 184.465 272.923 183.526C274.017 182.588 274.356 181.78 274.356 181.129V179.93C273.887 180.243 273.392 180.529 272.87 180.79C269.43 182.51 264.948 183.474 260.023 183.474C255.097 183.474 250.615 182.51 247.175 180.79C246.653 180.529 246.158 180.243 245.689 179.93ZM203.995 179.956C203.906 183.761 208.039 185.325 210.64 186.106C215.305 187.436 221.348 187.436 226.013 186.106C229.297 185.142 232.633 183.292 232.659 179.956C231.147 180.92 229.349 181.676 227.316 182.275C221.661 183.891 214.992 183.891 209.337 182.275C207.304 181.676 205.506 180.92 203.995 179.956ZM283.217 184.126C283.164 187.957 287.23 189.494 289.862 190.276C294.527 191.605 300.573 191.605 305.238 190.276C308.521 189.312 311.857 187.462 311.883 184.126C310.372 185.09 308.574 185.846 306.541 186.445C300.886 188.061 294.214 188.061 288.559 186.445C286.526 185.846 284.728 185.09 283.217 184.126ZM203.995 188.296C203.906 192.1 208.039 193.664 210.64 194.446C215.305 195.775 221.348 195.775 226.013 194.446C229.297 193.482 232.633 191.631 232.659 188.296C231.147 189.26 229.349 190.016 227.316 190.615C221.661 192.231 214.992 192.231 209.337 190.615C207.304 190.016 205.506 189.26 203.995 188.296ZM245.689 188.296C245.585 190.98 247.774 192.491 249.285 193.273C251.866 194.576 255.722 195.462 260.023 195.462C264.323 195.462 268.18 194.576 270.76 193.273C273.34 191.657 274.356 191.032 274.356 188.296C272.844 189.26 271.046 190.016 269.013 190.615C263.358 192.231 256.687 192.231 251.032 190.615C248.999 190.016 247.201 189.26 245.689 188.296ZM283.217 192.465C283.112 195.149 285.301 196.661 286.813 197.443C289.393 198.746 293.25 199.632 297.55 199.632C301.85 199.632 305.707 198.746 308.287 197.443C310.867 195.827 311.883 195.202 311.883 192.465C310.372 193.429 308.574 194.185 306.541 194.785C300.886 196.4 294.214 196.4 288.559 194.785C286.526 194.185 284.728 193.429 283.217 192.465ZM203.995 196.635C203.88 199.293 206.048 200.831 207.565 201.613C210.171 202.916 214.028 203.802 218.325 203.802C222.625 203.802 226.482 202.916 229.062 201.613C231.642 199.997 232.659 199.371 232.659 196.635C231.147 197.599 229.349 198.355 227.316 198.954C221.661 200.57 214.992 200.57 209.337 198.954C207.304 198.355 205.506 197.599 203.995 196.635Z" fill="#08010E"/>
<defs>
<linearGradient id="paint0_linear_490_13292" x1="22.7944" y1="22.8437" x2="393.267" y2="207.739" gradientUnits="userSpaceOnUse">
<stop stop-color="#5E27ED"/>
<stop offset="1" stop-color="#8E55C8" stop-opacity="0.27"/>
</linearGradient>
<linearGradient id="paint1_linear_490_13292" x1="22.7944" y1="22.8437" x2="393.267" y2="207.739" gradientUnits="userSpaceOnUse">
<stop stop-color="#5E27ED"/>
<stop offset="1" stop-color="#8E55C8" stop-opacity="0.27"/>
</linearGradient>
</defs>
</svg>
