<svg width="373" height="270" viewBox="0 0 373 270" fill="none" xmlns="http://www.w3.org/2000/svg">
<path d="M3.54783 3.54783H369.452V266.452H49.6696C24.1972 266.452 3.54783 245.803 3.54783 220.33V3.54783Z" fill="url(#paint0_linear_477_13122)" stroke="url(#paint1_linear_477_13122)" stroke-width="7.09566" stroke-linejoin="round"/>
<path fill-rule="evenodd" clip-rule="evenodd" d="M191.523 44.0223C183.326 51.1041 176.624 59.7502 171.811 69.4543C166.997 79.1584 164.168 89.7254 163.489 100.537L151.682 110.739C147.188 114.622 144.421 120.132 143.989 126.056C143.557 131.98 145.496 137.833 149.38 142.327L161.36 156.191L173.684 145.542L196.657 147.216L207.306 159.54L221.171 147.56C225.665 143.676 228.432 138.167 228.864 132.243C229.296 126.319 227.357 120.466 223.473 115.972L213.271 104.166C214.168 93.3701 212.901 82.5044 209.545 72.2047C206.19 61.905 200.812 52.3784 193.729 44.1831L192.706 43L191.523 44.0223ZM168.408 133.956C166.281 128.231 164.806 122.284 164.013 116.228L159.669 119.982C155.417 123.656 154.949 130.088 158.623 134.34L162.616 138.961L168.408 133.956ZM208.562 142.31L203.557 136.518C206.492 131.162 208.813 125.492 210.477 119.615L214.23 123.959C217.904 128.21 217.436 134.643 213.184 138.317L208.562 142.31ZM191.35 61.6082C183.159 71.5501 177.905 83.5796 176.177 96.3443C174.449 109.109 176.316 122.103 181.568 133.864L190.555 134.525C197.458 123.65 201.189 111.064 201.331 98.1837C201.472 85.3033 198.017 72.6389 191.355 61.6144L191.35 61.6082ZM165.983 176.736C166.071 175.921 165.994 175.096 165.757 174.311C165.52 173.526 165.127 172.796 164.602 172.166C164.076 171.536 163.43 171.019 162.7 170.644C161.97 170.269 161.173 170.046 160.355 169.986C159.536 169.926 158.715 170.032 157.938 170.297C157.162 170.562 156.447 170.98 155.836 171.527C155.225 172.075 154.73 172.739 154.382 173.482C154.033 174.224 153.838 175.029 153.807 175.849L152.551 193.079C152.462 193.894 152.539 194.719 152.776 195.504C153.014 196.289 153.407 197.019 153.932 197.649C154.457 198.279 155.104 198.796 155.834 199.171C156.563 199.546 157.361 199.769 158.179 199.829C158.997 199.889 159.819 199.783 160.595 199.518C161.371 199.253 162.086 198.835 162.698 198.288C163.309 197.74 163.803 197.076 164.152 196.333C164.5 195.591 164.696 194.786 164.727 193.966L165.983 176.736ZM189.793 166.924C189.882 166.109 189.805 165.284 189.568 164.499C189.33 163.714 188.937 162.984 188.412 162.354C187.887 161.724 187.24 161.207 186.51 160.832C185.781 160.457 184.983 160.234 184.165 160.174C183.347 160.114 182.525 160.22 181.749 160.485C180.973 160.75 180.258 161.168 179.647 161.715C179.035 162.263 178.541 162.927 178.192 163.67C177.844 164.412 177.648 165.217 177.617 166.037L173.849 217.726C173.761 218.542 173.838 219.367 174.075 220.152C174.312 220.937 174.705 221.666 175.231 222.296C175.756 222.926 176.403 223.444 177.132 223.819C177.862 224.193 178.66 224.417 179.478 224.477C180.296 224.536 181.117 224.431 181.894 224.166C182.67 223.901 183.385 223.482 183.996 222.935C184.607 222.388 185.102 221.724 185.45 220.981C185.799 220.239 185.995 219.434 186.025 218.614L189.793 166.924ZM206.285 173.554C207.899 173.673 209.4 174.427 210.458 175.652C211.517 176.877 212.046 178.471 211.929 180.086L210.673 197.315C210.502 198.889 209.728 200.334 208.512 201.348C207.297 202.361 205.735 202.863 204.157 202.748C202.578 202.633 201.106 201.91 200.05 200.731C198.995 199.552 198.438 198.009 198.497 196.428L199.753 179.198C199.872 177.584 200.626 176.083 201.851 175.024C203.076 173.966 204.67 173.437 206.285 173.554Z" fill="#08010E"/>
<path fill-rule="evenodd" clip-rule="evenodd" d="M191.523 44.0223C183.326 51.1041 176.624 59.7502 171.811 69.4543C166.997 79.1584 164.168 89.7254 163.489 100.537L151.682 110.739C147.188 114.622 144.421 120.132 143.989 126.056C143.557 131.98 145.496 137.833 149.38 142.327L161.36 156.191L173.684 145.542L196.657 147.216L207.306 159.54L221.171 147.56C225.665 143.676 228.432 138.167 228.864 132.243C229.296 126.319 227.357 120.466 223.473 115.972L213.271 104.166C214.168 93.3701 212.901 82.5044 209.545 72.2047C206.19 61.905 200.812 52.3784 193.729 44.1831L192.706 43L191.523 44.0223ZM168.408 133.956C166.281 128.231 164.806 122.284 164.013 116.228L159.669 119.982C155.417 123.656 154.949 130.088 158.623 134.34L162.616 138.961L168.408 133.956ZM208.562 142.31L203.557 136.518C206.492 131.162 208.813 125.492 210.477 119.615L214.23 123.959C217.904 128.21 217.436 134.643 213.184 138.317L208.562 142.31ZM191.35 61.6082C183.159 71.5501 177.905 83.5796 176.177 96.3443C174.449 109.109 176.316 122.103 181.568 133.864L190.555 134.525C197.458 123.65 201.189 111.064 201.331 98.1837C201.472 85.3033 198.017 72.6389 191.355 61.6144L191.35 61.6082ZM165.983 176.736C166.071 175.921 165.994 175.096 165.757 174.311C165.52 173.526 165.127 172.796 164.602 172.166C164.076 171.536 163.43 171.019 162.7 170.644C161.97 170.269 161.173 170.046 160.355 169.986C159.536 169.926 158.715 170.032 157.938 170.297C157.162 170.562 156.447 170.98 155.836 171.527C155.225 172.075 154.73 172.739 154.382 173.482C154.033 174.224 153.838 175.029 153.807 175.849L152.551 193.079C152.462 193.894 152.539 194.719 152.776 195.504C153.014 196.289 153.407 197.019 153.932 197.649C154.457 198.279 155.104 198.796 155.834 199.171C156.563 199.546 157.361 199.769 158.179 199.829C158.997 199.889 159.819 199.783 160.595 199.518C161.371 199.253 162.086 198.835 162.698 198.288C163.309 197.74 163.803 197.076 164.152 196.333C164.5 195.591 164.696 194.786 164.727 193.966L165.983 176.736ZM189.793 166.924C189.882 166.109 189.805 165.284 189.568 164.499C189.33 163.714 188.937 162.984 188.412 162.354C187.887 161.724 187.24 161.207 186.51 160.832C185.781 160.457 184.983 160.234 184.165 160.174C183.347 160.114 182.525 160.22 181.749 160.485C180.973 160.75 180.258 161.168 179.647 161.715C179.035 162.263 178.541 162.927 178.192 163.67C177.844 164.412 177.648 165.217 177.617 166.037L173.849 217.726C173.761 218.542 173.838 219.367 174.075 220.152C174.312 220.937 174.705 221.666 175.231 222.296C175.756 222.926 176.403 223.444 177.132 223.819C177.862 224.193 178.66 224.417 179.478 224.477C180.296 224.536 181.117 224.431 181.894 224.166C182.67 223.901 183.385 223.482 183.996 222.935C184.607 222.388 185.102 221.724 185.45 220.981C185.799 220.239 185.995 219.434 186.025 218.614L189.793 166.924ZM206.285 173.554C207.899 173.673 209.4 174.427 210.458 175.652C211.517 176.877 212.046 178.471 211.929 180.086L210.673 197.315C210.502 198.889 209.728 200.334 208.512 201.348C207.297 202.361 205.735 202.863 204.157 202.748C202.578 202.633 201.106 201.91 200.05 200.731C198.995 199.552 198.438 198.009 198.497 196.428L199.753 179.198C199.872 177.584 200.626 176.083 201.851 175.024C203.076 173.966 204.67 173.437 206.285 173.554Z" fill="#08010E"/>
<path fill-rule="evenodd" clip-rule="evenodd" d="M237.066 81.0377L235.758 75.941C233.686 75.0837 231.868 73.7109 230.476 71.9532C229.084 70.1954 228.164 68.111 227.804 65.8978C227.444 63.6847 227.656 61.4162 228.42 59.3079C229.183 57.1996 230.473 55.3215 232.166 53.8518C233.859 52.3821 235.9 51.3696 238.095 50.9106C240.29 50.4515 242.566 50.5611 244.706 51.229C246.846 51.8968 248.781 53.1007 250.325 54.7263C251.869 56.352 252.973 58.3454 253.53 60.5173L260.068 86.0006C260.625 88.1725 260.618 90.4508 260.047 92.6191C259.476 94.7875 258.36 96.7739 256.806 98.3897C255.251 100.006 253.309 101.197 251.165 101.851C249.02 102.506 246.744 102.601 244.552 102.128C242.36 101.655 240.325 100.63 238.641 99.1494C236.957 97.6691 235.68 95.7828 234.93 93.6697C234.179 91.5566 233.982 89.2869 234.356 87.076C234.73 84.8652 235.663 82.7866 237.066 81.0377ZM243.99 65.6808L246.539 65.027C247.214 64.8536 247.794 64.4189 248.149 63.8183C248.504 63.2178 248.606 62.5008 248.433 61.8249C248.26 61.149 247.825 60.5697 247.224 60.2145C246.624 59.8592 245.907 59.757 245.231 59.9304L242.683 60.5842L242.029 58.0358C241.855 57.36 241.421 56.7807 240.82 56.4254C240.22 56.0701 239.503 55.9679 238.827 56.1413C238.151 56.3147 237.572 56.7495 237.216 57.35C236.861 57.9505 236.759 58.6676 236.932 59.3434L237.586 61.8918L235.038 62.5456C234.362 62.719 233.782 63.1538 233.427 63.7543C233.072 64.3548 232.97 65.0718 233.143 65.7477C233.316 66.4236 233.751 67.0029 234.352 67.3582C234.952 67.7135 235.669 67.8156 236.345 67.6422L238.894 66.9884L239.547 69.5368C239.721 70.2126 240.156 70.7919 240.756 71.1472C241.357 71.5025 242.074 71.6047 242.749 71.4313C243.425 71.2579 244.005 70.8231 244.36 70.2226C244.715 69.6221 244.817 68.905 244.644 68.2292L243.99 65.6808ZM249.874 88.6158C250.048 89.2917 250.483 89.871 251.083 90.2263C251.684 90.5816 252.401 90.6838 253.077 90.5104C253.752 90.337 254.332 89.9022 254.687 89.3017C255.042 88.7011 255.145 87.9841 254.971 87.3082C254.798 86.6324 254.363 86.0531 253.762 85.6978C253.162 85.3425 252.445 85.2403 251.769 85.4137C251.093 85.5871 250.514 86.0219 250.159 86.6224C249.803 87.2229 249.701 87.94 249.874 88.6158ZM241.576 88.0289C241.749 88.7048 242.184 89.2841 242.784 89.6393C243.385 89.9946 244.102 90.0968 244.778 89.9234C245.454 89.75 246.033 89.3153 246.388 88.7147C246.744 88.1142 246.846 87.3972 246.672 86.7213C246.499 86.0454 246.064 85.4661 245.464 85.1108C244.863 84.7556 244.146 84.6534 243.47 84.8268C242.794 85.0002 242.215 85.4349 241.86 86.0355C241.504 86.636 241.402 87.353 241.576 88.0289ZM246.085 95.0201C246.259 95.6959 246.694 96.2752 247.294 96.6305C247.895 96.9858 248.612 97.088 249.288 96.9146C249.963 96.7412 250.543 96.3064 250.898 95.7059C251.253 95.1054 251.355 94.3883 251.182 93.7125C251.009 93.0366 250.574 92.4573 249.973 92.102C249.373 91.7467 248.656 91.6446 247.98 91.818C247.304 91.9914 246.725 92.4261 246.369 93.0267C246.014 93.6272 245.912 94.3442 246.085 95.0201Z" fill="#08010E"/>
<path fill-rule="evenodd" clip-rule="evenodd" d="M237.066 81.0377L235.758 75.941C233.686 75.0837 231.868 73.7109 230.476 71.9532C229.084 70.1954 228.164 68.111 227.804 65.8978C227.444 63.6847 227.656 61.4162 228.42 59.3079C229.183 57.1996 230.473 55.3215 232.166 53.8518C233.859 52.3821 235.9 51.3696 238.095 50.9106C240.29 50.4515 242.566 50.5611 244.706 51.229C246.846 51.8968 248.781 53.1007 250.325 54.7263C251.869 56.352 252.973 58.3454 253.53 60.5173L260.068 86.0006C260.625 88.1725 260.618 90.4508 260.047 92.6191C259.476 94.7875 258.36 96.7739 256.806 98.3897C255.251 100.006 253.309 101.197 251.165 101.851C249.02 102.506 246.744 102.601 244.552 102.128C242.36 101.655 240.325 100.63 238.641 99.1494C236.957 97.6691 235.68 95.7828 234.93 93.6697C234.179 91.5566 233.982 89.2869 234.356 87.076C234.73 84.8652 235.663 82.7866 237.066 81.0377ZM243.99 65.6808L246.539 65.027C247.214 64.8536 247.794 64.4189 248.149 63.8183C248.504 63.2178 248.606 62.5008 248.433 61.8249C248.26 61.149 247.825 60.5697 247.224 60.2145C246.624 59.8592 245.907 59.757 245.231 59.9304L242.683 60.5842L242.029 58.0358C241.855 57.36 241.421 56.7807 240.82 56.4254C240.22 56.0701 239.503 55.9679 238.827 56.1413C238.151 56.3147 237.572 56.7495 237.216 57.35C236.861 57.9505 236.759 58.6676 236.932 59.3434L237.586 61.8918L235.038 62.5456C234.362 62.719 233.782 63.1538 233.427 63.7543C233.072 64.3548 232.97 65.0718 233.143 65.7477C233.316 66.4236 233.751 67.0029 234.352 67.3582C234.952 67.7135 235.669 67.8156 236.345 67.6422L238.894 66.9884L239.547 69.5368C239.721 70.2126 240.156 70.7919 240.756 71.1472C241.357 71.5025 242.074 71.6047 242.749 71.4313C243.425 71.2579 244.005 70.8231 244.36 70.2226C244.715 69.6221 244.817 68.905 244.644 68.2292L243.99 65.6808ZM249.874 88.6158C250.048 89.2917 250.483 89.871 251.083 90.2263C251.684 90.5816 252.401 90.6838 253.077 90.5104C253.752 90.337 254.332 89.9022 254.687 89.3017C255.042 88.7011 255.145 87.9841 254.971 87.3082C254.798 86.6324 254.363 86.0531 253.762 85.6978C253.162 85.3425 252.445 85.2403 251.769 85.4137C251.093 85.5871 250.514 86.0219 250.159 86.6224C249.803 87.2229 249.701 87.94 249.874 88.6158ZM241.576 88.0289C241.749 88.7048 242.184 89.2841 242.784 89.6393C243.385 89.9946 244.102 90.0968 244.778 89.9234C245.454 89.75 246.033 89.3153 246.388 88.7147C246.744 88.1142 246.846 87.3972 246.672 86.7213C246.499 86.0454 246.064 85.4661 245.464 85.1108C244.863 84.7556 244.146 84.6534 243.47 84.8268C242.794 85.0002 242.215 85.4349 241.86 86.0355C241.504 86.636 241.402 87.353 241.576 88.0289ZM246.085 95.0201C246.259 95.6959 246.694 96.2752 247.294 96.6305C247.895 96.9858 248.612 97.088 249.288 96.9146C249.963 96.7412 250.543 96.3064 250.898 95.7059C251.253 95.1054 251.355 94.3883 251.182 93.7125C251.009 93.0366 250.574 92.4573 249.973 92.102C249.373 91.7467 248.656 91.6446 247.98 91.818C247.304 91.9914 246.725 92.4261 246.369 93.0267C246.014 93.6272 245.912 94.3442 246.085 95.0201Z" fill="#08010E"/>
<path d="M143.712 87.1888V95.6052H152.893V87.1888L148.303 82.598L143.712 87.1888ZM149.833 92.5447H146.772V88.4589L148.303 86.9286L149.833 88.4589V92.5447ZM152.893 73.4164V65H143.712V73.4164L148.303 78.0072L152.893 73.4164ZM146.772 68.0605H149.833V72.1463L148.303 73.6766L146.772 72.1463V68.0605ZM141.416 75.7118H133V84.8934H141.416L146.007 80.3026L141.416 75.7118ZM140.146 81.8329H136.061V78.7723H140.146L141.677 80.3026L140.146 81.8329ZM155.189 75.7118L150.598 80.3026L155.189 84.8934H163.605V75.7118H155.189ZM160.545 81.8329H156.459L154.929 80.3026L156.459 78.7723H160.545V81.8329Z" fill="#08010E"/>
<path d="M143.712 87.1888V95.6052H152.893V87.1888L148.303 82.598L143.712 87.1888ZM149.833 92.5447H146.772V88.4589L148.303 86.9286L149.833 88.4589V92.5447ZM152.893 73.4164V65H143.712V73.4164L148.303 78.0072L152.893 73.4164ZM146.772 68.0605H149.833V72.1463L148.303 73.6766L146.772 72.1463V68.0605ZM141.416 75.7118H133V84.8934H141.416L146.007 80.3026L141.416 75.7118ZM140.146 81.8329H136.061V78.7723H140.146L141.677 80.3026L140.146 81.8329ZM155.189 75.7118L150.598 80.3026L155.189 84.8934H163.605V75.7118H155.189ZM160.545 81.8329H156.459L154.929 80.3026L156.459 78.7723H160.545V81.8329Z" fill="#08010E"/>
<defs>
<linearGradient id="paint0_linear_477_13122" x1="22.7944" y1="22.8437" x2="393.267" y2="207.739" gradientUnits="userSpaceOnUse">
<stop stop-color="#5E27ED"/>
<stop offset="1" stop-color="#8E55C8" stop-opacity="0.27"/>
</linearGradient>
<linearGradient id="paint1_linear_477_13122" x1="22.7944" y1="22.8437" x2="393.267" y2="207.739" gradientUnits="userSpaceOnUse">
<stop stop-color="#5E27ED"/>
<stop offset="1" stop-color="#8E55C8" stop-opacity="0.27"/>
</linearGradient>
</defs>
</svg>
