<svg width="14" height="14" viewBox="0 0 14 14" fill="none" xmlns="http://www.w3.org/2000/svg">
<g id="clarity:calendar-line" clip-path="url(#clip0_667_13628)">
<path id="Vector" d="M12.5417 2.33325H11.2778V3.11103H12.4445V11.6666H1.55559V3.11103H2.72225V2.33325H1.45837C1.36746 2.33477 1.27774 2.35418 1.19434 2.39038C1.11093 2.42658 1.03548 2.47886 0.972278 2.54422C0.90908 2.60959 0.859378 2.68676 0.826011 2.77134C0.792644 2.85591 0.776265 2.94623 0.77781 3.03714V11.7405C0.776265 11.8314 0.792644 11.9217 0.826011 12.0063C0.859378 12.0909 0.90908 12.168 0.972278 12.2334C1.03548 12.2988 1.11093 12.351 1.19434 12.3872C1.27774 12.4234 1.36746 12.4428 1.45837 12.4444H12.5417C12.6326 12.4428 12.7223 12.4234 12.8057 12.3872C12.8891 12.351 12.9646 12.2988 13.0278 12.2334C13.091 12.168 13.1407 12.0909 13.1741 12.0063C13.2074 11.9217 13.2238 11.8314 13.2223 11.7405V3.03714C13.2238 2.94623 13.2074 2.85591 13.1741 2.77134C13.1407 2.68676 13.091 2.60959 13.0278 2.54422C12.9646 2.47886 12.8891 2.42658 12.8057 2.39038C12.7223 2.35418 12.6326 2.33477 12.5417 2.33325Z" fill="#9B9B9B"/>
<path id="Vector_2" d="M3.11108 5.44434H3.88886V6.22211H3.11108V5.44434Z" fill="#9B9B9B"/>
<path id="Vector_3" d="M5.44446 5.44434H6.22224V6.22211H5.44446V5.44434Z" fill="#9B9B9B"/>
<path id="Vector_4" d="M7.77777 5.44434H8.55555V6.22211H7.77777V5.44434Z" fill="#9B9B9B"/>
<path id="Vector_5" d="M10.1111 5.44434H10.8889V6.22211H10.1111V5.44434Z" fill="#9B9B9B"/>
<path id="Vector_6" d="M3.11108 7.38892H3.88886V8.16669H3.11108V7.38892Z" fill="#9B9B9B"/>
<path id="Vector_7" d="M5.44446 7.38892H6.22224V8.16669H5.44446V7.38892Z" fill="#9B9B9B"/>
<path id="Vector_8" d="M7.77777 7.38892H8.55555V8.16669H7.77777V7.38892Z" fill="#9B9B9B"/>
<path id="Vector_9" d="M10.1111 7.38892H10.8889V8.16669H10.1111V7.38892Z" fill="#9B9B9B"/>
<path id="Vector_10" d="M3.11108 9.33325H3.88886V10.111H3.11108V9.33325Z" fill="#9B9B9B"/>
<path id="Vector_11" d="M5.44446 9.33325H6.22224V10.111H5.44446V9.33325Z" fill="#9B9B9B"/>
<path id="Vector_12" d="M7.77777 9.33325H8.55555V10.111H7.77777V9.33325Z" fill="#9B9B9B"/>
<path id="Vector_13" d="M10.1111 9.33325H10.8889V10.111H10.1111V9.33325Z" fill="#9B9B9B"/>
<path id="Vector_14" d="M3.88889 3.88894C3.99203 3.88894 4.09094 3.84797 4.16387 3.77504C4.23681 3.70211 4.27778 3.60319 4.27778 3.50005V1.16672C4.27778 1.06358 4.23681 0.964666 4.16387 0.891735C4.09094 0.818804 3.99203 0.777832 3.88889 0.777832C3.78575 0.777832 3.68683 0.818804 3.6139 0.891735C3.54097 0.964666 3.5 1.06358 3.5 1.16672V3.50005C3.5 3.60319 3.54097 3.70211 3.6139 3.77504C3.68683 3.84797 3.78575 3.88894 3.88889 3.88894Z" fill="#9B9B9B"/>
<path id="Vector_15" d="M10.1111 3.88894C10.2143 3.88894 10.3132 3.84797 10.3861 3.77504C10.459 3.70211 10.5 3.60319 10.5 3.50005V1.16672C10.5 1.06358 10.459 0.964666 10.3861 0.891735C10.3132 0.818804 10.2143 0.777832 10.1111 0.777832C10.008 0.777832 9.90906 0.818804 9.83613 0.891735C9.7632 0.964666 9.72223 1.06358 9.72223 1.16672V3.50005C9.72223 3.60319 9.7632 3.70211 9.83613 3.77504C9.90906 3.84797 10.008 3.88894 10.1111 3.88894Z" fill="#9B9B9B"/>
<path id="Vector_16" d="M5.05554 2.33325H8.94443V3.11103H5.05554V2.33325Z" fill="#9B9B9B"/>
</g>
<defs>
<clipPath id="clip0_667_13628">
<rect width="14" height="14" fill="white"/>
</clipPath>
</defs>
</svg>
