<svg width="28" height="28" viewBox="0 0 28 28" fill="none" xmlns="http://www.w3.org/2000/svg">
<path d="M8.75 24.5C8.51794 24.5 8.29538 24.4078 8.13128 24.2437C7.96719 24.0796 7.875 23.8571 7.875 23.625V4.375C7.87507 4.22135 7.91559 4.07043 7.9925 3.93742C8.06941 3.8044 8.17998 3.69399 8.31311 3.61727C8.44623 3.54055 8.59721 3.50024 8.75086 3.50039C8.9045 3.50054 9.0554 3.54115 9.18838 3.61813L25.8134 13.2431C25.946 13.32 26.056 13.4304 26.1325 13.5633C26.2091 13.6961 26.2493 13.8467 26.2493 14C26.2493 14.1533 26.2091 14.3039 26.1325 14.4367C26.056 14.5696 25.946 14.68 25.8134 14.7569L9.18838 24.3819C9.05522 24.4592 8.90398 24.5 8.75 24.5ZM9.625 5.89225V22.1077L23.625 14L9.625 5.89225ZM3.5 3.5H5.25V24.5H3.5V3.5Z" fill="#EFEFEF"/>
</svg>
