<svg width="14" height="14" viewBox="0 0 14 14" fill="none" xmlns="http://www.w3.org/2000/svg">
<rect width="14" height="14" fill="#1E1E1E"/>
<g id="join tourney" clip-path="url(#clip0_1_4)">
<rect width="1440" height="1042" transform="translate(-937 -638)" fill="#01070E"/>
<g id="Frame 1000004550">
<rect x="-33" y="-460" width="504" height="832" rx="10" fill="#01070E"/>
<rect x="-32.5" y="-459.5" width="503" height="831" rx="9.5" stroke="white" stroke-opacity="0.2"/>
<g id="Frame 1000004485">
<path d="M444 250.4H-1V251.6H444V250.4Z" fill="#F6B8FC" mask="url(#path-3-inside-1_1_4)"/>
<path id="Vector" fill-rule="evenodd" clip-rule="evenodd" d="M7 14C7.91925 14 8.8295 13.8189 9.67878 13.4672C10.5281 13.1154 11.2997 12.5998 11.9497 11.9497C12.5998 11.2997 13.1154 10.5281 13.4672 9.67878C13.8189 8.8295 14 7.91925 14 7C14 6.08075 13.8189 5.1705 13.4672 4.32122C13.1154 3.47194 12.5998 2.70026 11.9497 2.05025C11.2997 1.40024 10.5281 0.884626 9.67878 0.532843C8.8295 0.18106 7.91925 -1.36979e-08 7 0C5.14348 2.76642e-08 3.36301 0.737498 2.05025 2.05025C0.737498 3.36301 0 5.14348 0 7C0 8.85652 0.737498 10.637 2.05025 11.9497C3.36301 13.2625 5.14348 14 7 14ZM6.81956 9.83111L10.7084 5.16444L9.51378 4.16889L6.16933 8.18144L4.43878 6.45011L3.339 7.54989L5.67233 9.88322L6.27433 10.4852L6.81956 9.83111Z" fill="#F6B8FC"/>
</g>
</g>
</g>
<defs>
<clipPath id="clip0_1_4">
<rect width="1440" height="1042" fill="white" transform="translate(-937 -638)"/>
</clipPath>
</defs>
</svg>
