<svg width="20" height="20" viewBox="0 0 20 20" fill="none" xmlns="http://www.w3.org/2000/svg">
<g id="Group">
<path id="Vector" d="M5.5 2.8V13.6C5.5 14.0774 5.73705 14.5352 6.15901 14.8728C6.58097 15.2104 7.15326 15.4 7.75 15.4H16.75C17.3467 15.4 17.919 15.2104 18.341 14.8728C18.7629 14.5352 19 14.0774 19 13.6V5.7178C19 5.478 18.94 5.24063 18.8237 5.01962C18.7074 4.79861 18.5371 4.59842 18.3228 4.4308L14.5934 1.513C14.173 1.18419 13.6085 1.00006 13.0206 1H7.75C7.15326 1 6.58097 1.18964 6.15901 1.52721C5.73705 1.86477 5.5 2.32261 5.5 2.8Z" stroke="white" stroke-width="2" stroke-linecap="round" stroke-linejoin="round"/>
<path id="Vector_2" d="M14.5 15.4V17.2C14.5 17.6774 14.2629 18.1352 13.841 18.4728C13.419 18.8104 12.8467 19 12.25 19H3.25C2.65326 19 2.08097 18.8104 1.65901 18.4728C1.23705 18.1352 1 17.6774 1 17.2V7.3C1 6.82261 1.23705 6.36477 1.65901 6.02721C2.08097 5.68964 2.65326 5.5 3.25 5.5H5.5" stroke="white" stroke-width="2" stroke-linecap="round" stroke-linejoin="round"/>
</g>
</svg>
