<svg width="63" height="61" viewBox="0 0 63 61" fill="none" xmlns="http://www.w3.org/2000/svg">
<rect width="63" height="60.7297" rx="3.40541" fill="url(#paint0_linear_990_13914)"/>
<path d="M31.2501 9.21973C26.1813 9.21973 22.0722 14.3069 22.0722 20.5823C22.0722 24.9344 24.0486 28.7142 26.9509 30.6228L23.5854 32.2768L14.6291 36.6815C13.7639 37.1403 13.3321 37.9182 13.3321 39.0192V49.4787C13.4032 50.7864 14.1432 52.0052 15.3429 52.0258H47.2059C48.5755 51.8996 49.2684 50.7297 49.2819 49.4787V39.0192C49.2819 37.9182 48.85 37.1403 47.9849 36.6815L39.3529 32.2768L35.7656 30.4746C38.5488 28.5231 40.4282 24.825 40.4282 20.5823C40.4281 14.3069 36.319 9.21973 31.2501 9.21973ZM16.4461 13.2154C14.2647 13.3032 12.536 14.3041 11.2225 15.8989C9.76971 17.8191 9.06145 20.0988 9.04777 22.3667C9.13699 25.7202 10.552 28.895 13.0712 30.5556L3.0136 35.5116C2.32138 35.7869 1.97559 36.4291 1.97559 37.4383V45.8328C2.02964 46.9461 2.57476 47.8817 3.59689 47.8977H10.2814V39.0192C10.392 36.6455 11.4433 34.7268 13.3321 33.7905L20.0148 30.4193C20.5339 30.0982 21.0316 29.6616 21.5075 29.1111C18.7521 24.6031 18.3695 19.2036 20.1453 14.4545C18.9903 13.7049 17.6924 13.2233 16.4461 13.2154ZM46.2964 13.2154C44.8699 13.2471 43.5516 13.8041 42.4687 14.5908C44.196 19.3829 43.7196 24.7857 41.1698 28.9728C41.7322 29.6609 42.3177 30.1887 42.9234 30.5557L49.3471 33.7905C51.304 34.9285 52.3131 36.8642 52.3325 39.0192V47.8979H59.2108C60.342 47.7943 60.8242 46.8375 60.834 45.8328V37.4384C60.834 36.5209 60.4882 35.8787 59.796 35.5116L49.867 30.4865C52.442 28.4732 53.7349 25.456 53.7599 22.3667C53.6915 19.9216 52.9871 17.6512 51.5852 15.8989C50.1203 14.2139 48.3033 13.2332 46.2964 13.2154Z" fill="#350000"/>
<defs>
<linearGradient id="paint0_linear_990_13914" x1="31.5" y1="0" x2="31.5" y2="60.7297" gradientUnits="userSpaceOnUse">
<stop stop-color="#F43F76"/>
<stop offset="1" stop-color="#F00330"/>
</linearGradient>
</defs>
</svg>
