<svg width="212" height="48" viewBox="0 0 212 48" fill="none" xmlns="http://www.w3.org/2000/svg">
<g clip-path="url(#clip0_119_7968)">
<path d="M13.8308 15.9506H30.0982V29.2502C26.814 33.7621 22.3611 36.6685 16.4799 36.6685C7.4183 36.6685 0 29.092 0 19.766C0 10.44 7.4183 2.91309 16.4799 2.91309C18.7566 2.91159 21.0085 3.38685 23.0905 4.30829C25.1725 5.22973 27.0384 6.57693 28.5682 8.26314L22.1935 12.8223C20.6565 11.2333 18.8031 10.4919 16.4704 10.4919C11.7484 10.4919 7.88578 14.678 7.88578 19.766C7.89523 24.9059 11.7649 29.0401 16.4799 29.0401C18.6938 29.0231 20.8245 28.1938 22.4674 26.7097V23.5814H13.8308V15.9506Z" fill="#2D2D2D"/>
<path d="M49.5669 12.5137H57.1977V36.1474H49.5669V34.9291C47.7736 36.1101 45.6723 36.7366 43.5251 36.7306C37.0606 36.7306 31.8145 31.1657 31.8145 24.3305C31.8145 17.4954 37.0606 11.9825 43.5251 11.9825C45.6725 11.9772 47.7738 12.6046 49.5669 13.7863V12.5137ZM49.5126 21.7877C48.5682 20.0382 46.8635 18.9781 44.9558 18.9781C42.1462 18.9781 39.8159 21.3628 39.8159 24.3305C39.8159 27.2983 42.1462 29.7349 44.9558 29.7349C46.8635 29.7349 48.5588 28.6229 49.5126 26.9277V21.7877Z" fill="#2D2D2D"/>
<path d="M120.454 17.7905C120.961 18.6676 121.39 19.5881 121.734 20.541L108.104 28.4103C109.313 29.5507 111.126 29.7254 113.008 28.6464C114.294 27.905 115.34 26.7576 115.451 25.034L122.412 25.1143C122.291 27.1501 121.67 29.1245 120.602 30.862C119.534 32.5995 118.054 34.0461 116.292 35.0731C110.418 38.454 102.907 36.3598 99.4909 30.4573C98.6754 29.0632 98.1431 27.522 97.9242 25.9219C97.7054 24.3217 97.8045 22.6941 98.2157 21.1323C98.6269 19.5705 99.3423 18.1052 100.321 16.8203C101.299 15.5354 102.522 14.4562 103.918 13.6445C109.655 10.3202 116.939 12.2326 120.454 17.7905ZM112.262 20.1349C110.81 18.8883 109.211 18.775 107.662 19.6769C105.92 20.6827 105.209 22.3165 105.573 24.0023L112.262 20.1349Z" fill="#2D2D2D"/>
<path d="M151.674 26.0186C151.674 32.0061 146.798 36.1922 140.813 36.1922H124.066V3.39062H139.38C144.945 3.39062 149.452 7.15407 149.452 12.719C149.457 14.5559 148.942 16.3567 147.967 17.9132C149.128 18.9209 150.06 20.1657 150.699 21.5639C151.339 22.9621 151.671 24.4811 151.674 26.0186ZM131.643 15.8969H139.38C140.02 15.8771 140.628 15.6088 141.073 15.1489C141.519 14.6891 141.769 14.0737 141.769 13.4332C141.769 12.7927 141.519 12.1773 141.073 11.7174C140.628 11.2575 140.02 10.9893 139.38 10.9695H131.643V15.8969ZM144.043 25.3409C144.043 24.4826 143.703 23.6593 143.097 23.0512C142.491 22.4432 141.669 22.1 140.811 22.0969H131.643V28.6157H140.811C141.673 28.6002 142.494 28.2473 143.098 27.6327C143.703 27.0182 144.042 26.1911 144.043 25.3291V25.3409Z" fill="#2D2D2D"/>
<path d="M153.39 5.5106L160.967 0V36.14H153.39V5.5106Z" fill="#2D2D2D"/>
<path d="M187.483 24.269C187.484 26.7216 186.757 29.1193 185.395 31.1587C184.032 33.1982 182.096 34.7879 179.83 35.7268C177.564 36.6657 175.071 36.9116 172.665 36.4334C170.26 35.9552 168.05 34.7744 166.316 33.0404C164.581 31.3063 163.4 29.0968 162.922 26.6914C162.443 24.2859 162.688 21.7926 163.627 19.5266C164.565 17.2607 166.155 15.3239 168.194 13.9613C170.233 12.5986 172.631 11.8713 175.083 11.8713C178.37 11.8757 181.521 13.1832 183.846 15.5072C186.17 17.8312 187.478 20.9821 187.483 24.269ZM179.427 24.269C179.427 21.62 177.468 19.4998 175.083 19.4998C172.699 19.4998 170.737 21.6247 170.737 24.269C170.737 26.9133 172.699 29.0383 175.083 29.0383C177.468 29.0383 179.437 26.9157 179.437 24.269H179.427Z" fill="#2D2D2D"/>
<path d="M197.215 24.2691C197.215 26.9205 199.177 29.0383 201.614 29.0383C202.314 29.0268 203 28.8417 203.61 28.4997C204.221 28.1577 204.737 27.6694 205.113 27.0787L212 31.0523C210.539 33.2885 208.395 34.9933 205.887 35.9127C203.379 36.8321 200.641 36.917 198.081 36.1548C195.521 35.3927 193.275 33.8241 191.678 31.6827C190.081 29.5413 189.219 26.9415 189.219 24.2703C189.219 21.599 190.081 18.9992 191.678 16.8578C193.275 14.7164 195.521 13.1479 198.081 12.3857C200.641 11.6235 203.379 11.7085 205.887 12.6279C208.395 13.5473 210.539 15.252 212 17.4883L205.172 21.5138C204.793 20.9124 204.271 20.414 203.654 20.0626C203.036 19.7113 202.341 19.518 201.63 19.4998C199.177 19.4998 197.215 21.62 197.215 24.2691Z" fill="#2D2D2D"/>
<path d="M77.5308 38.8077L70.0464 34.4823V42.9394L77.5308 47.2648L85.0152 42.9394V34.4823L77.5308 38.8077Z" fill="url(#paint0_linear_119_7968)"/>
<path d="M77.5214 30.5117L70.0488 34.4852L77.5309 38.8106L85.0106 34.4876L77.5214 30.5117Z" fill="url(#paint1_linear_119_7968)"/>
<path d="M77.5311 25.6309L58.9121 14.9355V36.7229L66.0424 40.7815V27.9093L77.5311 34.6429L89.0174 27.9093V40.7815L96.1476 36.7229V14.9355L77.5311 25.6309Z" fill="url(#paint2_linear_119_7968)"/>
<path d="M88.4909 10.0723L77.6892 16.5722L66.4673 10.0723L58.9121 14.936L77.5311 25.6314L96.1476 14.936L88.4909 10.0723Z" fill="url(#paint3_linear_119_7968)"/>
</g>
<defs>
<linearGradient id="paint0_linear_119_7968" x1="50.4571" y1="40.8736" x2="86.871" y2="40.8736" gradientUnits="userSpaceOnUse">
<stop offset="0.02" stop-color="#E875FC"/>
<stop offset="0.97" stop-color="#4E1EEC"/>
</linearGradient>
<linearGradient id="paint1_linear_119_7968" x1="70.0488" y1="34.66" x2="85.0106" y2="34.66" gradientUnits="userSpaceOnUse">
<stop offset="0.02" stop-color="#E875FC"/>
<stop offset="0.97" stop-color="#F6B8FC"/>
</linearGradient>
<linearGradient id="paint2_linear_119_7968" x1="48.5591" y1="27.8597" x2="132.769" y2="27.8597" gradientUnits="userSpaceOnUse">
<stop offset="0.02" stop-color="#E875FC"/>
<stop offset="0.97" stop-color="#4E1EEC"/>
</linearGradient>
<linearGradient id="paint3_linear_119_7968" x1="96.1476" y1="17.8518" x2="58.9121" y2="17.8518" gradientUnits="userSpaceOnUse">
<stop offset="0.02" stop-color="#E875FC"/>
<stop offset="0.97" stop-color="#F6B8FC"/>
</linearGradient>
<clipPath id="clip0_119_7968">
<rect width="212" height="47.2651" fill="white"/>
</clipPath>
</defs>
</svg>
