<?xml version="1.0" encoding="UTF-8"?>
<!DOCTYPE svg PUBLIC "-//W3C//DTD SVG 1.1//EN" "http://www.w3.org/Graphics/SVG/1.1/DTD/svg11.dtd">
<svg xmlns="http://www.w3.org/2000/svg" version="1.1" width="2500px" height="2500px" style="shape-rendering:geometricPrecision; text-rendering:geometricPrecision; image-rendering:optimizeQuality; fill-rule:evenodd; clip-rule:evenodd" xmlns:xlink="http://www.w3.org/1999/xlink">
<g><path style="opacity:0.996" fill="#29aae1" d="M 1247.5,1065.5 C 1276.1,1097.28 1304.94,1128.94 1334,1160.5C 1359.03,1186.53 1383.7,1212.87 1408,1239.5C 1409.45,1241.46 1411.28,1242.8 1413.5,1243.5C 1470.87,1305.04 1529.54,1365.54 1589.5,1425C 1627.35,1461.2 1668.35,1493.2 1712.5,1521C 1764.05,1553.78 1818.39,1581.28 1875.5,1603.5C 1965.03,1638.92 2057.36,1648.09 2152.5,1631C 2243.77,1617.52 2323.44,1580.19 2391.5,1519C 2431.48,1481.17 2462.15,1437 2483.5,1386.5C 2438.44,1553.02 2341.11,1678.86 2191.5,1764C 2081.96,1823.97 1964.96,1848.64 1840.5,1838C 1784.25,1829.58 1730.58,1812.92 1679.5,1788C 1619.79,1758.17 1563.79,1722.83 1511.5,1682C 1443.77,1628.63 1379.94,1570.46 1320,1507.5C 1296.92,1482.95 1274.08,1458.28 1251.5,1433.5C 1248.91,1429.73 1246.07,1426.06 1243,1422.5C 1192.57,1367.98 1141.9,1313.64 1091,1259.5C 1089.55,1257.54 1087.72,1256.2 1085.5,1255.5C 1028.13,1193.96 969.46,1133.46 909.5,1074C 880.201,1045.69 848.868,1020.02 815.5,997C 756.677,955.914 693.677,922.08 626.5,895.5C 600.644,884.771 573.977,876.438 546.5,870.5C 523.265,864.389 499.599,860.722 475.5,859.5C 472.5,859.5 469.5,859.5 466.5,859.5C 454.011,858.505 441.344,858.171 428.5,858.5C 408.77,858.974 389.104,860.308 369.5,862.5C 271.802,872.867 186.135,910.033 112.5,974C 70.9826,1012.58 38.9826,1057.74 16.5,1109.5C 51.2517,978.103 121.918,870.603 228.5,787C 355.549,690.724 498.882,648.724 658.5,661C 714.013,669.283 767.013,685.616 817.5,710C 877.876,740.165 934.543,775.832 987.5,817C 1054.88,870.047 1118.38,927.881 1178,990.5C 1201.18,1015.57 1224.35,1040.57 1247.5,1065.5 Z"/></g>
<g><path style="opacity:0.996" fill="#f05a24" d="M 2026.5,672.5 C 1937.47,760.196 1848.14,847.529 1758.5,934.5C 1718.16,957.337 1679.83,983.171 1643.5,1012C 1559.59,1082.07 1482.93,1159.24 1413.5,1243.5C 1411.28,1242.8 1409.45,1241.46 1408,1239.5C 1383.7,1212.87 1359.03,1186.53 1334,1160.5C 1304.94,1128.94 1276.1,1097.28 1247.5,1065.5C 1320.07,980.428 1399.41,902.261 1485.5,831C 1547.65,780.396 1615.31,738.062 1688.5,704C 1797.63,654.853 1910.3,644.353 2026.5,672.5 Z"/></g>
<g><path style="opacity:0.995" fill="#f16025" d="M 2026.5,672.5 C 2041.42,675.231 2056.09,678.898 2070.5,683.5C 1996.83,755.5 1923.17,827.5 1849.5,899.5C 1817.69,907.435 1787.36,919.102 1758.5,934.5C 1848.14,847.529 1937.47,760.196 2026.5,672.5 Z"/></g>
<g><path style="opacity:0.996" fill="#f26627" d="M 2070.5,683.5 C 2086.99,688.089 2102.99,693.756 2118.5,700.5C 2051.2,764.802 1984.53,829.802 1918.5,895.5C 1895.28,893.296 1872.28,894.63 1849.5,899.5C 1923.17,827.5 1996.83,755.5 2070.5,683.5 Z"/></g>
<g><path style="opacity:0.996" fill="#f36d29" d="M 2118.5,700.5 C 2131.39,704.681 2143.73,710.015 2155.5,716.5C 2092.8,778.529 2029.8,840.196 1966.5,901.5C 1950.61,898.658 1934.61,896.658 1918.5,895.5C 1984.53,829.802 2051.2,764.802 2118.5,700.5 Z"/></g>
<g><path style="opacity:0.996" fill="#f4732a" d="M 2155.5,716.5 C 2168.59,721.545 2180.93,727.879 2192.5,735.5C 2131.53,794.471 2070.86,853.804 2010.5,913.5C 1995.9,908.852 1981.23,904.852 1966.5,901.5C 2029.8,840.196 2092.8,778.529 2155.5,716.5 Z"/></g>
<g><path style="opacity:0.996" fill="#f4792c" d="M 2192.5,735.5 C 2204.5,741.162 2215.83,747.828 2226.5,755.5C 2167.8,813.865 2108.47,871.532 2048.5,928.5C 2035.83,923.497 2023.16,918.497 2010.5,913.5C 2070.86,853.804 2131.53,794.471 2192.5,735.5 Z"/></g>
<g><path style="opacity:0.996" fill="#f57f2e" d="M 2226.5,755.5 C 2239.91,763.53 2252.57,772.53 2264.5,782.5C 2206.47,838.861 2148.47,895.194 2090.5,951.5C 2076.81,943.322 2062.81,935.655 2048.5,928.5C 2108.47,871.532 2167.8,813.865 2226.5,755.5 Z"/></g>
<g><path style="opacity:0.996" fill="#f6862f" d="M 2264.5,782.5 C 2275.24,789.541 2285.24,797.541 2294.5,806.5C 2236.84,862.165 2179.5,918.165 2122.5,974.5C 2111.81,966.801 2101.14,959.135 2090.5,951.5C 2148.47,895.194 2206.47,838.861 2264.5,782.5 Z"/></g>
<g><path style="opacity:0.996" fill="#f78b31" d="M 2294.5,806.5 C 2299.82,810.489 2304.82,814.822 2309.5,819.5C 2252.03,875.397 2194.36,931.063 2136.5,986.5C 2131.51,982.845 2126.85,978.845 2122.5,974.5C 2179.5,918.165 2236.84,862.165 2294.5,806.5 Z"/></g>
<g><path style="opacity:0.996" fill="#f78e32" d="M 2309.5,819.5 C 2314.17,823.5 2318.5,827.833 2322.5,832.5C 2265.5,888.5 2208.5,944.5 2151.5,1000.5C 2146.47,995.805 2141.47,991.139 2136.5,986.5C 2194.36,931.063 2252.03,875.397 2309.5,819.5 Z"/></g>
<g><path style="opacity:0.996" fill="#f79233" d="M 2322.5,832.5 C 2332.2,841.199 2341.2,850.533 2349.5,860.5C 2291.83,916.5 2234.17,972.5 2176.5,1028.5C 2168.17,1019.17 2159.83,1009.83 2151.5,1000.5C 2208.5,944.5 2265.5,888.5 2322.5,832.5 Z"/></g>
<g><path style="opacity:0.999" fill="#602684" d="M 428.5,858.5 C 441.344,858.171 454.011,858.505 466.5,859.5C 464.801,859.34 463.134,859.506 461.5,860C 308.298,1009.37 154.965,1158.54 1.5,1307.5C 1.2511,1299.65 0.584435,1291.98 -0.5,1284.5C -0.5,1278.5 -0.5,1272.5 -0.5,1266.5C 138.632,1131.2 277.632,995.703 416.5,860C 420.688,859.824 424.688,859.324 428.5,858.5 Z"/></g>
<g><path style="opacity:1" fill="#5a2684" d="M 428.5,858.5 C 424.688,859.324 420.688,859.824 416.5,860C 277.632,995.703 138.632,1131.2 -0.5,1266.5C -0.5,1251.83 -0.5,1237.17 -0.5,1222.5C 123.164,1102.84 246.498,982.836 369.5,862.5C 389.104,860.308 408.77,858.974 428.5,858.5 Z"/></g>
<g><path style="opacity:0.999" fill="#642684" d="M 466.5,859.5 C 469.5,859.5 472.5,859.5 475.5,859.5C 318.498,1013.17 161.164,1166.5 3.5,1319.5C 2.90461,1315.46 2.23794,1311.46 1.5,1307.5C 154.965,1158.54 308.298,1009.37 461.5,860C 463.134,859.506 464.801,859.34 466.5,859.5 Z"/></g>
<g><path style="opacity:0.993" fill="#682583" d="M 475.5,859.5 C 499.599,860.722 523.265,864.389 546.5,870.5C 533.86,882.473 521.527,894.806 509.5,907.5C 404.309,938.698 326.642,1003.03 276.5,1100.5C 187.804,1187.2 98.8041,1273.53 9.5,1359.5C 6.85149,1346.27 4.85149,1332.94 3.5,1319.5C 161.164,1166.5 318.498,1013.17 475.5,859.5 Z"/></g>
<g><path style="opacity:0.996" fill="#f89934" d="M 2349.5,860.5 C 2360.29,871.286 2369.96,882.953 2378.5,895.5C 2320.17,952.167 2261.83,1008.83 2203.5,1065.5C 2194.92,1052.91 2185.92,1040.58 2176.5,1028.5C 2234.17,972.5 2291.83,916.5 2349.5,860.5 Z"/></g>
<g><path style="opacity:0.999" fill="#532785" d="M 369.5,862.5 C 246.498,982.836 123.164,1102.84 -0.5,1222.5C -0.5,1219.83 -0.5,1217.17 -0.5,1214.5C 2.08213,1179.11 7.7488,1144.11 16.5,1109.5C 38.9826,1057.74 70.9826,1012.58 112.5,974C 186.135,910.033 271.802,872.867 369.5,862.5 Z"/></g>
<g><path style="opacity:0.979" fill="#742582" d="M 546.5,870.5 C 573.977,876.438 600.644,884.771 626.5,895.5C 586.848,893.098 547.848,897.098 509.5,907.5C 521.527,894.806 533.86,882.473 546.5,870.5 Z"/></g>
<g><path style="opacity:0.995" fill="#f99f36" d="M 2378.5,895.5 C 2386.89,905.26 2394.55,915.594 2401.5,926.5C 2341.81,984.527 2282.14,1042.53 2222.5,1100.5C 2216.42,1088.68 2210.09,1077.01 2203.5,1065.5C 2261.83,1008.83 2320.17,952.167 2378.5,895.5 Z"/></g>
<g><path style="opacity:0.996" fill="#f9a538" d="M 2401.5,926.5 C 2408.93,937.029 2415.6,948.029 2421.5,959.5C 2360.8,1019.87 2299.47,1079.53 2237.5,1138.5C 2233.05,1125.61 2228.05,1112.94 2222.5,1100.5C 2282.14,1042.53 2341.81,984.527 2401.5,926.5 Z"/></g>
<g><path style="opacity:0.996" fill="#faab39" d="M 2421.5,959.5 C 2428.66,971.143 2435.32,983.143 2441.5,995.5C 2377.8,1057.86 2313.8,1119.86 2249.5,1181.5C 2246.3,1167.04 2242.3,1152.7 2237.5,1138.5C 2299.47,1079.53 2360.8,1019.87 2421.5,959.5 Z"/></g>
<g><path style="opacity:0.997" fill="#faaf3b" d="M 2441.5,995.5 C 2474.95,1065.18 2494.29,1138.52 2499.5,1215.5C 2499.5,1238.17 2499.5,1260.83 2499.5,1283.5C 2496.98,1318.14 2491.64,1352.47 2483.5,1386.5C 2462.15,1437 2431.48,1481.17 2391.5,1519C 2323.44,1580.19 2243.77,1617.52 2152.5,1631C 2057.36,1648.09 1965.03,1638.92 1875.5,1603.5C 1993.73,1606.28 2092.23,1563.95 2171,1476.5C 2242.25,1390.51 2268.42,1292.17 2249.5,1181.5C 2313.8,1119.86 2377.8,1057.86 2441.5,995.5 Z"/></g>
<g><path style="opacity:0.995" fill="#6e2583" d="M 276.5,1100.5 C 269.026,1117.93 262.359,1135.6 256.5,1153.5C 176.167,1231.5 95.8333,1309.5 15.5,1387.5C 13.373,1378.2 11.373,1368.87 9.5,1359.5C 98.8041,1273.53 187.804,1187.2 276.5,1100.5 Z"/></g>
<g><path style="opacity:0.996" fill="#732582" d="M 256.5,1153.5 C 251.68,1171.6 248.013,1189.93 245.5,1208.5C 172.167,1279.5 98.8333,1350.5 25.5,1421.5C 21.5947,1410.44 18.2614,1399.11 15.5,1387.5C 95.8333,1309.5 176.167,1231.5 256.5,1153.5 Z"/></g>
<g><path style="opacity:0.996" fill="#792582" d="M 245.5,1208.5 C 243.906,1223.45 243.24,1238.45 243.5,1253.5C 174.196,1320.14 105.196,1387.14 36.5,1454.5C 32.2382,1443.71 28.5715,1432.71 25.5,1421.5C 98.8333,1350.5 172.167,1279.5 245.5,1208.5 Z"/></g>
<g><path style="opacity:0.996" fill="#7f2481" d="M 243.5,1253.5 C 243.561,1269.23 244.561,1284.9 246.5,1300.5C 181.804,1363.86 116.804,1426.86 51.5,1489.5C 45.9333,1478.15 40.9333,1466.48 36.5,1454.5C 105.196,1387.14 174.196,1320.14 243.5,1253.5 Z"/></g>
<g><path style="opacity:0.996" fill="#ec1e79" d="M 1085.5,1255.5 C 1087.72,1256.2 1089.55,1257.54 1091,1259.5C 1141.9,1313.64 1192.57,1367.98 1243,1422.5C 1246.07,1426.06 1248.91,1429.73 1251.5,1433.5C 1182,1514.84 1106.33,1590 1024.5,1659C 962.447,1710.89 894.78,1754.56 821.5,1790C 764.068,1817.11 703.735,1833.78 640.5,1840C 576.931,1843.81 514.264,1837.98 452.5,1822.5C 533.307,1743.27 614.307,1664.27 695.5,1585.5C 741.951,1565.52 785.284,1540.35 825.5,1510C 885.211,1464.65 941.044,1414.48 993,1359.5C 1025.01,1325.74 1055.85,1291.08 1085.5,1255.5 Z"/></g>
<g><path style="opacity:0.996" fill="#862481" d="M 246.5,1300.5 C 248.767,1312.49 251.434,1324.49 254.5,1336.5C 191.198,1396.8 128.531,1457.8 66.5,1519.5C 60.465,1510.1 55.465,1500.1 51.5,1489.5C 116.804,1426.86 181.804,1363.86 246.5,1300.5 Z"/></g>
<g><path style="opacity:0.996" fill="#8c2380" d="M 254.5,1336.5 C 257.525,1347.94 260.858,1359.27 264.5,1370.5C 203.804,1429.86 142.804,1488.86 81.5,1547.5C 75.9785,1538.46 70.9785,1529.12 66.5,1519.5C 128.531,1457.8 191.198,1396.8 254.5,1336.5 Z"/></g>
<g><path style="opacity:0.996" fill="#922380" d="M 264.5,1370.5 C 268.794,1380.43 273.128,1390.43 277.5,1400.5C 217.835,1458.16 158.502,1516.16 99.5,1574.5C 92.7689,1566.05 86.7689,1557.05 81.5,1547.5C 142.804,1488.86 203.804,1429.86 264.5,1370.5 Z"/></g>
<g><path style="opacity:0.996" fill="#98237f" d="M 277.5,1400.5 C 283.242,1411.65 289.242,1422.65 295.5,1433.5C 237.167,1490.17 178.833,1546.83 120.5,1603.5C 112.346,1594.68 105.346,1585.01 99.5,1574.5C 158.502,1516.16 217.835,1458.16 277.5,1400.5 Z"/></g>
<g><path style="opacity:0.996" fill="#9f227f" d="M 295.5,1433.5 C 301.487,1442.13 307.487,1450.8 313.5,1459.5C 256.035,1515.13 198.702,1570.96 141.5,1627C 140.906,1627.46 140.239,1627.63 139.5,1627.5C 132.412,1620.08 126.079,1612.08 120.5,1603.5C 178.833,1546.83 237.167,1490.17 295.5,1433.5 Z"/></g>
<g><path style="opacity:0.995" fill="#a5227e" d="M 313.5,1459.5 C 320.156,1467.46 326.823,1475.46 333.5,1483.5C 275.835,1539.16 218.502,1595.16 161.5,1651.5C 153.826,1643.83 146.493,1635.83 139.5,1627.5C 140.239,1627.63 140.906,1627.46 141.5,1627C 198.702,1570.96 256.035,1515.13 313.5,1459.5 Z"/></g>
<g><path style="opacity:0.997" fill="#ab227e" d="M 333.5,1483.5 C 340.472,1490.81 347.472,1498.14 354.5,1505.5C 297.5,1561.5 240.5,1617.5 183.5,1673.5C 175.833,1666.5 168.5,1659.17 161.5,1651.5C 218.502,1595.16 275.835,1539.16 333.5,1483.5 Z"/></g>
<g><path style="opacity:0.996" fill="#b2217d" d="M 354.5,1505.5 C 363.833,1513.17 373.167,1520.83 382.5,1528.5C 325.167,1584.83 267.833,1641.17 210.5,1697.5C 200.88,1690.21 191.88,1682.21 183.5,1673.5C 240.5,1617.5 297.5,1561.5 354.5,1505.5 Z"/></g>
<g><path style="opacity:0.996" fill="#b8217d" d="M 382.5,1528.5 C 391.19,1534.87 399.857,1541.2 408.5,1547.5C 350.5,1603.83 292.5,1660.17 234.5,1716.5C 225.919,1710.92 217.919,1704.59 210.5,1697.5C 267.833,1641.17 325.167,1584.83 382.5,1528.5 Z"/></g>
<g><path style="opacity:0.996" fill="#be217c" d="M 408.5,1547.5 C 417.841,1552.84 427.175,1558.17 436.5,1563.5C 378.035,1620.13 319.702,1676.96 261.5,1734C 260.906,1734.46 260.239,1734.63 259.5,1734.5C 250.603,1729.27 242.27,1723.27 234.5,1716.5C 292.5,1660.17 350.5,1603.83 408.5,1547.5 Z"/></g>
<g><path style="opacity:0.996" fill="#c4207c" d="M 436.5,1563.5 C 446.569,1568.2 456.569,1572.87 466.5,1577.5C 406.529,1635.47 346.862,1693.8 287.5,1752.5C 277.479,1747.49 268.146,1741.49 259.5,1734.5C 260.239,1734.63 260.906,1734.46 261.5,1734C 319.702,1676.96 378.035,1620.13 436.5,1563.5 Z"/></g>
<g><path style="opacity:0.996" fill="#cb207b" d="M 466.5,1577.5 C 479.16,1581.83 491.826,1586.16 504.5,1590.5C 443.469,1651.2 381.802,1711.2 319.5,1770.5C 308.178,1765.51 297.511,1759.51 287.5,1752.5C 346.862,1693.8 406.529,1635.47 466.5,1577.5 Z"/></g>
<g><path style="opacity:0.995" fill="#e41e79" d="M 695.5,1585.5 C 614.307,1664.27 533.307,1743.27 452.5,1822.5C 439.277,1818.95 426.277,1814.95 413.5,1810.5C 484.138,1741.86 554.472,1672.86 624.5,1603.5C 648.931,1600.48 672.598,1594.48 695.5,1585.5 Z"/></g>
<g><path style="opacity:0.996" fill="#d11f7b" d="M 504.5,1590.5 C 516.409,1593.55 528.409,1596.22 540.5,1598.5C 477.138,1661.2 413.471,1723.53 349.5,1785.5C 338.903,1781.54 328.903,1776.54 319.5,1770.5C 381.802,1711.2 443.469,1651.2 504.5,1590.5 Z"/></g>
<g><path style="opacity:0.996" fill="#d71f7a" d="M 540.5,1598.5 C 553.39,1600.9 566.39,1602.57 579.5,1603.5C 513.472,1668.86 447.138,1733.86 380.5,1798.5C 369.764,1794.96 359.431,1790.63 349.5,1785.5C 413.471,1723.53 477.138,1661.2 540.5,1598.5 Z"/></g>
<g><path style="opacity:0.996" fill="#dd1f7a" d="M 579.5,1603.5 C 594.505,1604.79 609.505,1604.79 624.5,1603.5C 554.472,1672.86 484.138,1741.86 413.5,1810.5C 402.131,1807.27 391.131,1803.27 380.5,1798.5C 447.138,1733.86 513.472,1668.86 579.5,1603.5 Z"/></g>
</svg>
