<svg width="16" height="16" viewBox="0 0 16 16" fill="none" xmlns="http://www.w3.org/2000/svg">
<rect width="16" height="16" fill="#1E1E1E"/>
<g id="join tourney" clip-path="url(#clip0_1_3)">
<rect width="1440" height="1042" transform="translate(-274 -884)" fill="#01070E"/>
<g id="Frame 1000004580">
<g id="Rectangle 206">
<rect x="-42" y="-174" width="640" height="212" rx="10" fill="#01070E"/>
<rect x="-41.5" y="-173.5" width="639" height="211" rx="9.5" stroke="white" stroke-opacity="0.2"/>
</g>
<g id="Frame 1000004577" filter="url(#filter0_b_1_3)">
<rect x="-10" y="-4" width="180" height="24" rx="12" fill="url(#paint0_linear_1_3)" fill-opacity="0.45"/>
<path id="Vector" d="M8 4.92308C8.60621 4.92308 9.18759 4.66374 9.61624 4.20211C10.0449 3.74048 10.2857 3.11438 10.2857 2.46154C10.2857 1.8087 10.0449 1.1826 9.61624 0.720968C9.18759 0.25934 8.60621 0 8 0C7.39379 0 6.81241 0.25934 6.38376 0.720968C5.9551 1.1826 5.71429 1.8087 5.71429 2.46154C5.71429 3.11438 5.9551 3.74048 6.38376 4.20211C6.81241 4.66374 7.39379 4.92308 8 4.92308ZM4.57143 2.76923C4.57143 3.05208 4.5197 3.33216 4.41919 3.59347C4.31868 3.85479 4.17136 4.09223 3.98564 4.29223C3.79993 4.49223 3.57945 4.65088 3.3368 4.75913C3.09414 4.86737 2.83407 4.92308 2.57143 4.92308C2.30878 4.92308 2.04871 4.86737 1.80606 4.75913C1.56341 4.65088 1.34293 4.49223 1.15722 4.29223C0.971498 4.09223 0.824179 3.85479 0.72367 3.59347C0.62316 3.33216 0.571429 3.05208 0.571429 2.76923C0.571429 2.198 0.782143 1.65016 1.15722 1.24623C1.53229 0.842307 2.041 0.615385 2.57143 0.615385C3.10186 0.615385 3.61057 0.842307 3.98564 1.24623C4.36071 1.65016 4.57143 2.198 4.57143 2.76923ZM15.4286 2.76923C15.4286 3.05208 15.3768 3.33216 15.2763 3.59347C15.1758 3.85479 15.0285 4.09223 14.8428 4.29223C14.6571 4.49223 14.4366 4.65088 14.1939 4.75913C13.9513 4.86737 13.6912 4.92308 13.4286 4.92308C13.1659 4.92308 12.9059 4.86737 12.6632 4.75913C12.4206 4.65088 12.2001 4.49223 12.0144 4.29223C11.8286 4.09223 11.6813 3.85479 11.5808 3.59347C11.4803 3.33216 11.4286 3.05208 11.4286 2.76923C11.4286 2.198 11.6393 1.65016 12.0144 1.24623C12.3894 0.842307 12.8981 0.615385 13.4286 0.615385C13.959 0.615385 14.4677 0.842307 14.8428 1.24623C15.2179 1.65016 15.4286 2.198 15.4286 2.76923ZM4.21543 6.15385C3.89026 6.59006 3.71343 7.13293 3.71429 7.69231V12.3077C3.71429 13.0677 3.88457 13.7846 4.18686 14.4166C3.75135 14.6632 3.26409 14.7845 2.77227 14.7688C2.28045 14.7531 1.80074 14.6008 1.3796 14.3268C0.958467 14.0527 0.61018 13.6662 0.368479 13.2047C0.126777 12.7431 -0.000147264 12.2222 1.28224e-07 11.6923V7.69231C1.28224e-07 7.28428 0.15051 6.89297 0.418419 6.60445C0.686328 6.31593 1.04969 6.15385 1.42857 6.15385H4.21543ZM11.8131 14.4166C12.1247 13.7643 12.2867 13.0412 12.2857 12.3077V7.69231C12.2857 7.11015 12.0983 6.57539 11.7846 6.15385H14.5714C14.9503 6.15385 15.3137 6.31593 15.5816 6.60445C15.8495 6.89297 16 7.28428 16 7.69231V11.6923C16.0001 12.2222 15.8732 12.7431 15.6315 13.2047C15.3898 13.6662 15.0415 14.0527 14.6204 14.3268C14.1993 14.6008 13.7195 14.7531 13.2277 14.7688C12.7359 14.7845 12.2486 14.6632 11.8131 14.4166ZM6 6.15385C5.62112 6.15385 5.25776 6.31593 4.98985 6.60445C4.72194 6.89297 4.57143 7.28428 4.57143 7.69231V12.3077C4.57143 13.287 4.93265 14.2261 5.57563 14.9185C6.21862 15.611 7.09069 16 8 16C8.90931 16 9.78139 15.611 10.4244 14.9185C11.0673 14.2261 11.4286 13.287 11.4286 12.3077V7.69231C11.4286 7.28428 11.2781 6.89297 11.0102 6.60445C10.7422 6.31593 10.3789 6.15385 10 6.15385H6Z" fill="#F6B8FC"/>
</g>
</g>
</g>
<defs>
<filter id="filter0_b_1_3" x="-199.1" y="-193.1" width="558.2" height="402.2" filterUnits="userSpaceOnUse" color-interpolation-filters="sRGB">
<feFlood flood-opacity="0" result="BackgroundImageFix"/>
<feGaussianBlur in="BackgroundImageFix" stdDeviation="94.55"/>
<feComposite in2="SourceAlpha" operator="in" result="effect1_backgroundBlur_1_3"/>
<feBlend mode="normal" in="SourceGraphic" in2="effect1_backgroundBlur_1_3" result="shape"/>
</filter>
<linearGradient id="paint0_linear_1_3" x1="-10" y1="-4" x2="194.685" y2="28.24" gradientUnits="userSpaceOnUse">
<stop stop-color="#5A5A5A"/>
<stop offset="1" stop-color="#D9D9D9" stop-opacity="0.08"/>
</linearGradient>
<clipPath id="clip0_1_3">
<rect width="1440" height="1042" fill="white" transform="translate(-274 -884)"/>
</clipPath>
</defs>
</svg>
