<svg width="22" height="16" viewBox="0 0 22 16" fill="none" xmlns="http://www.w3.org/2000/svg">
<g clip-path="url(#clip0_955_10913)">
<path d="M7.9593 0L7.19922 0.37948C7.44442 1.11379 7.74045 1.99739 8.039 2.80227C8.35227 3.64682 8.67105 4.40139 8.90452 4.75105L8.92406 4.78033L9.16637 7.2H10.6013C10.3429 7.11601 10.1546 6.87267 10.1546 6.58773C10.1546 6.51126 10.1682 6.43779 10.193 6.36958C10.1674 6.32038 10.1424 6.26844 10.1174 6.21395C9.99724 5.95248 9.88968 5.62889 9.79791 5.29021C9.6377 4.69904 9.52591 4.06987 9.50003 3.64926C9.35853 3.41702 9.22575 3.15679 9.09837 2.8796C8.67538 1.95907 8.31367 0.852999 7.9593 0ZM13.6391 0C13.2848 0.853014 12.9231 1.95907 12.5001 2.8796C12.3727 3.15679 12.2399 3.41702 12.0984 3.64926C12.0725 4.06987 11.9607 4.69906 11.8005 5.29023C11.7088 5.62889 11.6012 5.95248 11.4811 6.21397C11.456 6.26844 11.431 6.32038 11.4054 6.36958C11.4309 6.4395 11.4439 6.51333 11.4438 6.58773C11.4438 6.87267 11.2555 7.11601 10.9971 7.2H12.4321L12.6744 4.78033L12.694 4.75105C12.9274 4.4014 13.2462 3.64682 13.5595 2.80227C13.858 1.99739 14.154 1.11379 14.3992 0.37948L13.6391 0ZM10.7992 1.20292C10.5054 1.20292 10.2328 1.36821 10.025 1.65874C9.81715 1.94927 9.68293 2.36167 9.68293 2.81993C9.68293 3.27819 9.81715 3.69059 10.025 3.98112C10.2328 4.27165 10.5054 4.43695 10.7992 4.43695C11.093 4.43695 11.3656 4.27165 11.5735 3.98112C11.7813 3.69059 11.9155 3.27819 11.9155 2.81993C11.9155 2.36167 11.7813 1.94927 11.5735 1.65874C11.3656 1.36821 11.093 1.20292 10.7992 1.20292ZM9.85923 4.22972C9.90938 4.53836 9.98111 4.8844 10.0711 5.21638C10.1601 5.54493 10.2648 5.85716 10.3746 6.0961C10.3756 6.0982 10.3766 6.10018 10.3775 6.10228C10.44 6.04799 10.5123 6.00619 10.5905 5.97914C10.4857 5.74759 10.3923 5.45532 10.3166 5.17195C10.2491 4.91919 10.1982 4.69322 10.1736 4.52053C10.0579 4.44239 9.95224 4.34385 9.85923 4.22973V4.22972ZM11.7392 4.22972C11.6462 4.34385 11.5405 4.44239 11.4248 4.52053C11.4002 4.69322 11.3493 4.91918 11.2818 5.17195C11.2061 5.45532 11.1127 5.74759 11.0079 5.97914C11.0861 6.00619 11.1584 6.04799 11.2209 6.10228C11.2219 6.10018 11.2229 6.0982 11.2238 6.0961C11.3336 5.85716 11.4383 5.54493 11.5274 5.21638C11.6173 4.8844 11.6891 4.53835 11.7392 4.22973V4.22972ZM10.4912 4.67336C10.5168 4.80131 10.55 4.94927 10.59 5.09917C10.6498 5.3228 10.7241 5.55743 10.7992 5.74828C10.8743 5.55743 10.9487 5.3228 11.0084 5.09917C11.0484 4.94927 11.0817 4.80132 11.1072 4.67336C11.0085 4.70334 10.9054 4.71953 10.7992 4.71953C10.693 4.71953 10.59 4.70334 10.4912 4.67336ZM10.7992 6.22665C10.5978 6.22665 10.4376 6.38663 10.4376 6.58773C10.4376 6.78884 10.5978 6.94881 10.7992 6.94881C11.0006 6.94881 11.1608 6.78884 11.1608 6.58773C11.1608 6.38663 11.0006 6.22665 10.7992 6.22665Z" fill="#F485FF"/>
<path d="M0.760083 3.2002L0 3.57968C0.245206 4.31399 0.541227 5.19758 0.839779 6.00247C1.15305 6.84702 1.47183 7.60158 1.7053 7.95125L1.72484 7.98053L1.96715 10.4002H3.40209C3.14371 10.3162 2.95538 10.0729 2.95538 9.78793C2.95538 9.71146 2.96898 9.63798 2.99382 9.56977C2.96823 9.52057 2.9432 9.46864 2.91817 9.41415C2.79802 9.15268 2.69046 8.82909 2.59869 8.49041C2.43848 7.89924 2.32669 7.27006 2.30081 6.84945C2.15931 6.61721 2.02654 6.35698 1.89915 6.0798C1.47616 5.15926 1.11445 4.05319 0.760083 3.2002ZM6.43992 3.2002C6.08554 4.05321 5.72384 5.15926 5.30083 6.0798C5.17348 6.35698 5.04069 6.61721 4.89919 6.84945C4.87332 7.27006 4.76152 7.89925 4.60133 8.49042C4.50954 8.82908 4.40198 9.15268 4.28185 9.41416C4.2568 9.46864 4.23177 9.52057 4.20618 9.56977C4.23165 9.63969 4.24466 9.71353 4.24462 9.78793C4.24462 10.0729 4.0563 10.3162 3.79791 10.4002H5.23285L5.47518 7.98053L5.49474 7.95125C5.72818 7.6016 6.04697 6.84702 6.36024 6.00247C6.65877 5.19758 6.95479 4.31399 7.2 3.57968L6.43992 3.2002ZM3.6 4.40311C3.3062 4.40311 3.0336 4.56841 2.82577 4.85894C2.61793 5.14947 2.48371 5.56187 2.48371 6.02013C2.48371 6.47839 2.61793 6.89079 2.82577 7.18132C3.0336 7.47184 3.3062 7.63714 3.6 7.63714C3.8938 7.63714 4.1664 7.47184 4.37423 7.18132C4.58207 6.89079 4.71629 6.47839 4.71629 6.02013C4.71629 5.56187 4.58207 5.14947 4.37423 4.85894C4.1664 4.56841 3.8938 4.40311 3.6 4.40311ZM2.66001 7.42991C2.71016 7.73856 2.78189 8.0846 2.87187 8.41657C2.96089 8.74513 3.06558 9.05735 3.17537 9.29629C3.17635 9.2984 3.17735 9.30037 3.17833 9.30248C3.24077 9.24819 3.31308 9.20638 3.39132 9.17933C3.28651 8.94779 3.19307 8.65551 3.1174 8.37214C3.04989 8.11939 2.99901 7.89341 2.97442 7.72072C2.85871 7.64259 2.75302 7.54404 2.66001 7.42993V7.42991ZM4.53999 7.42991C4.44698 7.54404 4.34128 7.64259 4.22558 7.72072C4.20097 7.89341 4.15011 8.11937 4.0826 8.37214C4.00693 8.65551 3.91349 8.94779 3.80868 9.17933C3.88692 9.20638 3.95923 9.24819 4.02167 9.30248C4.02265 9.30037 4.02366 9.2984 4.02463 9.29629C4.13442 9.05735 4.23911 8.74513 4.32815 8.41657C4.41811 8.0846 4.48984 7.73854 4.53999 7.42993V7.42991ZM3.29203 7.87355C3.31756 8.0015 3.35078 8.14947 3.39081 8.29936C3.45054 8.523 3.52489 8.75762 3.6 8.94848C3.67511 8.75762 3.74946 8.523 3.80919 8.29936C3.84922 8.14947 3.88245 8.00152 3.90797 7.87355C3.80923 7.90354 3.7062 7.91973 3.6 7.91973C3.4938 7.91973 3.39078 7.90354 3.29203 7.87355ZM3.6 9.42685C3.3986 9.42685 3.23839 9.58682 3.23839 9.78793C3.23839 9.98903 3.3986 10.149 3.6 10.149C3.8014 10.149 3.96161 9.98903 3.96161 9.78793C3.96161 9.58682 3.8014 9.42685 3.6 9.42685Z" fill="#F485FF"/>
<path d="M15.1605 4.7998L14.4004 5.17928C14.6456 5.9136 14.9416 6.79719 15.2402 7.60207C15.5534 8.44663 15.8722 9.20119 16.1057 9.55086L16.1252 9.58014L16.3675 11.9998H17.8025C17.5441 11.9158 17.3558 11.6725 17.3558 11.3875C17.3558 11.3111 17.3694 11.2376 17.3942 11.1694C17.3686 11.1202 17.3436 11.0682 17.3186 11.0138C17.1984 10.7523 17.0909 10.4287 16.9991 10.09C16.8389 9.49885 16.7271 8.86967 16.7012 8.44906C16.5597 8.21682 16.4269 7.95659 16.2995 7.67941C15.8765 6.75887 15.5148 5.6528 15.1605 4.7998ZM20.8403 4.7998C20.4859 5.65282 20.1242 6.75887 19.7012 7.67941C19.5739 7.95659 19.4411 8.21682 19.2996 8.44906C19.2737 8.86967 19.1619 9.49886 19.0017 10.09C18.9099 10.4287 18.8024 10.7523 18.6822 11.0138C18.6572 11.0682 18.6322 11.1202 18.6066 11.1694C18.632 11.2393 18.645 11.3131 18.645 11.3875C18.645 11.6725 18.4567 11.9158 18.1983 11.9998H19.6332L19.8756 9.58014L19.8951 9.55086C20.1286 9.20121 20.4474 8.44663 20.7606 7.60207C21.0592 6.79719 21.3552 5.9136 21.6004 5.17928L20.8403 4.7998ZM18.0004 6.00272C17.7066 6.00272 17.434 6.16802 17.2262 6.45855C17.0183 6.74908 16.8841 7.16148 16.8841 7.61974C16.8841 8.078 17.0183 8.4904 17.2262 8.78093C17.434 9.07145 17.7066 9.23675 18.0004 9.23675C18.2942 9.23675 18.5668 9.07145 18.7746 8.78093C18.9825 8.4904 19.1167 8.078 19.1167 7.61974C19.1167 7.16148 18.9825 6.74908 18.7746 6.45855C18.5668 6.16802 18.2942 6.00272 18.0004 6.00272ZM17.0604 9.02952C17.1106 9.33817 17.1823 9.68421 17.2723 10.0162C17.3613 10.3447 17.466 10.657 17.5758 10.8959C17.5767 10.898 17.5777 10.9 17.5787 10.9021C17.6412 10.8478 17.7135 10.806 17.7917 10.7789C17.6869 10.5474 17.5935 10.2551 17.5178 9.97175C17.4503 9.719 17.3994 9.49302 17.3748 9.32033C17.2591 9.2422 17.1534 9.14365 17.0604 9.02954V9.02952ZM18.9404 9.02952C18.8474 9.14365 18.7417 9.2422 18.626 9.32033C18.6014 9.49302 18.5505 9.71898 18.483 9.97175C18.4073 10.2551 18.3139 10.5474 18.2091 10.7789C18.2873 10.806 18.3596 10.8478 18.4221 10.9021C18.423 10.9 18.424 10.898 18.425 10.8959C18.5348 10.657 18.6395 10.3447 18.7285 10.0162C18.8185 9.68421 18.8902 9.33815 18.9404 9.02954V9.02952ZM17.6924 9.47316C17.718 9.60111 17.7512 9.74908 17.7912 9.89897C17.8509 10.1226 17.9253 10.3572 18.0004 10.5481C18.0755 10.3572 18.1498 10.1226 18.2096 9.89897C18.2496 9.74908 18.2828 9.60113 18.3084 9.47316C18.2096 9.50315 18.1066 9.51934 18.0004 9.51934C17.8942 9.51934 17.7912 9.50315 17.6924 9.47316ZM18.0004 11.0265C17.799 11.0265 17.6388 11.1864 17.6388 11.3875C17.6388 11.5886 17.799 11.7486 18.0004 11.7486C18.2018 11.7486 18.362 11.5886 18.362 11.3875C18.362 11.1864 18.2018 11.0265 18.0004 11.0265Z" fill="#F485FF"/>
<rect x="0.1" y="11.3002" width="7" height="4.6" fill="#F6B8FC" stroke="#F485FF" stroke-width="0.2"/>
<rect x="14.5004" y="12.8998" width="7" height="3" fill="#F6B8FC" stroke="#F485FF" stroke-width="0.2"/>
<rect x="7.29922" y="8.1" width="7" height="7.8" fill="#F6B8FC" stroke="#F485FF" stroke-width="0.2"/>
</g>
<defs>
<clipPath id="clip0_955_10913">
<rect width="21.6" height="16" fill="white"/>
</clipPath>
</defs>
</svg>
