<svg width="16" height="16" viewBox="0 0 16 16" fill="none" xmlns="http://www.w3.org/2000/svg">
<path d="M2.66667 1.71429C2.66667 0.767857 3.26389 0 4 0H12C12.7361 0 13.3333 0.767857 13.3333 1.71429V12.5714H2.66667V1.71429ZM11.3611 3.39286C11.1 3.05714 10.6778 3.05714 10.4194 3.39286L7.33611 7.35714L6.03056 5.67857C5.76944 5.34286 5.34722 5.34286 5.08889 5.67857C4.83056 6.01429 4.82778 6.55714 5.08889 6.88929L6.86667 9.175C7.12778 9.51071 7.55 9.51071 7.80833 9.175L11.3611 4.60714C11.6222 4.27143 11.6222 3.72857 11.3611 3.39643V3.39286ZM0 10.8571C0 9.91072 0.597222 9.14286 1.33333 9.14286H1.77778V13.7143H14.2222V9.14286H14.6667C15.4028 9.14286 16 9.91072 16 10.8571V14.2857C16 15.2321 15.4028 16 14.6667 16H1.33333C0.597222 16 0 15.2321 0 14.2857V10.8571Z" fill="#F485FF"/>
</svg>
