<svg width="42" height="42" viewBox="0 0 42 42" fill="none" xmlns="http://www.w3.org/2000/svg">
<circle cx="20.843" cy="20.549" r="20.549" fill="#01070E"/>
<path d="M22.6891 9.34951C23.546 9.34622 24.4028 9.35483 25.2594 9.37534L25.4872 9.38356C25.7502 9.39295 26.0097 9.40469 26.3232 9.41878C27.5725 9.47749 28.4249 9.67475 29.1729 9.96477C29.9478 10.263 30.6007 10.6669 31.2535 11.3198C31.8504 11.9064 32.3124 12.616 32.6073 13.3992C32.8973 14.1472 33.0946 15.0008 33.1533 16.2501C33.1674 16.5624 33.1791 16.8231 33.1885 17.0861L33.1956 17.3139C33.2164 18.1701 33.2254 19.0265 33.2226 19.883L33.2238 20.7589V22.297C33.2267 23.1539 33.2176 24.0107 33.1968 24.8673L33.1897 25.0951C33.1803 25.3581 33.1686 25.6176 33.1545 25.9311C33.0958 27.1804 32.8962 28.0328 32.6073 28.7808C32.3134 29.5649 31.8513 30.275 31.2535 30.8614C30.6664 31.4583 29.9564 31.9202 29.1729 32.2152C28.4249 32.5052 27.5725 32.7025 26.3232 32.7612C26.0097 32.7753 25.7502 32.787 25.4872 32.7964L25.2594 32.8035C24.4028 32.8244 23.546 32.8334 22.6891 32.8305L21.8132 32.8317H20.2762C19.4194 32.8346 18.5626 32.8256 17.706 32.8047L17.4782 32.7976C17.1994 32.7875 16.9208 32.7758 16.6422 32.7624C15.3929 32.7037 14.5404 32.5041 13.7913 32.2152C13.0078 31.9209 12.298 31.4589 11.7118 30.8614C11.1143 30.2747 10.6518 29.5646 10.3569 28.7808C10.0668 28.0328 9.86958 27.1804 9.81087 25.9311C9.7978 25.6525 9.78605 25.3738 9.77565 25.0951L9.76978 24.8673C9.74813 24.0107 9.73834 23.1539 9.74042 22.297V19.883C9.73715 19.0265 9.74576 18.1701 9.76626 17.3139L9.77447 17.0861C9.78387 16.8231 9.79561 16.5624 9.8097 16.2501C9.86841 14.9996 10.0657 14.1483 10.3557 13.3992C10.6508 12.6156 11.1142 11.9062 11.713 11.3209C12.2988 10.723 13.0081 10.2602 13.7913 9.96477C14.5404 9.67475 15.3917 9.47749 16.6422 9.41878L17.4782 9.38356L17.706 9.37769C18.5622 9.35605 19.4186 9.34626 20.275 9.34833L22.6891 9.34951ZM21.4821 15.2203C20.7042 15.2093 19.9319 15.353 19.2101 15.6431C18.4882 15.9332 17.8312 16.3638 17.2772 16.91C16.7232 17.4562 16.2834 18.1071 15.9831 18.8248C15.6829 19.5424 15.5282 20.3126 15.5282 21.0906C15.5282 21.8685 15.6829 22.6387 15.9831 23.3564C16.2834 24.0741 16.7232 24.7249 17.2772 25.2711C17.8312 25.8173 18.4882 26.248 19.2101 26.5381C19.9319 26.8281 20.7042 26.9718 21.4821 26.9608C23.0391 26.9608 24.5324 26.3423 25.6334 25.2413C26.7344 24.1403 27.3529 22.647 27.3529 21.09C27.3529 19.533 26.7344 18.0397 25.6334 16.9387C24.5324 15.8377 23.0391 15.2203 21.4821 15.2203ZM21.4821 17.5687C21.95 17.5601 22.4149 17.6448 22.8498 17.8178C23.2846 17.9909 23.6805 18.2489 24.0145 18.5767C24.3485 18.9046 24.6138 19.2957 24.7949 19.7272C24.9761 20.1587 25.0694 20.622 25.0695 21.09C25.0696 21.558 24.9764 22.0213 24.7954 22.4529C24.6144 22.8845 24.3492 23.2756 24.0153 23.6036C23.6815 23.9315 23.2856 24.1896 22.8508 24.3629C22.4161 24.5361 21.9512 24.621 21.4833 24.6125C20.549 24.6125 19.6531 24.2414 18.9925 23.5808C18.3319 22.9202 17.9608 22.0242 17.9608 21.09C17.9608 20.1558 18.3319 19.2598 18.9925 18.5992C19.6531 17.9386 20.549 17.5675 21.4833 17.5675L21.4821 17.5687ZM27.6465 13.4591C27.2677 13.4742 26.9094 13.6354 26.6468 13.9088C26.3841 14.1821 26.2375 14.5465 26.2375 14.9256C26.2375 15.3047 26.3841 15.6691 26.6468 15.9425C26.9094 16.2159 27.2677 16.377 27.6465 16.3922C28.0357 16.3922 28.409 16.2375 28.6843 15.9623C28.9595 15.687 29.1142 15.3137 29.1142 14.9244C29.1142 14.5352 28.9595 14.1619 28.6843 13.8866C28.409 13.6114 28.0357 13.4567 27.6465 13.4567V13.4591Z" fill="#F6B8FC"/>
</svg>
