<svg width="42" height="42" viewBox="0 0 42 42" fill="none" xmlns="http://www.w3.org/2000/svg">
<circle cx="20.549" cy="20.549" r="20.549" fill="#01070E"/>
<g clip-path="url(#clip0_119_8018)">
<path d="M32.4585 13.1452V28.7702C32.4585 29.657 31.7827 30.3327 30.896 30.3327H29.3335V16.1523L19.9585 22.8867L10.5835 16.1523V30.3327H9.021C8.13428 30.3327 7.4585 29.657 7.4585 28.7702V13.1452C7.4585 12.7015 7.62568 12.3109 7.90615 12.0343C8.05222 11.8882 8.22619 11.7729 8.41771 11.6953C8.60923 11.6177 8.81439 11.5794 9.021 11.5827H9.54209L19.9585 19.1351L30.3749 11.5827H30.896C31.3397 11.5827 31.7304 11.7499 32.0108 12.0343C32.2913 12.3109 32.4585 12.7015 32.4585 13.1452Z" fill="#F6B8FC"/>
</g>
<defs>
<clipPath id="clip0_119_8018">
<rect width="25" height="25" fill="white" transform="translate(7.4585 8.45801)"/>
</clipPath>
</defs>
</svg>
