<svg width="28" height="28" viewBox="0 0 28 28" fill="none" xmlns="http://www.w3.org/2000/svg">
<g clip-path="url(#clip0_209_11104)">
<path d="M26.53 19.0473L23.4811 13.8985L26.4989 8.95957C26.5705 8.84187 26.6096 8.70726 26.6122 8.56949C26.6147 8.43173 26.5806 8.29576 26.5134 8.1755C26.4461 8.05524 26.3481 7.955 26.2294 7.88504C26.1107 7.81508 25.9756 7.77792 25.8378 7.77734H1.55556C1.143 7.77734 0.747335 7.94123 0.455612 8.23296C0.163888 8.52468 0 8.92034 0 9.3329L0 18.6662C0 19.0788 0.163888 19.4745 0.455612 19.7662C0.747335 20.0579 1.143 20.2218 1.55556 20.2218H25.8611C25.9984 20.2218 26.1332 20.1854 26.2519 20.1164C26.3706 20.0474 26.4689 19.9482 26.5368 19.8289C26.6048 19.7096 26.6399 19.5745 26.6387 19.4372C26.6375 19.2999 26.6 19.1654 26.53 19.0473ZM8.17445 16.4729H7.30333L4.76778 13.0973V16.4807H3.88889V11.6662H4.76778L7.31111 15.0496V11.6662H8.18222L8.17445 16.4729ZM13.0978 12.444H10.3522V13.6029H12.8411V14.3807H10.3522V15.6329H13.0978V16.4107H9.47333V11.6662H13.09L13.0978 12.444ZM19.5456 16.4573H18.6667L17.4611 12.8873L16.2556 16.4729H15.3844L13.8289 11.6662H14.7778L15.8044 15.1118L16.9867 11.6662H17.9356L19.0711 15.1118L20.1056 11.6662H21.0622L19.5456 16.4573Z" fill="#EFEFEF"/>
</g>
<defs>
<clipPath id="clip0_209_11104">
<rect width="28" height="28" fill="white"/>
</clipPath>
</defs>
</svg>
