<svg width="28" height="28" viewBox="0 0 28 28" fill="none" xmlns="http://www.w3.org/2000/svg">
<path d="M19.8332 14.0003C16.6132 14.0003 13.9998 16.6137 13.9998 19.8337C13.9998 23.0537 16.6132 25.667 19.8332 25.667C23.0532 25.667 25.6665 23.0537 25.6665 19.8337C25.6665 16.6137 23.0532 14.0003 19.8332 14.0003ZM21.7582 22.5753L19.2498 20.067V16.3337H20.4165V19.5887L22.5748 21.747L21.7582 22.5753ZM23.3332 3.50033H17.2898C16.7998 2.14699 15.5165 1.16699 13.9998 1.16699C12.4832 1.16699 11.1998 2.14699 10.7098 3.50033H4.6665V25.667H14.1282C13.4379 24.997 12.8764 24.2062 12.4715 23.3337H6.99984V5.83366H9.33317V9.33366H18.6665V5.83366H20.9998V11.7603C21.8282 11.877 22.6098 12.122 23.3332 12.4603V3.50033ZM13.9998 5.83366C13.3582 5.83366 12.8332 5.30866 12.8332 4.66699C12.8332 4.02533 13.3582 3.50033 13.9998 3.50033C14.6415 3.50033 15.1665 4.02533 15.1665 4.66699C15.1665 5.30866 14.6415 5.83366 13.9998 5.83366Z" fill="#EFEFEF"/>
</svg>
