<svg width="64" height="64" viewBox="0 0 64 64" fill="none" xmlns="http://www.w3.org/2000/svg">
<path d="M44.656 26.521V17.824C44.6534 17.652 44.6083 17.4833 44.5245 17.333C44.4407 17.1828 44.321 17.0556 44.176 16.963L54 2H35.164L32 6.747L28.836 2H10L19.822 16.961C19.677 17.0536 19.5573 17.1808 19.4735 17.331C19.3897 17.4813 19.3446 17.65 19.342 17.822V26.519C14.861 30.188 12 35.759 12 42.001C12 53.046 20.955 62 32 62C32.682 62 33.354 61.965 34.018 61.898C44.115 60.888 52 52.366 52 42.001C52 35.759 49.137 30.188 44.656 26.521ZM40.826 3H47.154L38.328 16.24L35.164 11.494L40.826 3ZM41.492 20.987L42.465 19.528C42.518 19.653 42.547 19.788 42.547 19.932V24.151C42.5463 24.2814 42.5196 24.4103 42.4687 24.5303C42.4177 24.6503 42.3433 24.759 42.25 24.85C39.25 23.053 35.752 22 32 22C28.3869 22.0004 24.8423 22.9865 21.748 24.852C21.5606 24.6665 21.4539 24.4146 21.451 24.151V19.932C21.451 19.787 21.482 19.651 21.533 19.528L22.506 20.987H41.492ZM16.846 3H23.174L34.498 19.987H28.17L16.846 3ZM32 59.001C22.611 59.001 15 51.39 15 42.001C15 32.612 22.611 25.001 32 25.001C41.387 25.001 49 32.612 49 42.001C49 51.39 41.387 59.001 32 59.001Z" fill="url(#paint0_linear_1009_13124)"/>
<path d="M32.2359 26.5479C23.5699 26.5479 16.5449 33.5848 16.5449 42.2648C16.5449 44.8548 17.1819 47.2899 18.2889 49.4448C17.7132 47.6909 17.4192 45.8568 17.4179 44.0109C17.4179 34.8079 24.5269 27.2859 33.5449 26.6149C33.1097 26.5743 32.673 26.5519 32.2359 26.5479ZM38.5329 55.1398C37.0017 56.1681 35.3185 56.9496 33.5449 57.4559C36.0217 57.1529 38.3919 56.2696 40.4629 54.8778C47.6659 50.0358 49.6209 40.3778 44.8319 33.3018C44.5864 32.9483 44.3272 32.6043 44.0549 32.2709C48.4799 40.0069 46.1679 50.0068 38.5329 55.1398Z" fill="url(#paint1_linear_1009_13124)"/>
<path d="M38.875 46.1689C38.875 44.8639 38.52 43.7529 37.81 42.8319C37.099 41.9109 36.151 41.3179 34.965 41.0539C36.95 39.9269 37.944 38.4179 37.944 36.5279C37.944 35.1949 37.459 34.0019 36.49 32.9429C35.314 31.6479 33.751 31.0029 31.803 31.0029C30.664 31.0029 29.636 31.2259 28.719 31.6719C27.8 32.1169 27.085 32.7299 26.573 33.5089C26.06 34.2869 25.677 35.3279 25.423 36.6319L29.078 37.2779C29.182 36.3369 29.474 35.6229 29.954 35.1319C30.1767 34.8959 30.446 34.7088 30.7448 34.5824C31.0437 34.4561 31.3656 34.3932 31.69 34.3979C32.377 34.3979 32.928 34.6139 33.342 35.0449C33.756 35.4749 33.963 36.0529 33.963 36.7779C33.963 37.6309 33.68 38.3139 33.115 38.8279C32.551 39.3429 31.731 39.5859 30.658 39.5569L30.22 42.9219C30.926 42.7159 31.533 42.6129 32.042 42.6129C32.813 42.6129 33.467 42.9159 34.004 43.5239C34.541 44.1299 34.81 44.9539 34.81 45.9919C34.81 47.0909 34.53 47.9619 33.969 48.6089C33.408 49.2549 32.719 49.5789 31.901 49.5789C31.138 49.5789 30.489 49.3079 29.953 48.7699C29.417 48.2319 29.088 47.4519 28.965 46.4319L25.125 46.9179C25.323 48.7299 26.038 50.1959 27.271 51.3189C28.504 52.4399 30.057 53.0019 31.93 53.0019C33.906 53.0019 35.557 52.3349 36.885 51.0029C38.212 49.6709 38.875 48.0599 38.875 46.1689Z" fill="url(#paint2_linear_1009_13124)"/>
<defs>
<linearGradient id="paint0_linear_1009_13124" x1="43.9506" y1="-40.2222" x2="8.27196" y2="50.0448" gradientUnits="userSpaceOnUse">
<stop stop-color="#B33283"/>
<stop offset="0.838542" stop-color="#96C2FB"/>
</linearGradient>
<linearGradient id="paint1_linear_1009_13124" x1="40.3943" y1="4.79777" x2="26.0187" y2="54.3951" gradientUnits="userSpaceOnUse">
<stop stop-color="#B33283"/>
<stop offset="0.838542" stop-color="#96C2FB"/>
</linearGradient>
<linearGradient id="paint2_linear_1009_13124" x1="35.7346" y1="15.5222" x2="21.1294" y2="47.016" gradientUnits="userSpaceOnUse">
<stop stop-color="#B33283"/>
<stop offset="0.838542" stop-color="#96C2FB"/>
</linearGradient>
</defs>
</svg>
