<svg width="64" height="64" viewBox="0 0 64 64" fill="none" xmlns="http://www.w3.org/2000/svg">
<path d="M44.656 26.519V17.821C44.656 17.457 44.457 17.151 44.176 16.961L54 2H35.164L32 6.746L28.836 2H10L19.822 16.96C19.541 17.15 19.342 17.457 19.342 17.821V26.519C14.861 30.187 12 35.758 12 42C12 53.045 20.955 62 32 62C32.682 62 33.354 61.965 34.018 61.898C44.115 60.887 52 52.365 52 42C52 35.758 49.137 30.187 44.656 26.519ZM40.826 3H47.154L38.328 16.239L35.164 11.493L40.826 3ZM41.492 20.985L42.465 19.527C42.518 19.652 42.547 19.788 42.547 19.931V24.15C42.5461 24.2805 42.5194 24.4095 42.4684 24.5297C42.4174 24.6498 42.3432 24.7587 42.25 24.85C39.25 23.052 35.752 22 32 22C28.387 22.0006 24.8426 22.9863 21.748 24.851C21.5604 24.6656 21.4537 24.4137 21.451 24.15V19.931C21.451 19.788 21.482 19.651 21.533 19.527L22.506 20.986L41.492 20.985ZM16.846 3H23.174L34.498 19.985H28.17L16.846 3ZM32 59C22.611 59 15 51.389 15 42C15 32.612 22.611 25 32 25C41.387 25 49 32.612 49 42C49 51.389 41.387 59 32 59Z" fill="black"/>
<path d="M44.656 26.519V17.821C44.656 17.457 44.457 17.151 44.176 16.961L54 2H35.164L32 6.746L28.836 2H10L19.822 16.96C19.541 17.15 19.342 17.457 19.342 17.821V26.519C14.861 30.187 12 35.758 12 42C12 53.045 20.955 62 32 62C32.682 62 33.354 61.965 34.018 61.898C44.115 60.887 52 52.365 52 42C52 35.758 49.137 30.187 44.656 26.519ZM40.826 3H47.154L38.328 16.239L35.164 11.493L40.826 3ZM41.492 20.985L42.465 19.527C42.518 19.652 42.547 19.788 42.547 19.931V24.15C42.5461 24.2805 42.5194 24.4095 42.4684 24.5297C42.4174 24.6498 42.3432 24.7587 42.25 24.85C39.25 23.052 35.752 22 32 22C28.387 22.0006 24.8426 22.9863 21.748 24.851C21.5604 24.6656 21.4537 24.4137 21.451 24.15V19.931C21.451 19.788 21.482 19.651 21.533 19.527L22.506 20.986L41.492 20.985ZM16.846 3H23.174L34.498 19.985H28.17L16.846 3ZM32 59C22.611 59 15 51.389 15 42C15 32.612 22.611 25 32 25C41.387 25 49 32.612 49 42C49 51.389 41.387 59 32 59Z" fill="url(#paint0_linear_1004_11122)"/>
<path d="M32.2359 26.5459C23.5699 26.5459 16.5449 33.5819 16.5449 42.2639C16.5449 44.8539 17.1819 47.2889 18.2889 49.4419C17.713 47.6887 17.419 45.8552 17.4179 44.0099C17.4179 34.8069 24.5269 27.2849 33.5449 26.6129C33.1097 26.5724 32.673 26.55 32.2359 26.5459ZM38.5329 55.1389C37.0008 56.1656 35.3179 56.947 33.5449 57.4549C36.0212 57.1501 38.391 56.2669 40.4629 54.8769C47.6659 50.0349 49.6209 40.3769 44.8299 33.3009C44.5859 32.9409 44.3219 32.6029 44.0529 32.2699C48.4799 40.0059 46.1699 50.0059 38.5329 55.1389Z" fill="black"/>
<path d="M32.2359 26.5459C23.5699 26.5459 16.5449 33.5819 16.5449 42.2639C16.5449 44.8539 17.1819 47.2889 18.2889 49.4419C17.713 47.6887 17.419 45.8552 17.4179 44.0099C17.4179 34.8069 24.5269 27.2849 33.5449 26.6129C33.1097 26.5724 32.673 26.55 32.2359 26.5459ZM38.5329 55.1389C37.0008 56.1656 35.3179 56.947 33.5449 57.4549C36.0212 57.1501 38.391 56.2669 40.4629 54.8769C47.6659 50.0349 49.6209 40.3769 44.8299 33.3009C44.5859 32.9409 44.3219 32.6029 44.0529 32.2699C48.4799 40.0059 46.1699 50.0059 38.5329 55.1389Z" fill="url(#paint1_linear_1004_11122)"/>
<path d="M38.4478 49.207H29.3438V46.932C29.344 46.1273 29.6638 45.3556 30.2327 44.7866C30.8015 44.2175 31.5731 43.8975 32.3778 43.897C33.1748 43.8972 33.964 43.7405 34.7004 43.4356C35.4367 43.1308 36.1058 42.6839 36.6694 42.1203C37.233 41.5568 37.6801 40.8878 37.9851 40.1515C38.29 39.4152 38.4469 38.626 38.4468 37.829C38.4468 34.872 36.9468 31.001 31.6198 31.001C28.0708 31.001 25.5508 33.696 25.5508 37.829H29.3438C29.3438 36.268 30.5208 34.827 32.0458 34.827C33.8618 34.827 34.6538 36.022 34.6538 37.071C34.6535 37.8755 34.3337 38.6469 33.7648 39.2157C33.1958 39.7845 32.4243 40.104 31.6198 40.104C30.8227 40.104 30.0334 40.261 29.297 40.566C28.5607 40.8711 27.8916 41.3182 27.328 41.8819C26.7644 42.4456 26.3174 43.1147 26.0125 43.8512C25.7075 44.5876 25.5506 45.3769 25.5508 46.174V53H38.4468L38.4478 49.207Z" fill="black"/>
<path d="M38.4478 49.207H29.3438V46.932C29.344 46.1273 29.6638 45.3556 30.2327 44.7866C30.8015 44.2175 31.5731 43.8975 32.3778 43.897C33.1748 43.8972 33.964 43.7405 34.7004 43.4356C35.4367 43.1308 36.1058 42.6839 36.6694 42.1203C37.233 41.5568 37.6801 40.8878 37.9851 40.1515C38.29 39.4152 38.4469 38.626 38.4468 37.829C38.4468 34.872 36.9468 31.001 31.6198 31.001C28.0708 31.001 25.5508 33.696 25.5508 37.829H29.3438C29.3438 36.268 30.5208 34.827 32.0458 34.827C33.8618 34.827 34.6538 36.022 34.6538 37.071C34.6535 37.8755 34.3337 38.6469 33.7648 39.2157C33.1958 39.7845 32.4243 40.104 31.6198 40.104C30.8227 40.104 30.0334 40.261 29.297 40.566C28.5607 40.8711 27.8916 41.3182 27.328 41.8819C26.7644 42.4456 26.3174 43.1147 26.0125 43.8512C25.7075 44.5876 25.5506 45.3769 25.5508 46.174V53H38.4468L38.4478 49.207Z" fill="url(#paint2_linear_1004_11122)"/>
<defs>
<linearGradient id="paint0_linear_1004_11122" x1="43.9506" y1="-40.2222" x2="8.27196" y2="50.0448" gradientUnits="userSpaceOnUse">
<stop stop-color="#B33283"/>
<stop offset="0.838542" stop-color="#96C2FB"/>
</linearGradient>
<linearGradient id="paint1_linear_1004_11122" x1="40.3939" y1="4.79512" x2="26.0172" y2="54.3937" gradientUnits="userSpaceOnUse">
<stop stop-color="#B33283"/>
<stop offset="0.838542" stop-color="#96C2FB"/>
</linearGradient>
<linearGradient id="paint2_linear_1004_11122" x1="35.5022" y1="15.5202" x2="20.2987" y2="46.2703" gradientUnits="userSpaceOnUse">
<stop stop-color="#B33283"/>
<stop offset="0.838542" stop-color="#96C2FB"/>
</linearGradient>
</defs>
</svg>
