<svg width="64" height="64" viewBox="0 0 64 64" fill="none" xmlns="http://www.w3.org/2000/svg">
<path d="M33.5449 26.6129C33.1097 26.5724 32.673 26.5501 32.2359 26.5459C23.5679 26.5459 16.5449 33.5819 16.5449 42.2639C16.5449 44.8539 17.1819 47.2889 18.2889 49.4419C17.7117 47.6897 17.417 45.8568 17.4159 44.0119C17.4159 34.8069 24.5269 27.2829 33.5449 26.6129ZM38.5329 55.1389C37.0006 56.1652 35.3178 56.9466 33.5449 57.4549C36.0212 57.1501 38.391 56.2669 40.4629 54.8769C47.6659 50.0349 49.6209 40.3769 44.8299 33.2989C44.5855 32.9455 44.3263 32.6025 44.0529 32.2709C48.4799 40.0039 46.1679 50.0059 38.5329 55.1389Z" fill="url(#paint0_linear_1009_13086)"/>
<path d="M44.656 26.519V17.821C44.656 17.457 44.457 17.151 44.176 16.961L54 2H35.164L32 6.746L28.836 2H10L19.822 16.96C19.541 17.15 19.342 17.457 19.342 17.821V26.519C14.861 30.187 12 35.758 12 42C12 53.045 20.955 62 32 62C32.682 62 33.354 61.965 34.018 61.898C44.115 60.887 52 52.365 52 42C52 35.758 49.137 30.187 44.656 26.519ZM40.826 3H47.154L38.328 16.239L35.164 11.493L40.826 3ZM41.492 20.985L42.465 19.527C42.518 19.652 42.547 19.788 42.547 19.931V24.15C42.5461 24.2805 42.5194 24.4095 42.4684 24.5297C42.4174 24.6498 42.3432 24.7587 42.25 24.85C39.25 23.052 35.752 22 32 22C28.387 22.0006 24.8426 22.9863 21.748 24.851C21.5604 24.6656 21.4537 24.4137 21.451 24.15V19.931C21.451 19.788 21.482 19.651 21.533 19.527L22.506 20.986L41.492 20.985ZM16.846 3H23.174L34.498 19.985H28.17L16.846 3ZM32 59C22.611 59 15 51.389 15 42C15 32.612 22.611 25 32 25C41.387 25 49 32.612 49 42C49 51.389 41.387 59 32 59Z" fill="url(#paint1_linear_1009_13086)"/>
<path d="M34.2335 49.207V31H30.3895C30.3896 31.3985 30.3112 31.7932 30.1588 32.1614C30.0064 32.5296 29.7829 32.8642 29.5012 33.146C29.2194 33.4278 28.8849 33.6514 28.5168 33.804C28.1486 33.9565 27.754 34.035 27.3555 34.035V37.828C27.6295 37.828 29.7005 37.672 30.3895 37.396V49.207H27.3555V53H37.2675V49.207H34.2335Z" fill="url(#paint2_linear_1009_13086)"/>
<defs>
<linearGradient id="paint0_linear_1009_13086" x1="40.3939" y1="4.79512" x2="26.0172" y2="54.3937" gradientUnits="userSpaceOnUse">
<stop stop-color="#B33283"/>
<stop offset="0.838542" stop-color="#96C2FB"/>
</linearGradient>
<linearGradient id="paint1_linear_1009_13086" x1="43.9506" y1="-40.2222" x2="8.27196" y2="50.0448" gradientUnits="userSpaceOnUse">
<stop stop-color="#B33283"/>
<stop offset="0.838542" stop-color="#96C2FB"/>
</linearGradient>
<linearGradient id="paint2_linear_1009_13086" x1="35.0036" y1="15.5185" x2="17.5907" y2="42.5848" gradientUnits="userSpaceOnUse">
<stop stop-color="#B33283"/>
<stop offset="0.838542" stop-color="#96C2FB"/>
</linearGradient>
</defs>
</svg>
