<svg width="264" height="190" viewBox="0 0 264 190" fill="none" xmlns="http://www.w3.org/2000/svg">
<path d="M2.5 2.5H261.5V187.5H41.9477C20.1613 187.5 2.5 169.839 2.5 148.052V2.5Z" stroke="url(#paint0_linear_490_13348)" stroke-width="5" stroke-linejoin="round"/>
<path d="M84.1665 127.325V103.964C81.5065 102.642 79.7332 99.5563 79.7332 96.4708V78.8396C79.7332 75.7542 81.5065 73.1095 84.1665 71.3464V70.0241C84.1665 65.1755 80.1765 61.2085 75.2999 61.2085C70.4233 61.2085 66.4333 65.1755 66.4333 70.0241C66.4333 74.8726 70.4233 78.8396 75.2999 78.8396H66.4333C64.2166 78.8396 62 81.0435 62 83.2474V100.879C62 103.082 64.2166 105.286 66.4333 105.286V127.325H84.1665ZM128.499 78.8396H119.633C124.509 78.8396 128.499 74.8726 128.499 70.0241C128.499 65.1755 124.509 61.2085 119.633 61.2085C114.756 61.2085 110.766 65.1755 110.766 70.0241V71.3464C113.426 73.1095 115.199 75.7542 115.199 78.8396V96.4708C115.199 99.5563 113.426 102.642 110.766 103.964V127.325H128.499V105.286C130.716 105.286 132.933 103.082 132.933 100.879V83.2474C132.933 81.0435 130.716 78.8396 128.499 78.8396ZM106.333 65.6163C106.36 66.7902 106.15 67.9577 105.717 69.0501C105.283 70.1424 104.635 71.1377 103.809 71.9775C102.984 72.8172 101.998 73.4846 100.909 73.9403C99.821 74.396 98.6519 74.6309 97.4708 74.6312C96.2897 74.6315 95.1205 74.3971 94.0318 73.942C92.9431 73.4868 91.9568 72.82 91.1308 71.9806C90.3049 71.1413 89.6559 70.1463 89.222 69.0542C88.7881 67.962 88.5781 66.7947 88.6042 65.6207C88.6554 63.3173 89.6115 61.1255 91.2679 59.5143C92.9242 57.9031 95.1491 57.0006 97.4664 57C99.7836 56.9994 102.009 57.9008 103.666 59.5112C105.323 61.1216 106.281 63.313 106.333 65.6163Z" fill="black"/>
<path d="M84.1665 127.325V103.964C81.5065 102.642 79.7332 99.5563 79.7332 96.4708V78.8396C79.7332 75.7542 81.5065 73.1095 84.1665 71.3464V70.0241C84.1665 65.1755 80.1765 61.2085 75.2999 61.2085C70.4233 61.2085 66.4333 65.1755 66.4333 70.0241C66.4333 74.8726 70.4233 78.8396 75.2999 78.8396H66.4333C64.2166 78.8396 62 81.0435 62 83.2474V100.879C62 103.082 64.2166 105.286 66.4333 105.286V127.325H84.1665ZM128.499 78.8396H119.633C124.509 78.8396 128.499 74.8726 128.499 70.0241C128.499 65.1755 124.509 61.2085 119.633 61.2085C114.756 61.2085 110.766 65.1755 110.766 70.0241V71.3464C113.426 73.1095 115.199 75.7542 115.199 78.8396V96.4708C115.199 99.5563 113.426 102.642 110.766 103.964V127.325H128.499V105.286C130.716 105.286 132.933 103.082 132.933 100.879V83.2474C132.933 81.0435 130.716 78.8396 128.499 78.8396ZM106.333 65.6163C106.36 66.7902 106.15 67.9577 105.717 69.0501C105.283 70.1424 104.635 71.1377 103.809 71.9775C102.984 72.8172 101.998 73.4846 100.909 73.9403C99.821 74.396 98.6519 74.6309 97.4708 74.6312C96.2897 74.6315 95.1205 74.3971 94.0318 73.942C92.9431 73.4868 91.9568 72.82 91.1308 71.9806C90.3049 71.1413 89.6559 70.1463 89.222 69.0542C88.7881 67.962 88.5781 66.7947 88.6042 65.6207C88.6554 63.3173 89.6115 61.1255 91.2679 59.5143C92.9242 57.9031 95.1491 57.0006 97.4664 57C99.7836 56.9994 102.009 57.9008 103.666 59.5112C105.323 61.1216 106.281 63.313 106.333 65.6163Z" fill="url(#paint1_linear_490_13348)"/>
<path d="M106.332 74.4319H88.5993C86.3827 74.4319 84.166 76.6358 84.166 78.8397V96.4708C84.166 98.6747 86.3827 100.879 88.5993 100.879V127.325H106.332V100.879C108.549 100.879 110.766 98.6747 110.766 96.4708V78.8397C110.766 76.6358 108.549 74.4319 106.332 74.4319Z" fill="black"/>
<path d="M106.332 74.4319H88.5993C86.3827 74.4319 84.166 76.6358 84.166 78.8397V96.4708C84.166 98.6747 86.3827 100.879 88.5993 100.879V127.325H106.332V100.879C108.549 100.879 110.766 98.6747 110.766 96.4708V78.8397C110.766 76.6358 108.549 74.4319 106.332 74.4319Z" fill="url(#paint2_linear_490_13348)"/>
<path d="M154.987 66.0996C152.588 66.0996 150.436 66.5911 148.983 67.314C147.544 68.0368 146.991 68.8463 146.991 69.4246C146.991 69.9884 147.544 70.8139 148.983 71.5208C150.436 72.2436 152.588 72.7496 154.987 72.7496C157.386 72.7496 159.538 72.2436 160.977 71.5208C162.431 70.8139 162.984 69.9884 162.984 69.4246C162.984 68.8463 162.431 68.0368 160.977 67.314C159.538 66.5911 157.386 66.0996 154.987 66.0996ZM178.251 70.7257C175.852 70.7257 173.7 71.2172 172.26 71.94C170.806 72.6628 170.254 73.4724 170.254 74.0507C170.254 74.6145 170.806 75.4399 172.26 76.1468C173.7 76.8697 175.852 77.3742 178.251 77.3742C178.92 77.3742 179.56 77.3308 180.17 77.2585C180.795 76.4649 181.682 75.7609 182.715 75.2925C183.907 74.7576 185.288 74.3239 186.248 74.0507C186.248 73.4724 185.695 72.6628 184.241 71.94C182.802 71.2172 180.65 70.7257 178.251 70.7257ZM146.991 73.3842C146.933 75.5035 149.242 76.368 150.697 76.7959C153.3 77.5477 156.673 77.5477 159.276 76.7959C161.137 76.2668 162.969 75.2462 162.984 73.3842C160.643 74.9209 157.226 75.3344 154.987 75.3503C152.151 75.1147 149.174 74.8226 146.991 73.3842ZM189.883 76.4071C187.484 76.4071 185.332 76.8986 183.892 77.6344C182.438 78.3428 181.886 79.1668 181.886 79.7306C181.886 80.3089 182.438 81.1184 183.892 81.8412C185.332 82.5641 187.484 83.0556 189.883 83.0556C192.282 83.0556 194.434 82.5641 195.874 81.8412C197.328 81.1184 197.88 80.3089 197.88 79.7306C197.88 79.1668 197.328 78.3428 195.874 77.6344C194.434 76.8986 192.282 76.4071 189.883 76.4071ZM170.254 78.0103V78.3572C170.676 78.5018 171.083 78.6753 171.461 78.8632C172.769 79.5138 173.903 80.4245 174.485 81.5666C175.968 81.928 177.64 82.0581 179.269 81.9569V79.9474C178.934 79.9619 178.6 79.9764 178.251 79.9764C175.503 79.9764 173.002 79.4415 171.083 78.4873C170.792 78.3428 170.516 78.1838 170.254 78.0103ZM146.991 78.0247C146.942 80.1354 149.248 81.0028 150.697 81.4365C151.686 81.7111 152.791 81.8991 153.925 81.9569C154.216 81.2052 154.74 80.5402 155.408 79.9764C153.547 80.0197 151.672 79.7884 149.97 79.3114C148.838 78.9789 147.835 78.5596 146.991 78.0247ZM164.292 79.9764C161.893 79.9764 159.741 80.4823 158.302 81.1907C156.848 81.9135 156.295 82.7231 156.295 83.3013C156.295 83.8796 156.848 84.6892 158.302 85.412C159.741 86.1348 161.893 86.6263 164.292 86.6263C166.692 86.6263 168.844 86.1348 170.283 85.412C171.737 84.6892 172.29 83.8796 172.29 83.3013C172.29 82.7231 171.737 81.9135 170.283 81.1907C168.844 80.4823 166.692 79.9764 164.292 79.9764ZM146.991 82.6508C146.942 84.7614 149.248 85.6288 150.697 86.0625C151.613 86.3227 152.631 86.4962 153.678 86.5685V84.5735C152.399 84.4868 151.148 84.2699 149.97 83.9374C148.838 83.6049 147.835 83.1857 146.991 82.6508ZM181.886 83.7061C181.857 85.8312 184.125 86.6842 185.594 87.1178C188.196 87.8696 191.57 87.8696 194.172 87.1178C196.019 86.583 197.866 85.571 197.88 83.7061C197.618 83.8651 197.342 84.0242 197.051 84.1687C195.132 85.1229 192.631 85.6577 189.883 85.6577C187.135 85.6577 184.634 85.1229 182.715 84.1687C182.424 84.0242 182.148 83.8651 181.886 83.7061ZM174.907 84.3133V86.2938C176.273 86.5685 177.8 86.6697 179.269 86.583V84.588C177.8 84.6602 176.317 84.5735 174.907 84.3133ZM156.295 87.2624C156.223 88.1298 156.615 88.8382 157.095 89.2574C157.706 89.7778 158.695 90.3127 160.003 90.6886C162.606 91.4259 165.979 91.4259 168.582 90.6886C169.89 90.3127 170.879 89.7778 171.49 89.2574C172.202 88.6647 172.29 88.0864 172.29 87.2624C172.028 87.4359 171.752 87.5949 171.461 87.7395C169.541 88.6936 167.041 89.2285 164.292 89.2285C161.544 89.2285 159.043 88.6936 157.124 87.7395C156.833 87.5949 156.557 87.4359 156.295 87.2624ZM146.991 87.2769C146.942 89.3875 149.248 90.2549 150.697 90.6886C151.613 90.9488 152.631 91.1223 153.678 91.1946V89.1996C152.399 89.1128 151.148 88.896 149.97 88.5635C148.838 88.231 147.835 87.8118 146.991 87.2769ZM181.886 88.3322C181.857 90.4573 184.125 91.3102 185.594 91.7439C188.196 92.4956 191.57 92.4956 194.172 91.7439C196.019 91.209 197.866 90.1971 197.88 88.3322C197.037 88.8671 196.033 89.2863 194.899 89.6188C191.744 90.5296 188.022 90.5296 184.867 89.6188C183.733 89.2863 182.729 88.8671 181.886 88.3322ZM174.907 88.9394V90.9199C176.273 91.1946 177.8 91.2958 179.269 91.209V89.214C177.8 89.2863 176.317 89.1996 174.907 88.9394ZM146.991 91.9029C146.942 94.0136 149.248 94.881 150.697 95.3147C151.613 95.5749 152.631 95.7483 153.678 95.8206V93.8256C152.399 93.7389 151.148 93.5221 149.97 93.1896C148.838 92.8571 147.835 92.4378 146.991 91.9029ZM156.295 91.9029C156.223 92.7703 156.615 93.4642 157.095 93.8835C157.706 94.4039 158.695 94.9388 160.003 95.3147C162.606 96.0519 165.979 96.0519 168.582 95.3147C169.89 94.9388 170.879 94.4039 171.49 93.8835C172.202 93.2907 172.29 92.7269 172.29 91.9029C171.446 92.4378 170.443 92.8571 169.309 93.1896C166.154 94.0859 162.431 94.0859 159.276 93.1896C158.142 92.8571 157.139 92.4378 156.295 91.9029ZM181.886 92.9583C181.857 95.0833 184.125 95.9363 185.594 96.37C188.196 97.1217 191.57 97.1217 194.172 96.37C196.019 95.8351 197.866 94.8231 197.88 92.9583C197.037 93.4931 196.033 93.9124 194.899 94.2449C191.744 95.1556 188.022 95.1556 184.867 94.2449C183.733 93.9124 182.729 93.4931 181.886 92.9583ZM174.907 93.5654V95.546C176.273 95.8206 177.8 95.9218 179.269 95.8351V93.8401C177.8 93.9124 176.317 93.8256 174.907 93.5654ZM156.295 96.529V96.8615C156.717 97.0061 157.124 97.1795 157.502 97.3675C158.811 98.018 159.945 98.9288 160.527 100.071C163.042 100.678 166.154 100.635 168.582 99.9407C169.89 99.5648 170.879 99.03 171.49 98.5095C172.202 97.9168 172.29 97.353 172.29 96.529C171.446 97.0639 170.443 97.4831 169.309 97.8156C166.154 98.7119 162.431 98.7119 159.276 97.8156C158.142 97.4831 157.139 97.0639 156.295 96.529ZM181.886 97.5843C181.857 99.7094 184.125 100.562 185.594 100.996C188.196 101.748 191.57 101.748 194.172 100.996C196.019 100.461 197.866 99.4492 197.88 97.5843C197.037 98.1192 196.033 98.5384 194.899 98.8709C191.744 99.7817 188.022 99.7817 184.867 98.8709C183.733 98.5384 182.729 98.1192 181.886 97.5843ZM174.907 98.1915V100.172C176.273 100.447 177.8 100.548 179.269 100.461V98.4662C177.8 98.5384 176.317 98.4517 174.907 98.1915ZM150.334 98.4806C147.936 98.4806 145.784 98.9866 144.33 99.695C142.891 100.418 142.338 101.227 142.338 101.806C142.338 102.384 142.891 103.193 144.33 103.916C145.784 104.639 147.936 105.131 150.334 105.131C152.733 105.131 154.885 104.639 156.324 103.916C157.778 103.193 158.331 102.384 158.331 101.806C158.331 101.227 157.778 100.418 156.324 99.695C154.885 98.9866 152.733 98.4806 150.334 98.4806ZM172.29 101.155C171.446 101.69 170.443 102.109 169.309 102.442C166.692 103.179 163.696 103.309 160.948 102.818V104.798C163.391 105.304 166.284 105.217 168.582 104.567C170.414 104.032 172.275 103.005 172.29 101.155ZM181.886 102.21C181.842 104.263 184.023 105.145 185.463 105.579C186.277 104.928 187.019 104.437 187.891 104.075C186.844 103.96 185.826 103.772 184.867 103.497C183.733 103.165 182.729 102.745 181.886 102.21ZM197.88 102.21C197.473 102.471 197.022 102.702 196.528 102.919C196.979 102.962 197.429 103.02 197.851 103.092C197.909 102.803 197.88 102.514 197.88 102.21ZM174.907 102.818V104.784C176.492 105.087 177.815 105.159 179.269 105.102V103.092C177.8 103.165 176.317 103.078 174.907 102.818ZM194.536 105.42C192.137 105.42 189.985 105.926 188.545 106.634C187.091 107.357 186.539 108.166 186.539 108.745C186.539 109.323 187.091 110.133 188.545 110.855C189.985 111.578 192.137 112.07 194.536 112.07C196.935 112.07 199.087 111.578 200.526 110.855C201.98 110.133 202.533 109.323 202.533 108.745C202.533 108.166 201.98 107.357 200.526 106.634C199.087 105.926 196.935 105.42 194.536 105.42ZM142.338 105.767C142.296 107.906 144.564 108.759 146.046 109.193C148.649 109.93 152.021 109.93 154.623 109.193C156.47 108.658 158.316 107.632 158.331 105.767C158.069 105.94 157.793 106.099 157.502 106.244C155.583 107.198 153.082 107.733 150.334 107.733C147.483 107.501 144.535 107.212 142.338 105.767ZM172.29 105.781C171.446 106.316 170.443 106.735 169.309 107.068C166.692 107.805 163.696 107.935 160.948 107.444V109.424C163.391 109.93 166.284 109.843 168.582 109.193C170.414 108.658 172.275 107.632 172.29 105.781ZM181.886 106.836C181.828 108.325 183.049 109.164 183.892 109.598C183.892 109.598 183.907 109.612 183.922 109.612V107.819C183.165 107.545 182.482 107.212 181.886 106.836ZM142.338 110.407C142.289 112.518 144.595 113.385 146.046 113.819C148.649 114.556 152.021 114.556 154.623 113.819C156.455 113.284 158.316 112.258 158.331 110.407C157.488 110.942 156.484 111.361 155.35 111.694C152.195 112.59 148.474 112.59 145.319 111.694C144.185 111.361 143.182 110.942 142.338 110.407ZM160.948 112.07V114.036C161.661 114.195 162.431 114.296 163.231 114.354C163.522 113.588 164.045 112.923 164.714 112.359C163.449 112.388 162.17 112.287 160.948 112.07ZM173.598 112.359C171.199 112.359 169.047 112.865 167.608 113.573C166.154 114.296 165.601 115.106 165.601 115.684C165.601 116.262 166.154 117.072 167.608 117.794C169.047 118.517 171.199 119.009 173.598 119.009C175.997 119.009 178.149 118.517 179.589 117.794C181.043 117.072 181.595 116.262 181.595 115.684C181.595 115.106 181.043 114.296 179.589 113.573C178.149 112.865 175.997 112.359 173.598 112.359ZM186.539 112.706C186.524 114.845 188.749 115.698 190.247 116.132C192.849 116.869 196.222 116.869 198.825 116.132C200.672 115.597 202.518 114.571 202.533 112.706C200.236 114.094 196.76 114.657 194.536 114.672C191.686 114.441 188.734 114.151 186.539 112.706ZM142.338 115.033C142.289 117.144 144.595 118.011 146.046 118.445C148.649 119.182 152.021 119.182 154.623 118.445C156.455 117.91 158.316 116.884 158.331 115.033C157.488 115.568 156.484 115.987 155.35 116.32C152.195 117.216 148.474 117.216 145.319 116.32C144.185 115.987 143.182 115.568 142.338 115.033ZM186.539 117.346C186.51 119.471 188.778 120.324 190.247 120.758C192.849 121.495 196.222 121.495 198.825 120.758C200.657 120.223 202.518 119.197 202.533 117.346C201.69 117.881 200.686 118.3 199.552 118.633C196.397 119.529 192.675 119.529 189.52 118.633C188.385 118.3 187.382 117.881 186.539 117.346ZM165.601 119.645C165.528 120.512 165.921 121.221 166.401 121.64C167.011 122.16 168 122.695 169.309 123.071C171.911 123.808 175.285 123.808 177.887 123.071C179.196 122.695 180.185 122.16 180.795 121.64C181.406 121.119 181.595 120.671 181.595 120.31V119.645C181.333 119.818 181.057 119.977 180.766 120.122C178.847 121.076 176.346 121.611 173.598 121.611C170.85 121.611 168.349 121.076 166.43 120.122C166.139 119.977 165.863 119.818 165.601 119.645ZM142.338 119.659C142.289 121.77 144.595 122.637 146.046 123.071C148.649 123.808 152.021 123.808 154.623 123.071C156.455 122.536 158.316 121.51 158.331 119.659C157.488 120.194 156.484 120.613 155.35 120.946C152.195 121.842 148.474 121.842 145.319 120.946C144.185 120.613 143.182 120.194 142.338 119.659ZM186.539 121.972C186.51 124.097 188.778 124.95 190.247 125.384C192.849 126.121 196.222 126.121 198.825 125.384C200.657 124.849 202.518 123.823 202.533 121.972C201.69 122.507 200.686 122.926 199.552 123.259C196.397 124.155 192.675 124.155 189.52 123.259C188.385 122.926 187.382 122.507 186.539 121.972ZM142.338 124.285C142.289 126.396 144.595 127.263 146.046 127.697C148.649 128.434 152.021 128.434 154.623 127.697C156.455 127.162 158.316 126.136 158.331 124.285C157.488 124.82 156.484 125.24 155.35 125.572C152.195 126.468 148.474 126.468 145.319 125.572C144.185 125.24 143.182 124.82 142.338 124.285ZM165.601 124.285C165.543 125.774 166.764 126.613 167.608 127.047C169.047 127.769 171.199 128.261 173.598 128.261C175.997 128.261 178.149 127.769 179.589 127.047C181.028 126.15 181.595 125.803 181.595 124.285C180.752 124.82 179.749 125.24 178.614 125.572C175.459 126.468 171.737 126.468 168.582 125.572C167.448 125.24 166.444 124.82 165.601 124.285ZM186.539 126.598C186.481 128.087 187.702 128.926 188.545 129.36C189.985 130.082 192.137 130.574 194.536 130.574C196.935 130.574 199.087 130.082 200.526 129.36C201.966 128.463 202.533 128.116 202.533 126.598C201.69 127.133 200.686 127.553 199.552 127.885C196.397 128.781 192.675 128.781 189.52 127.885C188.385 127.553 187.382 127.133 186.539 126.598ZM142.338 128.911C142.274 130.386 143.484 131.239 144.33 131.673C145.784 132.395 147.936 132.887 150.334 132.887C152.733 132.887 154.885 132.395 156.324 131.673C157.764 130.776 158.331 130.429 158.331 128.911C157.488 129.446 156.484 129.866 155.35 130.198C152.195 131.094 148.474 131.094 145.319 130.198C144.185 129.866 143.182 129.446 142.338 128.911Z" fill="black"/>
<path d="M154.987 66.0996C152.588 66.0996 150.436 66.5911 148.983 67.314C147.544 68.0368 146.991 68.8463 146.991 69.4246C146.991 69.9884 147.544 70.8139 148.983 71.5208C150.436 72.2436 152.588 72.7496 154.987 72.7496C157.386 72.7496 159.538 72.2436 160.977 71.5208C162.431 70.8139 162.984 69.9884 162.984 69.4246C162.984 68.8463 162.431 68.0368 160.977 67.314C159.538 66.5911 157.386 66.0996 154.987 66.0996ZM178.251 70.7257C175.852 70.7257 173.7 71.2172 172.26 71.94C170.806 72.6628 170.254 73.4724 170.254 74.0507C170.254 74.6145 170.806 75.4399 172.26 76.1468C173.7 76.8697 175.852 77.3742 178.251 77.3742C178.92 77.3742 179.56 77.3308 180.17 77.2585C180.795 76.4649 181.682 75.7609 182.715 75.2925C183.907 74.7576 185.288 74.3239 186.248 74.0507C186.248 73.4724 185.695 72.6628 184.241 71.94C182.802 71.2172 180.65 70.7257 178.251 70.7257ZM146.991 73.3842C146.933 75.5035 149.242 76.368 150.697 76.7959C153.3 77.5477 156.673 77.5477 159.276 76.7959C161.137 76.2668 162.969 75.2462 162.984 73.3842C160.643 74.9209 157.226 75.3344 154.987 75.3503C152.151 75.1147 149.174 74.8226 146.991 73.3842ZM189.883 76.4071C187.484 76.4071 185.332 76.8986 183.892 77.6344C182.438 78.3428 181.886 79.1668 181.886 79.7306C181.886 80.3089 182.438 81.1184 183.892 81.8412C185.332 82.5641 187.484 83.0556 189.883 83.0556C192.282 83.0556 194.434 82.5641 195.874 81.8412C197.328 81.1184 197.88 80.3089 197.88 79.7306C197.88 79.1668 197.328 78.3428 195.874 77.6344C194.434 76.8986 192.282 76.4071 189.883 76.4071ZM170.254 78.0103V78.3572C170.676 78.5018 171.083 78.6753 171.461 78.8632C172.769 79.5138 173.903 80.4245 174.485 81.5666C175.968 81.928 177.64 82.0581 179.269 81.9569V79.9474C178.934 79.9619 178.6 79.9764 178.251 79.9764C175.503 79.9764 173.002 79.4415 171.083 78.4873C170.792 78.3428 170.516 78.1838 170.254 78.0103ZM146.991 78.0247C146.942 80.1354 149.248 81.0028 150.697 81.4365C151.686 81.7111 152.791 81.8991 153.925 81.9569C154.216 81.2052 154.74 80.5402 155.408 79.9764C153.547 80.0197 151.672 79.7884 149.97 79.3114C148.838 78.9789 147.835 78.5596 146.991 78.0247ZM164.292 79.9764C161.893 79.9764 159.741 80.4823 158.302 81.1907C156.848 81.9135 156.295 82.7231 156.295 83.3013C156.295 83.8796 156.848 84.6892 158.302 85.412C159.741 86.1348 161.893 86.6263 164.292 86.6263C166.692 86.6263 168.844 86.1348 170.283 85.412C171.737 84.6892 172.29 83.8796 172.29 83.3013C172.29 82.7231 171.737 81.9135 170.283 81.1907C168.844 80.4823 166.692 79.9764 164.292 79.9764ZM146.991 82.6508C146.942 84.7614 149.248 85.6288 150.697 86.0625C151.613 86.3227 152.631 86.4962 153.678 86.5685V84.5735C152.399 84.4868 151.148 84.2699 149.97 83.9374C148.838 83.6049 147.835 83.1857 146.991 82.6508ZM181.886 83.7061C181.857 85.8312 184.125 86.6842 185.594 87.1178C188.196 87.8696 191.57 87.8696 194.172 87.1178C196.019 86.583 197.866 85.571 197.88 83.7061C197.618 83.8651 197.342 84.0242 197.051 84.1687C195.132 85.1229 192.631 85.6577 189.883 85.6577C187.135 85.6577 184.634 85.1229 182.715 84.1687C182.424 84.0242 182.148 83.8651 181.886 83.7061ZM174.907 84.3133V86.2938C176.273 86.5685 177.8 86.6697 179.269 86.583V84.588C177.8 84.6602 176.317 84.5735 174.907 84.3133ZM156.295 87.2624C156.223 88.1298 156.615 88.8382 157.095 89.2574C157.706 89.7778 158.695 90.3127 160.003 90.6886C162.606 91.4259 165.979 91.4259 168.582 90.6886C169.89 90.3127 170.879 89.7778 171.49 89.2574C172.202 88.6647 172.29 88.0864 172.29 87.2624C172.028 87.4359 171.752 87.5949 171.461 87.7395C169.541 88.6936 167.041 89.2285 164.292 89.2285C161.544 89.2285 159.043 88.6936 157.124 87.7395C156.833 87.5949 156.557 87.4359 156.295 87.2624ZM146.991 87.2769C146.942 89.3875 149.248 90.2549 150.697 90.6886C151.613 90.9488 152.631 91.1223 153.678 91.1946V89.1996C152.399 89.1128 151.148 88.896 149.97 88.5635C148.838 88.231 147.835 87.8118 146.991 87.2769ZM181.886 88.3322C181.857 90.4573 184.125 91.3102 185.594 91.7439C188.196 92.4956 191.57 92.4956 194.172 91.7439C196.019 91.209 197.866 90.1971 197.88 88.3322C197.037 88.8671 196.033 89.2863 194.899 89.6188C191.744 90.5296 188.022 90.5296 184.867 89.6188C183.733 89.2863 182.729 88.8671 181.886 88.3322ZM174.907 88.9394V90.9199C176.273 91.1946 177.8 91.2958 179.269 91.209V89.214C177.8 89.2863 176.317 89.1996 174.907 88.9394ZM146.991 91.9029C146.942 94.0136 149.248 94.881 150.697 95.3147C151.613 95.5749 152.631 95.7483 153.678 95.8206V93.8256C152.399 93.7389 151.148 93.5221 149.97 93.1896C148.838 92.8571 147.835 92.4378 146.991 91.9029ZM156.295 91.9029C156.223 92.7703 156.615 93.4642 157.095 93.8835C157.706 94.4039 158.695 94.9388 160.003 95.3147C162.606 96.0519 165.979 96.0519 168.582 95.3147C169.89 94.9388 170.879 94.4039 171.49 93.8835C172.202 93.2907 172.29 92.7269 172.29 91.9029C171.446 92.4378 170.443 92.8571 169.309 93.1896C166.154 94.0859 162.431 94.0859 159.276 93.1896C158.142 92.8571 157.139 92.4378 156.295 91.9029ZM181.886 92.9583C181.857 95.0833 184.125 95.9363 185.594 96.37C188.196 97.1217 191.57 97.1217 194.172 96.37C196.019 95.8351 197.866 94.8231 197.88 92.9583C197.037 93.4931 196.033 93.9124 194.899 94.2449C191.744 95.1556 188.022 95.1556 184.867 94.2449C183.733 93.9124 182.729 93.4931 181.886 92.9583ZM174.907 93.5654V95.546C176.273 95.8206 177.8 95.9218 179.269 95.8351V93.8401C177.8 93.9124 176.317 93.8256 174.907 93.5654ZM156.295 96.529V96.8615C156.717 97.0061 157.124 97.1795 157.502 97.3675C158.811 98.018 159.945 98.9288 160.527 100.071C163.042 100.678 166.154 100.635 168.582 99.9407C169.89 99.5648 170.879 99.03 171.49 98.5095C172.202 97.9168 172.29 97.353 172.29 96.529C171.446 97.0639 170.443 97.4831 169.309 97.8156C166.154 98.7119 162.431 98.7119 159.276 97.8156C158.142 97.4831 157.139 97.0639 156.295 96.529ZM181.886 97.5843C181.857 99.7094 184.125 100.562 185.594 100.996C188.196 101.748 191.57 101.748 194.172 100.996C196.019 100.461 197.866 99.4492 197.88 97.5843C197.037 98.1192 196.033 98.5384 194.899 98.8709C191.744 99.7817 188.022 99.7817 184.867 98.8709C183.733 98.5384 182.729 98.1192 181.886 97.5843ZM174.907 98.1915V100.172C176.273 100.447 177.8 100.548 179.269 100.461V98.4662C177.8 98.5384 176.317 98.4517 174.907 98.1915ZM150.334 98.4806C147.936 98.4806 145.784 98.9866 144.33 99.695C142.891 100.418 142.338 101.227 142.338 101.806C142.338 102.384 142.891 103.193 144.33 103.916C145.784 104.639 147.936 105.131 150.334 105.131C152.733 105.131 154.885 104.639 156.324 103.916C157.778 103.193 158.331 102.384 158.331 101.806C158.331 101.227 157.778 100.418 156.324 99.695C154.885 98.9866 152.733 98.4806 150.334 98.4806ZM172.29 101.155C171.446 101.69 170.443 102.109 169.309 102.442C166.692 103.179 163.696 103.309 160.948 102.818V104.798C163.391 105.304 166.284 105.217 168.582 104.567C170.414 104.032 172.275 103.005 172.29 101.155ZM181.886 102.21C181.842 104.263 184.023 105.145 185.463 105.579C186.277 104.928 187.019 104.437 187.891 104.075C186.844 103.96 185.826 103.772 184.867 103.497C183.733 103.165 182.729 102.745 181.886 102.21ZM197.88 102.21C197.473 102.471 197.022 102.702 196.528 102.919C196.979 102.962 197.429 103.02 197.851 103.092C197.909 102.803 197.88 102.514 197.88 102.21ZM174.907 102.818V104.784C176.492 105.087 177.815 105.159 179.269 105.102V103.092C177.8 103.165 176.317 103.078 174.907 102.818ZM194.536 105.42C192.137 105.42 189.985 105.926 188.545 106.634C187.091 107.357 186.539 108.166 186.539 108.745C186.539 109.323 187.091 110.133 188.545 110.855C189.985 111.578 192.137 112.07 194.536 112.07C196.935 112.07 199.087 111.578 200.526 110.855C201.98 110.133 202.533 109.323 202.533 108.745C202.533 108.166 201.98 107.357 200.526 106.634C199.087 105.926 196.935 105.42 194.536 105.42ZM142.338 105.767C142.296 107.906 144.564 108.759 146.046 109.193C148.649 109.93 152.021 109.93 154.623 109.193C156.47 108.658 158.316 107.632 158.331 105.767C158.069 105.94 157.793 106.099 157.502 106.244C155.583 107.198 153.082 107.733 150.334 107.733C147.483 107.501 144.535 107.212 142.338 105.767ZM172.29 105.781C171.446 106.316 170.443 106.735 169.309 107.068C166.692 107.805 163.696 107.935 160.948 107.444V109.424C163.391 109.93 166.284 109.843 168.582 109.193C170.414 108.658 172.275 107.632 172.29 105.781ZM181.886 106.836C181.828 108.325 183.049 109.164 183.892 109.598C183.892 109.598 183.907 109.612 183.922 109.612V107.819C183.165 107.545 182.482 107.212 181.886 106.836ZM142.338 110.407C142.289 112.518 144.595 113.385 146.046 113.819C148.649 114.556 152.021 114.556 154.623 113.819C156.455 113.284 158.316 112.258 158.331 110.407C157.488 110.942 156.484 111.361 155.35 111.694C152.195 112.59 148.474 112.59 145.319 111.694C144.185 111.361 143.182 110.942 142.338 110.407ZM160.948 112.07V114.036C161.661 114.195 162.431 114.296 163.231 114.354C163.522 113.588 164.045 112.923 164.714 112.359C163.449 112.388 162.17 112.287 160.948 112.07ZM173.598 112.359C171.199 112.359 169.047 112.865 167.608 113.573C166.154 114.296 165.601 115.106 165.601 115.684C165.601 116.262 166.154 117.072 167.608 117.794C169.047 118.517 171.199 119.009 173.598 119.009C175.997 119.009 178.149 118.517 179.589 117.794C181.043 117.072 181.595 116.262 181.595 115.684C181.595 115.106 181.043 114.296 179.589 113.573C178.149 112.865 175.997 112.359 173.598 112.359ZM186.539 112.706C186.524 114.845 188.749 115.698 190.247 116.132C192.849 116.869 196.222 116.869 198.825 116.132C200.672 115.597 202.518 114.571 202.533 112.706C200.236 114.094 196.76 114.657 194.536 114.672C191.686 114.441 188.734 114.151 186.539 112.706ZM142.338 115.033C142.289 117.144 144.595 118.011 146.046 118.445C148.649 119.182 152.021 119.182 154.623 118.445C156.455 117.91 158.316 116.884 158.331 115.033C157.488 115.568 156.484 115.987 155.35 116.32C152.195 117.216 148.474 117.216 145.319 116.32C144.185 115.987 143.182 115.568 142.338 115.033ZM186.539 117.346C186.51 119.471 188.778 120.324 190.247 120.758C192.849 121.495 196.222 121.495 198.825 120.758C200.657 120.223 202.518 119.197 202.533 117.346C201.69 117.881 200.686 118.3 199.552 118.633C196.397 119.529 192.675 119.529 189.52 118.633C188.385 118.3 187.382 117.881 186.539 117.346ZM165.601 119.645C165.528 120.512 165.921 121.221 166.401 121.64C167.011 122.16 168 122.695 169.309 123.071C171.911 123.808 175.285 123.808 177.887 123.071C179.196 122.695 180.185 122.16 180.795 121.64C181.406 121.119 181.595 120.671 181.595 120.31V119.645C181.333 119.818 181.057 119.977 180.766 120.122C178.847 121.076 176.346 121.611 173.598 121.611C170.85 121.611 168.349 121.076 166.43 120.122C166.139 119.977 165.863 119.818 165.601 119.645ZM142.338 119.659C142.289 121.77 144.595 122.637 146.046 123.071C148.649 123.808 152.021 123.808 154.623 123.071C156.455 122.536 158.316 121.51 158.331 119.659C157.488 120.194 156.484 120.613 155.35 120.946C152.195 121.842 148.474 121.842 145.319 120.946C144.185 120.613 143.182 120.194 142.338 119.659ZM186.539 121.972C186.51 124.097 188.778 124.95 190.247 125.384C192.849 126.121 196.222 126.121 198.825 125.384C200.657 124.849 202.518 123.823 202.533 121.972C201.69 122.507 200.686 122.926 199.552 123.259C196.397 124.155 192.675 124.155 189.52 123.259C188.385 122.926 187.382 122.507 186.539 121.972ZM142.338 124.285C142.289 126.396 144.595 127.263 146.046 127.697C148.649 128.434 152.021 128.434 154.623 127.697C156.455 127.162 158.316 126.136 158.331 124.285C157.488 124.82 156.484 125.24 155.35 125.572C152.195 126.468 148.474 126.468 145.319 125.572C144.185 125.24 143.182 124.82 142.338 124.285ZM165.601 124.285C165.543 125.774 166.764 126.613 167.608 127.047C169.047 127.769 171.199 128.261 173.598 128.261C175.997 128.261 178.149 127.769 179.589 127.047C181.028 126.15 181.595 125.803 181.595 124.285C180.752 124.82 179.749 125.24 178.614 125.572C175.459 126.468 171.737 126.468 168.582 125.572C167.448 125.24 166.444 124.82 165.601 124.285ZM186.539 126.598C186.481 128.087 187.702 128.926 188.545 129.36C189.985 130.082 192.137 130.574 194.536 130.574C196.935 130.574 199.087 130.082 200.526 129.36C201.966 128.463 202.533 128.116 202.533 126.598C201.69 127.133 200.686 127.553 199.552 127.885C196.397 128.781 192.675 128.781 189.52 127.885C188.385 127.553 187.382 127.133 186.539 126.598ZM142.338 128.911C142.274 130.386 143.484 131.239 144.33 131.673C145.784 132.395 147.936 132.887 150.334 132.887C152.733 132.887 154.885 132.395 156.324 131.673C157.764 130.776 158.331 130.429 158.331 128.911C157.488 129.446 156.484 129.866 155.35 130.198C152.195 131.094 148.474 131.094 145.319 130.198C144.185 129.866 143.182 129.446 142.338 128.911Z" fill="url(#paint3_linear_490_13348)"/>
<defs>
<linearGradient id="paint0_linear_490_13348" x1="16.1333" y1="16.0752" x2="277.739" y2="147.392" gradientUnits="userSpaceOnUse">
<stop stop-color="#5E27ED"/>
<stop offset="1" stop-color="#8E55C8" stop-opacity="0.27"/>
</linearGradient>
<linearGradient id="paint1_linear_490_13348" x1="66.3348" y1="62.95" x2="144.02" y2="91.2572" gradientUnits="userSpaceOnUse">
<stop stop-color="#5E27ED"/>
<stop offset="1" stop-color="#8E55C8" stop-opacity="0.27"/>
</linearGradient>
<linearGradient id="paint2_linear_490_13348" x1="85.7916" y1="78.907" x2="117.737" y2="84.7108" gradientUnits="userSpaceOnUse">
<stop stop-color="#5E27ED"/>
<stop offset="1" stop-color="#8E55C8" stop-opacity="0.27"/>
</linearGradient>
<linearGradient id="paint3_linear_490_13348" x1="146.015" y1="71.7502" x2="213.537" y2="93.7365" gradientUnits="userSpaceOnUse">
<stop stop-color="#5E27ED"/>
<stop offset="1" stop-color="#8E55C8" stop-opacity="0.27"/>
</linearGradient>
</defs>
</svg>
