<svg width="264" height="190" viewBox="0 0 264 190" fill="none" xmlns="http://www.w3.org/2000/svg">
<g clip-path="url(#clip0_490_13405)">
<path d="M2.5 2.5H261.5V187.5H30.8915C15.2113 187.5 2.5 174.789 2.5 159.109V2.5Z" fill="#040D17" stroke="url(#paint0_linear_490_13405)" stroke-width="5" stroke-linejoin="round"/>
<path d="M132 64.7407C115.005 64.7407 101.212 78.4545 101.212 95.3518C101.212 112.249 115.005 125.963 132 125.963C148.995 125.963 162.788 112.249 162.788 95.3518C162.788 78.4545 148.995 64.7407 132 64.7407ZM134.709 112.984V116.78H129.322V112.831C127.043 112.28 121.963 110.474 120.024 103.77L125.104 101.719C125.288 102.392 126.889 108.117 132.493 108.117C135.356 108.117 138.589 106.647 138.589 103.188C138.589 100.25 136.434 98.7191 131.569 96.9742C128.182 95.7804 121.255 93.8213 121.255 86.8419C121.255 86.5358 121.286 79.4953 129.322 77.7811V73.9241H134.709V77.7198C140.375 78.6994 142.437 83.1992 142.899 84.5461L138.035 86.5971C137.696 85.5257 136.218 82.4952 132.185 82.4952C130.03 82.4952 126.612 83.6278 126.612 86.7501C126.612 89.6582 129.26 90.7602 134.74 92.5662C142.129 95.1069 144.008 98.8415 144.008 103.127C144.008 111.178 136.31 112.708 134.709 112.984Z" fill="url(#paint1_linear_490_13405)"/>
</g>
<defs>
<linearGradient id="paint0_linear_490_13405" x1="16.1333" y1="16.0752" x2="277.739" y2="147.392" gradientUnits="userSpaceOnUse">
<stop stop-color="#5E27ED"/>
<stop offset="1" stop-color="#8E55C8" stop-opacity="0.27"/>
</linearGradient>
<linearGradient id="paint1_linear_490_13405" x1="104.975" y1="69.9205" x2="172.458" y2="94.4407" gradientUnits="userSpaceOnUse">
<stop stop-color="#5E27ED"/>
<stop offset="1" stop-color="#8E55C8" stop-opacity="0.27"/>
</linearGradient>
<clipPath id="clip0_490_13405">
<rect width="264" height="190" fill="white"/>
</clipPath>
</defs>
</svg>
