<svg width="264" height="190" viewBox="0 0 264 190" fill="none" xmlns="http://www.w3.org/2000/svg">
<g clip-path="url(#clip0_503_13422)">
<path d="M2.5 2.5H261.5V187.5H70C32.7208 187.5 2.5 157.279 2.5 120V2.5Z" stroke="url(#paint0_linear_503_13422)" stroke-width="5" stroke-linejoin="round"/>
<path d="M78.8247 72.9326C79.1205 73.2281 79.3553 73.5791 79.5154 73.9654C79.6755 74.3518 79.758 74.7659 79.758 75.1841C79.758 75.6023 79.6755 76.0164 79.5154 76.4027C79.3553 76.789 79.1205 77.14 78.8247 77.4355C74.0494 82.2116 71.3668 88.6888 71.3668 95.4425C71.3668 102.196 74.0494 108.673 78.8247 113.449C79.1286 113.743 79.371 114.094 79.5378 114.482C79.7046 114.871 79.7924 115.288 79.796 115.711C79.7997 116.133 79.7192 116.552 79.5592 116.943C79.3992 117.335 79.1629 117.69 78.8641 117.989C78.5653 118.287 78.21 118.524 77.8189 118.684C77.4278 118.844 77.0088 118.924 76.5862 118.921C76.1637 118.917 75.7461 118.829 75.3579 118.662C74.9696 118.496 74.6185 118.253 74.3249 117.949C61.8917 105.519 61.8917 85.3626 74.3249 72.9326C74.9217 72.336 75.7309 72.0009 76.5748 72.0009C77.4186 72.0009 78.2279 72.336 78.8247 72.9326ZM119.342 72.9326C131.772 85.3658 131.772 105.519 119.342 117.949C118.745 118.546 117.935 118.882 117.091 118.882C116.247 118.883 115.437 118.548 114.84 117.951C114.243 117.354 113.907 116.545 113.907 115.7C113.907 114.856 114.242 114.047 114.839 113.449C119.614 108.673 122.296 102.196 122.296 95.4425C122.296 88.6888 119.614 82.2116 114.839 77.4355C114.241 76.8384 113.906 76.0285 113.906 75.1841C113.906 74.3396 114.241 73.5297 114.839 72.9326C115.436 72.3355 116.246 72 117.09 72C117.935 72 118.744 72.3355 119.342 72.9326ZM88.2665 82.0785C88.8631 82.6753 89.1982 83.4845 89.1982 84.3284C89.1982 85.1722 88.8631 85.9815 88.2665 86.5782C87.108 87.7366 86.189 89.1119 85.562 90.6254C84.935 92.139 84.6123 93.7613 84.6123 95.3995C84.6123 97.0378 84.935 98.6601 85.562 100.174C86.189 101.687 87.108 103.062 88.2665 104.221C88.562 104.517 88.7963 104.867 88.9561 105.254C89.1159 105.64 89.1981 106.054 89.198 106.472C89.1978 106.89 89.1153 107.304 88.9552 107.69C88.7952 108.076 88.5606 108.427 88.2649 108.722C87.9692 109.018 87.6183 109.252 87.232 109.412C86.8458 109.572 86.4319 109.654 86.0139 109.654C85.5959 109.654 85.1821 109.571 84.7959 109.411C84.4098 109.251 84.059 109.016 83.7636 108.721C80.2307 105.188 78.2459 100.396 78.2459 95.3995C78.2459 90.4032 80.2307 85.6115 83.7636 82.0785C84.0591 81.7826 84.4101 81.5479 84.7964 81.3877C85.1827 81.2276 85.5968 81.1452 86.015 81.1452C86.4332 81.1452 86.8473 81.2276 87.2337 81.3877C87.62 81.5479 87.971 81.7826 88.2665 82.0785ZM110.409 82.0785C113.942 85.6115 115.926 90.4032 115.926 95.3995C115.926 100.396 113.942 105.188 110.409 108.721C109.809 109.3 109.005 109.621 108.17 109.614C107.336 109.607 106.538 109.272 105.948 108.682C105.358 108.092 105.023 107.294 105.016 106.459C105.009 105.625 105.329 104.821 105.909 104.221C107.068 103.062 107.987 101.687 108.614 100.174C109.241 98.6601 109.563 97.0378 109.563 95.3995C109.563 93.7613 109.241 92.139 108.614 90.6254C107.987 89.1119 107.068 87.7366 105.909 86.5782C105.329 85.9781 105.009 85.1742 105.016 84.3398C105.023 83.5054 105.358 82.7073 105.948 82.1173C106.538 81.5272 107.336 81.1925 108.17 81.1853C109.005 81.178 109.809 81.4988 110.409 82.0785ZM97.0878 90.8934C98.3538 90.8934 99.5679 91.3963 100.463 92.2915C101.358 93.1867 101.861 94.4009 101.861 95.6669C101.861 96.9328 101.358 98.147 100.463 99.0422C99.5679 99.9374 98.3538 100.44 97.0878 100.44C95.8218 100.44 94.6077 99.9374 93.7125 99.0422C92.8173 98.147 92.3144 96.9328 92.3144 95.6669C92.3144 94.4009 92.8173 93.1867 93.7125 92.2915C94.6077 91.3963 95.8218 90.8934 97.0878 90.8934Z" fill="url(#paint1_linear_503_13422)"/>
<g clip-path="url(#clip1_503_13422)">
<path d="M144.121 80.0348C143.892 80.0343 143.665 80.0791 143.454 80.1666C143.242 80.2541 143.05 80.3826 142.888 80.5447C142.726 80.7067 142.598 80.8992 142.511 81.111C142.424 81.3227 142.38 81.5496 142.381 81.7786V109.845C142.38 110.074 142.425 110.3 142.512 110.512C142.6 110.723 142.728 110.915 142.889 111.077C143.051 111.238 143.243 111.367 143.454 111.454C143.666 111.541 143.892 111.586 144.121 111.585H197.075V111.593C197.304 111.593 197.531 111.549 197.742 111.461C197.953 111.374 198.145 111.246 198.307 111.084C198.469 110.923 198.597 110.731 198.684 110.519C198.771 110.308 198.816 110.081 198.815 109.853V81.7786C198.816 81.55 198.771 81.3235 198.684 81.1121C198.597 80.9008 198.469 80.7088 198.307 80.5471C198.145 80.3854 197.953 80.2573 197.742 80.17C197.531 80.0827 197.304 80.0381 197.075 80.0386L144.121 80.0348ZM124.212 80.0649C120.25 80.0804 116.439 81.5852 113.536 84.2803C110.632 86.9755 108.848 90.6641 108.538 94.6137C108.228 98.5633 109.414 102.485 111.861 105.601C114.309 108.716 117.838 110.797 121.749 111.431V100.403H117.715V95.8421H121.745V92.362C121.745 88.4073 124.084 86.2116 127.692 86.2116C129.413 86.2116 131.206 86.543 131.206 86.543V90.3997H129.233C127.274 90.3997 126.645 91.6313 126.645 92.8704V95.8345H131.029L130.325 100.392H126.638V111.423C130.562 110.811 134.111 108.741 136.576 105.627C139.041 102.512 140.24 98.5821 139.934 94.6219C139.628 90.6617 137.839 86.9629 134.924 84.2643C132.01 81.5657 128.184 80.0661 124.212 80.0649ZM151.205 89.1305H153.597V100.403H159.729V102.49H151.205V89.1305ZM162.297 89.1305H164.689V102.49H162.297V89.1305ZM166.983 89.1305H169.626L172.99 99.7063H173.152L176.489 89.1305H179.031L174.41 102.49H171.649L166.983 89.1305ZM181.332 89.1418H189.98V91.2019H183.728V94.7423H189.641V96.6895H183.728V100.429H189.98V102.501H181.332V89.1418Z" fill="url(#paint2_linear_503_13422)"/>
</g>
</g>
<defs>
<linearGradient id="paint0_linear_503_13422" x1="16.1333" y1="16.0752" x2="277.739" y2="147.392" gradientUnits="userSpaceOnUse">
<stop stop-color="#5E27ED"/>
<stop offset="1" stop-color="#8E55C8" stop-opacity="0.27"/>
</linearGradient>
<linearGradient id="paint1_linear_503_13422" x1="68.8906" y1="75.9698" x2="132.572" y2="107.185" gradientUnits="userSpaceOnUse">
<stop stop-color="#5E27ED"/>
<stop offset="1" stop-color="#8E55C8" stop-opacity="0.27"/>
</linearGradient>
<linearGradient id="paint2_linear_503_13422" x1="114.009" y1="82.7048" x2="168.166" y2="138.704" gradientUnits="userSpaceOnUse">
<stop stop-color="#5E27ED"/>
<stop offset="1" stop-color="#8E55C8" stop-opacity="0.27"/>
</linearGradient>
<clipPath id="clip0_503_13422">
<rect width="264" height="190" fill="white"/>
</clipPath>
<clipPath id="clip1_503_13422">
<rect width="56.0429" height="31.6371" fill="white" transform="translate(142.838 80.0348)"/>
</clipPath>
</defs>
</svg>
