<svg width="264" height="190" viewBox="0 0 264 190" fill="none" xmlns="http://www.w3.org/2000/svg">
<path d="M2.5 2.5H261.5V187.5H49.6696C23.6185 187.5 2.5 166.381 2.5 140.33V2.5Z" stroke="url(#paint0_linear_561_1175)" stroke-width="5" stroke-linejoin="round"/>
<path fill-rule="evenodd" clip-rule="evenodd" d="M131.792 57.4333C131.55 57.8542 131.279 58.3375 130.963 58.9083L130.554 59.6417L130.458 59.8083C130.133 60.4083 129.592 61.4 128.688 62.0875C127.767 62.7875 126.654 63.0292 126.008 63.1708L125.825 63.2083L125.033 63.3875C124.3 63.5542 123.704 63.6875 123.2 63.8167C123.529 64.2208 123.958 64.7292 124.517 65.3833L125.058 66.0167L125.183 66.1583C125.633 66.6792 126.358 67.5125 126.696 68.5958C127.029 69.6625 126.913 70.7625 126.842 71.4542C126.834 71.5194 126.827 71.5847 126.821 71.65L126.738 72.4958C126.675 73.1343 126.617 73.7732 126.563 74.4125C127 74.2208 127.492 73.9958 128.079 73.725L128.825 73.3833L128.992 73.3C129.592 73.0208 130.629 72.5292 131.792 72.5292C132.954 72.5292 133.992 73.0208 134.592 73.3042L134.758 73.3833L135.504 73.725C136.088 73.9958 136.588 74.225 137.021 74.4125C136.967 73.7732 136.908 73.1343 136.846 72.4958L136.763 71.65C136.756 71.5847 136.749 71.5194 136.742 71.4542C136.671 70.7583 136.554 69.6625 136.888 68.5958C137.221 67.5125 137.95 66.6792 138.4 66.1583L138.525 66.0167L139.067 65.3833C139.625 64.7292 140.054 64.2208 140.383 63.8167C139.879 63.6917 139.283 63.5542 138.55 63.3875L137.758 63.2083L137.575 63.1667C136.929 63.0292 135.817 62.7875 134.896 62.0833C133.992 61.4 133.45 60.4083 133.125 59.8125L133.029 59.6417L132.621 58.9083C132.304 58.3375 132.038 57.8542 131.792 57.4333ZM127.683 52.2917C128.4 51.3542 129.7 50 131.792 50C133.883 50 135.183 51.3542 135.9 52.2917C136.588 53.1833 137.275 54.4208 137.983 55.6917L138.079 55.8625L138.488 56.6L138.725 57.0167L139.138 57.1125L139.929 57.2917L140.129 57.3333C141.492 57.6458 142.85 57.95 143.892 58.3625C145.042 58.8167 146.6 59.6958 147.204 61.6333C147.796 63.5292 147.05 65.1375 146.4 66.175C145.796 67.1333 144.879 68.2 143.942 69.2958L143.817 69.4417L143.275 70.0792L142.933 70.4833C142.942 70.6333 142.963 70.8083 142.983 71.0458L143.067 71.8917L143.083 72.0833C143.225 73.55 143.363 74.9667 143.313 76.1C143.263 77.2917 142.979 79.0917 141.363 80.3125C139.696 81.5792 137.863 81.3042 136.696 80.9667C135.621 80.6625 134.35 80.075 133.071 79.4875L132.892 79.4042L132.142 79.0583L131.792 78.8958L131.438 79.0625L130.692 79.4042L130.508 79.4875C129.233 80.075 127.967 80.6625 126.888 80.9667C125.721 81.3 123.888 81.5792 122.221 80.3125C120.608 79.0917 120.321 77.2917 120.271 76.1042C120.221 74.9667 120.354 73.55 120.5 72.0833L120.517 71.8917L120.6 71.0458L120.654 70.4833C120.54 70.3479 120.424 70.2131 120.308 70.0792L119.767 69.4417L119.642 69.2958C118.704 68.2 117.788 67.1292 117.183 66.1708C116.533 65.1375 115.788 63.5292 116.379 61.6292C116.979 59.7 118.542 58.8167 119.692 58.3625C120.733 57.95 122.092 57.6458 123.454 57.3375L123.65 57.2958L124.446 57.1125L124.863 57.0167L125.096 56.6L125.504 55.8625L125.6 55.6917C126.308 54.4208 126.996 53.1833 127.683 52.2917ZM127.421 83.3333H136.163C138.933 83.3333 141.321 83.3333 143.233 83.5917C145.283 83.8667 147.246 84.4875 148.838 86.0792C150.429 87.6708 151.05 89.6333 151.325 91.6833C151.583 93.5958 151.583 95.9833 151.583 98.7542V109.029C152.267 108.821 152.971 108.688 153.683 108.592C155.596 108.333 157.983 108.333 160.754 108.333H161.163C163.933 108.333 166.321 108.333 168.233 108.592C170.283 108.867 172.246 109.488 173.838 111.079C175.429 112.671 176.05 114.633 176.325 116.683C176.583 118.596 176.583 120.983 176.583 123.754V136.458C176.583 137.287 176.254 138.082 175.668 138.668C175.082 139.254 174.287 139.583 173.458 139.583C172.63 139.583 171.835 139.254 171.249 138.668C170.663 138.082 170.333 137.287 170.333 136.458V123.958C170.333 120.925 170.325 118.958 170.133 117.517C169.95 116.163 169.654 115.738 169.417 115.5C169.179 115.263 168.754 114.967 167.4 114.783C165.954 114.592 163.992 114.583 160.958 114.583C157.925 114.583 155.958 114.592 154.517 114.783C153.163 114.967 152.738 115.263 152.5 115.5C152.263 115.738 151.967 116.163 151.783 117.517C151.592 118.963 151.583 120.925 151.583 123.958V136.458C151.583 137.287 151.254 138.082 150.668 138.668C150.082 139.254 149.287 139.583 148.458 139.583C147.63 139.583 146.835 139.254 146.249 138.668C145.663 138.082 145.333 137.287 145.333 136.458V98.9583C145.333 95.925 145.325 93.9583 145.133 92.5167C144.95 91.1625 144.654 90.7375 144.417 90.5C144.179 90.2625 143.754 89.9667 142.4 89.7833C140.954 89.5917 138.992 89.5833 135.958 89.5833H127.625C124.592 89.5833 122.625 89.5917 121.183 89.7833C119.829 89.9667 119.404 90.2625 119.167 90.5C118.929 90.7375 118.633 91.1625 118.45 92.5167C118.258 93.9625 118.25 95.925 118.25 98.9583V136.458C118.25 137.287 117.921 138.082 117.335 138.668C116.749 139.254 115.954 139.583 115.125 139.583C114.296 139.583 113.501 139.254 112.915 138.668C112.329 138.082 112 137.287 112 136.458C112 133.425 111.992 131.458 111.8 130.017C111.617 128.663 111.321 128.238 111.083 128C110.846 127.763 110.421 127.467 109.067 127.283C107.621 127.092 105.658 127.083 102.625 127.083C99.5917 127.083 97.625 127.092 96.1833 127.283C94.8292 127.467 94.4042 127.763 94.1667 128C93.9292 128.238 93.6333 128.663 93.45 130.017C93.2583 131.463 93.25 133.425 93.25 136.458C93.25 137.287 92.9208 138.082 92.3347 138.668C91.7487 139.254 90.9538 139.583 90.125 139.583C89.2962 139.583 88.5013 139.254 87.9153 138.668C87.3292 138.082 87 137.287 87 136.458V136.25C87 133.483 87 131.096 87.2583 129.183C87.5333 127.133 88.1542 125.171 89.7458 123.579C91.3375 121.988 93.3042 121.367 95.35 121.092C97.2625 120.833 99.65 120.833 102.421 120.833H102.829C105.6 120.833 107.988 120.833 109.9 121.092C110.613 121.188 111.317 121.325 112 121.529V98.7542C112 95.9833 112 93.5958 112.258 91.6833C112.533 89.6333 113.154 87.6708 114.746 86.0792C116.338 84.4875 118.304 83.8667 120.35 83.5917C122.263 83.3333 124.65 83.3333 127.421 83.3333Z" fill="url(#paint1_linear_561_1175)"/>
<defs>
<linearGradient id="paint0_linear_561_1175" x1="16.1333" y1="16.0752" x2="277.739" y2="147.392" gradientUnits="userSpaceOnUse">
<stop stop-color="#5E27ED"/>
<stop offset="1" stop-color="#8E55C8" stop-opacity="0.27"/>
</linearGradient>
<linearGradient id="paint1_linear_561_1175" x1="92.4745" y1="57.5793" x2="190.783" y2="93.0944" gradientUnits="userSpaceOnUse">
<stop stop-color="#5E27ED"/>
<stop offset="1" stop-color="#8E55C8" stop-opacity="0.27"/>
</linearGradient>
</defs>
</svg>
