<svg width="264" height="190" viewBox="0 0 264 190" fill="none" xmlns="http://www.w3.org/2000/svg">
<path d="M2.5 2.5H261.5V187.5H49.6696C23.6185 187.5 2.5 166.381 2.5 140.33V2.5Z" fill="#040D17" stroke="url(#paint0_linear_490_13283)" stroke-width="5" stroke-linejoin="round"/>
<path fill-rule="evenodd" clip-rule="evenodd" d="M136.672 26.7723C130.48 32.1221 125.417 38.6537 121.781 45.9845C118.144 53.3153 116.007 61.298 115.494 69.4652L106.575 77.1721C103.18 80.1059 101.09 84.2681 100.763 88.7432C100.437 93.2184 101.902 97.6398 104.836 101.035L113.886 111.508L123.196 103.464L140.551 104.729L148.596 114.039L159.069 104.988C162.464 102.054 164.555 97.8922 164.881 93.4171C165.207 88.9419 163.742 84.5205 160.809 81.1254L153.102 72.2066C153.779 64.0514 152.822 55.843 150.287 48.0622C147.752 40.2815 143.69 33.0848 138.338 26.8937L137.566 26L136.672 26.7723ZM119.211 94.7114C117.603 90.3863 116.49 85.8937 115.891 81.3187L112.609 84.1545C109.397 86.93 109.043 91.7893 111.818 95.0012L114.835 98.4924L119.211 94.7114ZM149.544 101.023L145.763 96.6469C147.981 92.6006 149.734 88.317 150.99 83.8773L153.826 87.1591C156.602 90.371 156.247 95.2303 153.036 98.0057L149.544 101.023ZM136.541 40.0573C130.354 47.5677 126.385 56.6553 125.079 66.2982C123.774 75.9411 125.184 85.757 129.152 94.6422L135.941 95.1415C141.156 86.9256 143.975 77.418 144.081 67.6877C144.188 57.9574 141.578 48.3903 136.545 40.062L136.541 40.0573ZM117.378 127.029C117.445 126.413 117.387 125.79 117.208 125.197C117.029 124.604 116.732 124.053 116.335 123.577C115.938 123.101 115.45 122.71 114.898 122.427C114.347 122.144 113.744 121.975 113.126 121.93C112.509 121.885 111.888 121.964 111.301 122.165C110.715 122.365 110.175 122.681 109.713 123.094C109.251 123.507 108.878 124.009 108.615 124.57C108.351 125.131 108.203 125.739 108.18 126.359L107.231 139.375C107.165 139.991 107.223 140.614 107.402 141.207C107.581 141.8 107.878 142.351 108.275 142.827C108.672 143.303 109.16 143.694 109.711 143.977C110.263 144.26 110.865 144.429 111.483 144.474C112.101 144.519 112.722 144.439 113.308 144.239C113.895 144.039 114.435 143.723 114.897 143.31C115.358 142.896 115.732 142.394 115.995 141.833C116.259 141.272 116.406 140.664 116.429 140.045L117.378 127.029ZM135.365 119.617C135.432 119.001 135.374 118.378 135.195 117.784C135.016 117.191 134.719 116.64 134.322 116.164C133.925 115.689 133.437 115.297 132.886 115.014C132.334 114.731 131.732 114.562 131.114 114.517C130.496 114.472 129.875 114.552 129.289 114.752C128.702 114.952 128.162 115.268 127.7 115.682C127.239 116.095 126.865 116.597 126.602 117.158C126.338 117.719 126.191 118.327 126.167 118.946L123.321 157.994C123.254 158.61 123.312 159.234 123.491 159.827C123.671 160.42 123.968 160.971 124.364 161.447C124.761 161.923 125.25 162.314 125.801 162.597C126.352 162.88 126.955 163.049 127.573 163.094C128.191 163.139 128.812 163.059 129.398 162.859C129.984 162.659 130.525 162.343 130.986 161.929C131.448 161.516 131.821 161.014 132.085 160.453C132.348 159.892 132.496 159.284 132.519 158.665L135.365 119.617ZM147.824 124.625C149.043 124.715 150.177 125.285 150.977 126.21C151.776 127.135 152.176 128.34 152.088 129.559L151.139 142.575C151.01 143.764 150.425 144.856 149.506 145.622C148.588 146.387 147.409 146.766 146.216 146.68C145.024 146.593 143.912 146.046 143.114 145.156C142.317 144.265 141.896 143.099 141.941 141.905L142.89 128.889C142.979 127.669 143.549 126.535 144.474 125.736C145.4 124.936 146.604 124.537 147.824 124.625Z" fill="#040D17"/>
<path fill-rule="evenodd" clip-rule="evenodd" d="M136.672 26.7723C130.48 32.1221 125.417 38.6537 121.781 45.9845C118.144 53.3153 116.007 61.298 115.494 69.4652L106.575 77.1721C103.18 80.1059 101.09 84.2681 100.763 88.7432C100.437 93.2184 101.902 97.6398 104.836 101.035L113.886 111.508L123.196 103.464L140.551 104.729L148.596 114.039L159.069 104.988C162.464 102.054 164.555 97.8922 164.881 93.4171C165.207 88.9419 163.742 84.5205 160.809 81.1254L153.102 72.2066C153.779 64.0514 152.822 55.843 150.287 48.0622C147.752 40.2815 143.69 33.0848 138.338 26.8937L137.566 26L136.672 26.7723ZM119.211 94.7114C117.603 90.3863 116.49 85.8937 115.891 81.3187L112.609 84.1545C109.397 86.93 109.043 91.7893 111.818 95.0012L114.835 98.4924L119.211 94.7114ZM149.544 101.023L145.763 96.6469C147.981 92.6006 149.734 88.317 150.99 83.8773L153.826 87.1591C156.602 90.371 156.247 95.2303 153.036 98.0057L149.544 101.023ZM136.541 40.0573C130.354 47.5677 126.385 56.6553 125.079 66.2982C123.774 75.9411 125.184 85.757 129.152 94.6422L135.941 95.1415C141.156 86.9256 143.975 77.418 144.081 67.6877C144.188 57.9574 141.578 48.3903 136.545 40.062L136.541 40.0573ZM117.378 127.029C117.445 126.413 117.387 125.79 117.208 125.197C117.029 124.604 116.732 124.053 116.335 123.577C115.938 123.101 115.45 122.71 114.898 122.427C114.347 122.144 113.744 121.975 113.126 121.93C112.509 121.885 111.888 121.964 111.301 122.165C110.715 122.365 110.175 122.681 109.713 123.094C109.251 123.507 108.878 124.009 108.615 124.57C108.351 125.131 108.203 125.739 108.18 126.359L107.231 139.375C107.165 139.991 107.223 140.614 107.402 141.207C107.581 141.8 107.878 142.351 108.275 142.827C108.672 143.303 109.16 143.694 109.711 143.977C110.263 144.26 110.865 144.429 111.483 144.474C112.101 144.519 112.722 144.439 113.308 144.239C113.895 144.039 114.435 143.723 114.897 143.31C115.358 142.896 115.732 142.394 115.995 141.833C116.259 141.272 116.406 140.664 116.429 140.045L117.378 127.029ZM135.365 119.617C135.432 119.001 135.374 118.378 135.195 117.784C135.016 117.191 134.719 116.64 134.322 116.164C133.925 115.689 133.437 115.297 132.886 115.014C132.334 114.731 131.732 114.562 131.114 114.517C130.496 114.472 129.875 114.552 129.289 114.752C128.702 114.952 128.162 115.268 127.7 115.682C127.239 116.095 126.865 116.597 126.602 117.158C126.338 117.719 126.191 118.327 126.167 118.946L123.321 157.994C123.254 158.61 123.312 159.234 123.491 159.827C123.671 160.42 123.968 160.971 124.364 161.447C124.761 161.923 125.25 162.314 125.801 162.597C126.352 162.88 126.955 163.049 127.573 163.094C128.191 163.139 128.812 163.059 129.398 162.859C129.984 162.659 130.525 162.343 130.986 161.929C131.448 161.516 131.821 161.014 132.085 160.453C132.348 159.892 132.496 159.284 132.519 158.665L135.365 119.617ZM147.824 124.625C149.043 124.715 150.177 125.285 150.977 126.21C151.776 127.135 152.176 128.34 152.088 129.559L151.139 142.575C151.01 143.764 150.425 144.856 149.506 145.622C148.588 146.387 147.409 146.766 146.216 146.68C145.024 146.593 143.912 146.046 143.114 145.156C142.317 144.265 141.896 143.099 141.941 141.905L142.89 128.889C142.979 127.669 143.549 126.535 144.474 125.736C145.4 124.936 146.604 124.537 147.824 124.625Z" fill="url(#paint1_linear_490_13283)"/>
<path fill-rule="evenodd" clip-rule="evenodd" d="M160.714 59.1737L160 56.389C158.868 55.9206 157.874 55.1705 157.114 54.2101C156.353 53.2497 155.851 52.1108 155.654 50.9016C155.457 49.6924 155.573 48.453 155.99 47.301C156.407 46.1491 157.112 45.1229 158.037 44.3199C158.962 43.5169 160.078 42.9637 161.277 42.7129C162.476 42.4621 163.719 42.522 164.889 42.8868C166.058 43.2517 167.115 43.9095 167.959 44.7977C168.803 45.6859 169.405 46.7751 169.71 47.9618L173.282 61.8854C173.587 63.0721 173.583 64.3169 173.271 65.5016C172.959 66.6864 172.349 67.7717 171.5 68.6545C170.65 69.5374 169.589 70.1885 168.418 70.546C167.246 70.9035 166.002 70.9555 164.805 70.6971C163.607 70.4387 162.495 69.8785 161.575 69.0697C160.655 68.2608 159.957 67.2302 159.547 66.0756C159.137 64.9211 159.029 63.6809 159.234 62.473C159.438 61.265 159.948 60.1293 160.714 59.1737ZM164.498 50.7831L165.89 50.4258C166.259 50.3311 166.576 50.0935 166.77 49.7654C166.964 49.4373 167.02 49.0455 166.925 48.6762C166.83 48.307 166.593 47.9905 166.265 47.7963C165.937 47.6022 165.545 47.5464 165.176 47.6411L163.783 47.9983L163.426 46.606C163.331 46.2367 163.094 45.9202 162.766 45.7261C162.438 45.5319 162.046 45.4761 161.676 45.5708C161.307 45.6656 160.991 45.9031 160.797 46.2313C160.602 46.5594 160.547 46.9511 160.641 47.3204L160.999 48.7128L159.606 49.07C159.237 49.1648 158.92 49.4023 158.726 49.7304C158.532 50.0585 158.476 50.4503 158.571 50.8196C158.666 51.1889 158.903 51.5054 159.231 51.6995C159.56 51.8936 159.951 51.9495 160.321 51.8547L161.713 51.4975L162.07 52.8899C162.165 53.2591 162.403 53.5757 162.731 53.7698C163.059 53.9639 163.451 54.0197 163.82 53.925C164.189 53.8303 164.506 53.5927 164.7 53.2646C164.894 52.9365 164.95 52.5447 164.855 52.1754L164.498 50.7831ZM167.713 63.3143C167.808 63.6836 168.045 64.0001 168.373 64.1942C168.701 64.3883 169.093 64.4442 169.462 64.3494C169.832 64.2547 170.148 64.0171 170.342 63.689C170.536 63.3609 170.592 62.9691 170.497 62.5998C170.403 62.2306 170.165 61.914 169.837 61.7199C169.509 61.5258 169.117 61.47 168.748 61.5647C168.379 61.6594 168.062 61.897 167.868 62.2251C167.674 62.5532 167.618 62.945 167.713 63.3143ZM163.178 62.9936C163.273 63.3629 163.511 63.6794 163.839 63.8735C164.167 64.0676 164.559 64.1235 164.928 64.0287C165.297 63.934 165.614 63.6964 165.808 63.3683C166.002 63.0402 166.058 62.6484 165.963 62.2792C165.868 61.9099 165.631 61.5934 165.303 61.3992C164.975 61.2051 164.583 61.1493 164.214 61.244C163.844 61.3388 163.528 61.5763 163.334 61.9044C163.14 62.2325 163.084 62.6243 163.178 62.9936ZM165.642 66.8135C165.737 67.1827 165.975 67.4992 166.303 67.6934C166.631 67.8875 167.023 67.9433 167.392 67.8486C167.761 67.7538 168.078 67.5163 168.272 67.1882C168.466 66.8601 168.522 66.4683 168.427 66.099C168.332 65.7297 168.095 65.4132 167.767 65.2191C167.439 65.025 167.047 64.9691 166.678 65.0639C166.308 65.1586 165.992 65.3962 165.798 65.7243C165.604 66.0524 165.548 66.4442 165.642 66.8135Z" fill="url(#paint2_linear_490_13283)"/>
<path d="M102.979 61.4563V66.9397H108.961V61.4563L105.97 58.4654L102.979 61.4563ZM106.967 64.9458H104.973V62.2838L105.97 61.2868L106.967 62.2838V64.9458ZM108.961 52.4834V47H102.979V52.4834L105.97 55.4744L108.961 52.4834ZM104.973 48.994H106.967V51.6559L105.97 52.6529L104.973 51.6559V48.994ZM101.483 53.9789H96V59.9608H101.483L104.474 56.9699L101.483 53.9789ZM100.656 57.9669H97.994V55.9729H100.656L101.653 56.9699L100.656 57.9669ZM110.456 53.9789L107.465 56.9699L110.456 59.9608H115.94V53.9789H110.456ZM113.946 57.9669H111.284L110.287 56.9699L111.284 55.9729H113.946V57.9669Z" fill="url(#paint3_linear_490_13283)"/>
<defs>
<linearGradient id="paint0_linear_490_13283" x1="16.1333" y1="16.0752" x2="277.739" y2="147.392" gradientUnits="userSpaceOnUse">
<stop stop-color="#5E27ED"/>
<stop offset="1" stop-color="#8E55C8" stop-opacity="0.27"/>
</linearGradient>
<linearGradient id="paint1_linear_490_13283" x1="73.0083" y1="92.805" x2="180.381" y2="51.6573" gradientUnits="userSpaceOnUse">
<stop stop-color="#5E27ED"/>
<stop offset="1" stop-color="#8E55C8" stop-opacity="0.27"/>
</linearGradient>
<linearGradient id="paint2_linear_490_13283" x1="167.182" y1="43.004" x2="156.606" y2="69.9098" gradientUnits="userSpaceOnUse">
<stop stop-color="#5E27ED"/>
<stop offset="1" stop-color="#8E55C8" stop-opacity="0.27"/>
</linearGradient>
<linearGradient id="paint3_linear_490_13283" x1="97.2185" y1="48.687" x2="119.1" y2="56.5921" gradientUnits="userSpaceOnUse">
<stop stop-color="#5E27ED"/>
<stop offset="1" stop-color="#8E55C8" stop-opacity="0.27"/>
</linearGradient>
</defs>
</svg>
