<svg width="264" height="190" viewBox="0 0 264 190" fill="none" xmlns="http://www.w3.org/2000/svg">
<path d="M2.5 2.5H261.5V187.5H41.9477C20.1613 187.5 2.5 169.839 2.5 148.052V2.5Z" stroke="url(#paint0_linear_503_13438)" stroke-width="5" stroke-linejoin="round"/>
<path d="M167.778 66.5556H157.556C157.556 52.2444 146.311 41 132 41C117.689 41 106.444 52.2444 106.444 66.5556H96.2222C90.6 66.5556 86 71.1556 86 76.7778V138.111C86 143.733 90.6 148.333 96.2222 148.333H167.778C173.4 148.333 178 143.733 178 138.111V76.7778C178 71.1556 173.4 66.5556 167.778 66.5556ZM132 51.2222C140.689 51.2222 147.333 57.8667 147.333 66.5556H116.667C116.667 57.8667 123.311 51.2222 132 51.2222ZM167.778 138.111H96.2222V76.7778H167.778V138.111ZM132 97.2222C123.311 97.2222 116.667 90.5778 116.667 81.8889H106.444C106.444 96.2 117.689 107.444 132 107.444C146.311 107.444 157.556 96.2 157.556 81.8889H147.333C147.333 90.5778 140.689 97.2222 132 97.2222Z" fill="url(#paint1_linear_503_13438)"/>
<path d="M130.877 112.147C128.494 113.868 127.273 116.32 126.147 118.584C128.125 117.463 130.781 117.085 131.93 117.277C129.023 117.76 127.008 118.452 125.35 120.206C125.25 120.412 125.163 120.585 125.058 120.803C130.317 119.537 131.182 119.573 136.491 120.771C135.967 118.489 134.828 117.03 133.051 114.261C134.96 116.657 138.705 120.744 138.532 119.947C137.489 115.168 133.971 112.332 130.877 112.147ZM123.208 121.801C121.796 122.138 120.752 122.599 120.347 123.018C120.388 123.551 120.652 124.025 121.144 124.476C121.682 124.968 122.493 125.406 123.482 125.756C123.604 125.797 123.727 125.838 123.851 125.879C123.468 125.378 123.34 124.681 123.258 124.007C123.258 123.305 123.122 122.48 123.208 121.801ZM138.519 121.801C138.619 122.539 138.546 123.373 138.468 124.007C138.386 124.681 138.259 125.378 137.876 125.879C138.797 125.561 139.908 125.078 140.583 124.476C141.075 124.025 141.339 123.551 141.38 123.018C140.975 122.599 139.936 122.138 138.519 121.801ZM126.015 121.815L125.696 122.453H130.198L129.879 121.815H126.015ZM131.848 121.815L131.529 122.453H136.031L135.712 121.815H131.848ZM124.621 122.243C124.407 122.303 124.192 122.362 123.983 122.43C124.028 123.337 124.01 124.599 124.511 125.369H124.621V122.243ZM137.106 122.243V125.369H137.215C137.694 124.426 137.73 123.464 137.744 122.43C137.534 122.362 137.32 122.303 137.106 122.243ZM125.446 123.273C125.432 124.13 125.537 125.073 125.728 125.811C126.69 125.169 127.637 124.64 128.676 124.64C128.822 124.64 128.968 124.649 129.105 124.658L129.341 123.943C129.086 124.203 128.754 124.348 128.284 124.33C127.136 124.294 126.74 123.824 126.576 123.273H125.446ZM130.431 123.273L129.866 124.968L130.863 126.217L131.861 124.968L131.296 123.273H130.431ZM135.151 123.273C134.987 123.824 134.591 124.294 133.442 124.33C132.973 124.348 132.64 124.203 132.385 123.943L132.622 124.658C132.764 124.645 132.909 124.64 133.051 124.64C134.09 124.64 135.037 125.169 135.999 125.811C136.199 124.895 136.309 124.098 136.281 123.273H135.151ZM128.676 125.46C127.765 125.46 126.717 126.121 125.537 126.937C124.662 127.543 123.719 128.217 122.652 128.686C123.956 128.964 125.651 128.905 127.127 128.568C128.098 128.349 128.972 128.017 129.574 127.634C129.961 127.383 130.216 127.128 130.349 126.886L129.246 125.506C129.077 125.478 128.886 125.46 128.676 125.46ZM133.051 125.46C132.841 125.46 132.65 125.478 132.481 125.506L131.378 126.886C131.51 127.128 131.766 127.383 132.153 127.634C132.754 128.017 133.629 128.349 134.6 128.568C136.076 128.905 137.771 128.964 139.074 128.686C138.008 128.217 137.065 127.543 136.19 126.937C135.01 126.121 133.962 125.46 133.051 125.46ZM130.863 127.588C130.654 127.848 130.38 128.08 130.071 128.285H131.656C131.346 128.08 131.073 127.848 130.863 127.588ZM128.28 129.106C127.965 129.206 127.642 129.292 127.309 129.37C126.876 129.47 126.434 129.548 125.992 129.602C126.27 130.495 126.635 131.402 127.04 132.254L127.045 132.263C127.241 131.958 127.473 131.666 127.66 131.361C127.551 131.994 127.51 132.632 127.555 133.266C127.633 133.416 127.715 133.562 127.797 133.708H133.93C134.094 133.421 134.249 133.129 134.399 132.833C134.645 131.835 134.577 130.883 134.645 129.908C134.787 130.432 134.923 130.956 135.033 131.489C135.297 130.869 135.539 130.231 135.734 129.602C135.292 129.548 134.85 129.47 134.418 129.37C134.085 129.292 133.761 129.206 133.447 129.106H128.28Z" fill="url(#paint2_linear_503_13438)"/>
<defs>
<linearGradient id="paint0_linear_503_13438" x1="16.1333" y1="16.0752" x2="277.739" y2="147.392" gradientUnits="userSpaceOnUse">
<stop stop-color="#5E27ED"/>
<stop offset="1" stop-color="#8E55C8" stop-opacity="0.27"/>
</linearGradient>
<linearGradient id="paint1_linear_503_13438" x1="91.6222" y1="50.0811" x2="195.772" y2="82.3316" gradientUnits="userSpaceOnUse">
<stop stop-color="#5E27ED"/>
<stop offset="1" stop-color="#8E55C8" stop-opacity="0.27"/>
</linearGradient>
<linearGradient id="paint2_linear_503_13438" x1="121.632" y1="113.971" x2="144.844" y2="122.151" gradientUnits="userSpaceOnUse">
<stop stop-color="#5E27ED"/>
<stop offset="1" stop-color="#8E55C8" stop-opacity="0.27"/>
</linearGradient>
</defs>
</svg>
