<svg width="13" height="17" viewBox="0 0 13 17" fill="none" xmlns="http://www.w3.org/2000/svg">
<path fill-rule="evenodd" clip-rule="evenodd" d="M6.50001 5.06725L6.38928 8.15224L3.30429 8.26297L6.38928 8.37369L6.50001 11.4587L6.61073 8.37369L9.69572 8.26297L6.61073 8.15224L6.50001 5.06725ZM6.16163 7.92459L6.38225 0.603782H6.61776L6.83838 7.92459L12.9851 8.14521V8.38072L6.83838 8.60134L6.61776 15.8632H6.38225L6.16163 8.60134L0.0149306 8.38072V8.14521L6.16163 7.92459Z" fill="white"/>
<path fill-rule="evenodd" clip-rule="evenodd" d="M6.5 0.964566L6.31184 2.46977C5.94296 5.42062 3.67762 7.77737 0.744151 8.26297C3.67762 8.74856 5.94296 11.1053 6.31184 14.0562L6.5 15.5614L6.68816 14.0562C7.05704 11.1053 9.32238 8.74856 12.2558 8.26297C9.32238 7.77737 7.05704 5.42061 6.68816 2.46976L6.5 0.964566ZM6.07799 2.44053L6.38308 0L6.61692 7.90136e-09L6.92201 2.44053C7.27816 5.28957 9.46646 7.56467 12.2995 8.03132L13 8.1467L13 8.37924L12.2995 8.49462C9.46646 8.96127 7.27816 11.2364 6.92201 14.0854L6.61692 16.5259H6.38308L6.07799 14.0854C5.72184 11.2364 3.53354 8.96127 0.7005 8.49462L1.31689e-07 8.37924L0 8.1467L0.700501 8.03132C3.53354 7.56467 5.72184 5.28958 6.07799 2.44053Z" fill="white"/>
</svg>
