<svg width="42" height="42" viewBox="0 0 42 42" fill="none" xmlns="http://www.w3.org/2000/svg">
<circle cx="20.7453" cy="20.549" r="20.549" fill="#01070E"/>
<path d="M33.0278 13.5038C32.1236 13.9148 31.149 14.1848 30.1392 14.314C31.1725 13.6917 31.971 12.7053 32.3467 11.5193C31.3721 12.1064 30.2918 12.5174 29.1528 12.7523C28.2252 11.7424 26.9218 11.1553 25.4423 11.1553C22.6828 11.1553 20.4283 13.4098 20.4283 16.1928C20.4283 16.592 20.4753 16.9795 20.5575 17.3435C16.3772 17.1321 12.6549 15.1242 10.1773 12.083C9.7428 12.8227 9.49621 13.6917 9.49621 14.6076C9.49621 16.3572 10.3769 17.9071 11.739 18.7878C10.9053 18.7878 10.1303 18.553 9.44924 18.2007V18.2359C9.44924 20.6783 11.1871 22.7215 13.4886 23.1794C12.7497 23.3816 11.9739 23.4098 11.2223 23.2616C11.5413 24.2626 12.1659 25.1385 13.0084 25.7662C13.8508 26.3938 14.8688 26.7417 15.9192 26.7608C14.1387 28.1704 11.9316 28.9324 9.6606 28.9214C9.26137 28.9214 8.86213 28.8979 8.46289 28.851C10.6939 30.2835 13.3477 31.1172 16.1893 31.1172C25.4423 31.1172 30.5267 23.4378 30.5267 16.7799C30.5267 16.5568 30.5267 16.3454 30.5149 16.1223C31.5013 15.4178 32.3467 14.5254 33.0278 13.5038Z" fill="#F6B8FC"/>
</svg>
